<svg xmlns="http://www.w3.org/2000/svg" style="display: none;"><symbol id="accessability" viewBox="0 0 512 512"><title>accessability</title><circle style="fill:#303C42;" cx="256" cy="53.333" r="53.333"/><circle style="fill:#1E88E5;" cx="256" cy="53.333" r="32"/><path style="opacity:0.1;enable-background:new ;" d="M272.746,26.19c0.349,1.889,0.587,3.82,0.587,5.81 c0,17.646-14.354,32-32,32c-6.158,0-11.861-1.831-16.746-4.857c2.747,14.874,15.757,26.19,31.413,26.19c17.646,0,32-14.354,32-32 C288,41.845,281.862,31.836,272.746,26.19z"/><path style="fill:#303C42;" d="M480,128H32c-5.896,0-10.667,4.771-10.667,10.667v42.667C21.333,187.229,26.104,192,32,192h138.667 v309.333c0,5.896,4.771,10.667,10.667,10.667h53.333c5.896,0,10.667-4.771,10.667-10.667v-160h21.333v160 c0,5.896,4.771,10.667,10.667,10.667h53.333c5.896,0,10.667-4.771,10.667-10.667V192H480c5.896,0,10.667-4.771,10.667-10.667 v-42.667C490.667,132.771,485.896,128,480,128z"/><path style="fill:#1E88E5;" d="M469.333,170.667H330.667c-5.896,0-10.667,4.771-10.667,10.667v309.333h-32v-160 c0-5.896-4.771-10.667-10.667-10.667h-42.667c-5.896,0-10.667,4.771-10.667,10.667v160h-32V181.333 c0-5.896-4.771-10.667-10.667-10.667H42.667v-21.333h426.667V170.667z"/><path style="opacity:0.1;enable-background:new ;" d="M469.333,170.667H330.667c-5.896,0-10.667,4.771-10.667,10.667v309.333h-32 v-160c0-5.896-4.771-10.667-10.667-10.667H256V149.333h213.333V170.667z"/><linearGradient id="SVGID_1_" gradientUnits="userSpaceOnUse" x1="-46.1607" y1="639.1146" x2="-27.239" y2="630.2907" gradientTransform="matrix(21.3333 0 0 -21.3333 996.3334 13791.667)"> <stop offset="0" style="stop-color:#FFFFFF;stop-opacity:0.2"/> <stop offset="1" style="stop-color:#FFFFFF;stop-opacity:0"/> </linearGradient><path style="fill:url(#SVGID_1_);" d="M256,106.667c29.406,0,53.333-23.927,53.333-53.333S285.406,0,256,0 s-53.333,23.927-53.333,53.333S226.594,106.667,256,106.667z M480,128H32c-5.896,0-10.667,4.771-10.667,10.667v42.667 C21.333,187.229,26.104,192,32,192h138.667v309.333c0,5.896,4.771,10.667,10.667,10.667h53.333c5.896,0,10.667-4.771,10.667-10.667 v-160h21.333v160c0,5.896,4.771,10.667,10.667,10.667h53.333c5.896,0,10.667-4.771,10.667-10.667V192H480 c5.896,0,10.667-4.771,10.667-10.667v-42.667C490.667,132.771,485.896,128,480,128z"/></symbol><symbol id="accessability-1" viewBox="0 0 512 512"><title>accessability-1</title><g transform="translate(1 1)"> <path style="fill:#00695C;" d="M502.467,255c0.011,65.636-26.058,128.586-72.469,174.997 c-46.411,46.411-109.362,72.48-174.997,72.469c-4.267,0-8.533-0.085-12.715-0.341h-0.171C110.629,495.274,7.531,386.664,7.531,255 S110.629,14.726,242.115,7.875h0.171c4.181-0.256,8.448-0.341,12.715-0.341c65.636-0.011,128.586,26.058,174.997,72.469 C476.409,126.414,502.478,189.364,502.467,255z"/> <path style="fill:#009688;" d="M476.867,255c0.003,131.665-103.095,240.275-234.581,247.125h-0.171 C110.629,495.274,7.531,386.664,7.531,255S110.629,14.726,242.115,7.875h0.171C373.771,14.725,476.869,123.336,476.867,255z"/> <g> <path style="fill:#FFEB3A;" d="M193.987,152.259c-17.17,10.214-31.514,24.558-41.728,41.728L120.6,180.931 c13.924-25.461,34.824-46.42,60.245-60.416L193.987,152.259z"/> <path style="fill:#FFEB3A;" d="M139.203,284.525l-31.744,13.141c-8.081-27.875-8.051-57.475,0.085-85.333l31.659,13.141 C134.296,244.852,134.296,265.148,139.203,284.525z"/> <path style="fill:#FFEB3A;" d="M193.987,357.741L180.931,389.4c-25.461-13.924-46.42-34.824-60.416-60.245l31.744-13.141 C162.473,333.183,176.817,347.527,193.987,357.741z"/> <path style="fill:#FFEB3A;" d="M297.667,402.541c-27.875,8.081-57.475,8.051-85.333-0.085l13.141-31.659 c19.378,4.907,39.673,4.907,59.051,0L297.667,402.541z"/> <path style="fill:#FFEB3A;" d="M389.4,329.069c-13.924,25.461-34.824,46.42-60.245,60.416l-13.141-31.744 c17.17-10.214,31.514-24.558,41.728-41.728L389.4,329.069z"/> <path style="fill:#FFEB3A;" d="M297.667,195.267L255,237.933l-42.667-42.667h25.6V75.8c0-9.426,7.641-17.067,17.067-17.067 s17.067,7.641,17.067,17.067v119.467H297.667z"/> <path style="fill:#FFEB3A;" d="M408.6,297.667v-25.6h-93.867c-9.426,0-17.067-7.641-17.067-17.067s7.641-17.067,17.067-17.067 H408.6v-25.6L451.267,255L408.6,297.667z"/> </g> </g><g> <path d="M256,0C114.615,0,0,114.615,0,256s114.615,256,256,256s256-114.615,256-256C511.84,114.682,397.319,0.16,256,0z M256,494.933C124.041,494.933,17.067,387.959,17.067,256S124.041,17.067,256,17.067S494.933,124.041,494.933,256 C494.785,387.898,387.898,494.785,256,494.933z"/> <path d="M118.317,189.792l31.667,13.117c3.923,1.625,8.444,0.12,10.608-3.533c9.469-15.958,22.786-29.289,38.733-38.775 c3.651-2.166,5.154-6.687,3.529-10.608l-13.158-31.766c-0.931-2.243-2.773-3.983-5.065-4.784 c-2.292-0.802-4.817-0.589-6.943,0.584c-26.84,14.775-48.904,36.906-63.596,63.792c-1.16,2.126-1.362,4.645-0.556,6.929 C114.342,187.029,116.08,188.864,118.317,189.792L118.317,189.792z M177.704,133.867l6.637,16.033 c-13.587,9.187-25.284,20.896-34.458,34.492l-15.962-6.608C145.145,160.132,160.087,145.144,177.704,133.867z"/> <path d="M148.467,283.375c-4.569-17.985-4.56-36.828,0.025-54.808c1.05-4.112-1.083-8.37-5.004-9.992l-31.662-13.108 c-2.236-0.928-4.762-0.861-6.946,0.184c-2.184,1.044-3.822,2.968-4.504,5.291c-8.629,29.398-8.68,60.649-0.146,90.075 c0.674,2.334,2.311,4.27,4.5,5.323c2.189,1.053,4.723,1.124,6.967,0.194l31.771-13.158 C147.388,291.749,149.519,287.488,148.467,283.375z M130.304,280.35l-16.029,6.642c-4.484-20.427-4.453-41.587,0.092-62 l15.963,6.608C127.208,247.699,127.2,264.247,130.304,280.35z"/> <path d="M199.375,351.408c-15.958-9.468-29.287-22.785-38.771-38.733c-2.165-3.652-6.686-5.158-10.608-3.533l-31.771,13.167 c-2.243,0.93-3.984,2.772-4.787,5.064c-0.802,2.292-0.591,4.818,0.582,6.944c14.778,26.838,36.91,48.9,63.796,63.592 c2.125,1.161,4.644,1.363,6.928,0.557c2.284-0.806,4.117-2.545,5.043-4.782l13.117-31.667 C204.53,358.095,203.026,353.575,199.375,351.408z M177.779,378.084c-17.649-11.225-32.635-26.167-43.913-43.783l16.033-6.642 c9.19,13.585,20.898,25.282,34.492,34.458L177.779,378.084z"/> <path d="M293.375,368.533c-1.618-3.927-5.883-6.06-9.996-5c-17.984,4.567-36.825,4.558-54.804-0.025 c-4.113-1.066-8.382,1.069-9.996,5l-13.117,31.667c-0.929,2.236-0.863,4.762,0.182,6.947c1.045,2.185,2.969,3.822,5.293,4.503 c14.679,4.319,29.902,6.511,45.204,6.508c15.182-0.005,30.289-2.146,44.875-6.358c2.334-0.674,4.271-2.31,5.325-4.499 c1.054-2.189,1.125-4.723,0.196-6.968L293.375,368.533z M224.988,397.642l6.613-15.975c16.1,3.125,32.651,3.133,48.754,0.025 l6.642,16.033C266.567,402.21,245.405,402.182,224.988,397.642z"/> <path d="M393.683,322.208l-31.667-13.117c-3.923-1.631-8.447-0.124-10.608,3.533c-9.469,15.958-22.786,29.289-38.733,38.776 c-3.651,2.166-5.154,6.687-3.529,10.608l13.158,31.767c0.929,2.243,2.771,3.982,5.062,4.783c2.292,0.808,4.821,0.596,6.946-0.583 c26.84-14.775,48.904-36.906,63.596-63.792c1.159-2.126,1.361-4.645,0.556-6.929C397.659,324.971,395.921,323.137,393.683,322.208 L393.683,322.208z M334.296,378.133l-6.637-16.033c13.587-9.187,25.284-20.896,34.458-34.492l15.962,6.608 C366.855,351.868,351.913,366.856,334.296,378.133z"/> <path d="M249.967,244.966c1.6,1.601,3.77,2.5,6.033,2.5s4.433-0.899,6.033-2.5L304.7,202.3c2.441-2.44,3.171-6.111,1.85-9.299 c-1.321-3.189-4.432-5.268-7.884-5.267H281.6V76.8c0-14.138-11.461-25.6-25.6-25.6c-14.138,0-25.6,11.462-25.6,25.6v110.933 h-17.067c-3.451,0-6.563,2.079-7.883,5.268c-1.321,3.189-0.59,6.859,1.85,9.299L249.967,244.966z M238.933,204.8 c2.263,0.001,4.434-0.898,6.035-2.499c1.6-1.6,2.499-3.771,2.499-6.035V76.8c0-4.713,3.821-8.533,8.533-8.533 c4.713,0,8.533,3.821,8.533,8.533v119.467c-0.001,2.263,0.898,4.434,2.499,6.035c1.6,1.6,3.771,2.499,6.035,2.499h5L256,226.867 L233.933,204.8H238.933z"/> <path d="M406.333,205.45c-3.189,1.321-5.267,4.432-5.267,7.883V230.4h-85.333c-14.138,0-25.6,11.462-25.6,25.6 c0,14.139,11.462,25.6,25.6,25.6h85.333v17.067c0,3.451,2.079,6.563,5.267,7.883c3.189,1.321,6.859,0.59,9.299-1.85l42.667-42.667 c1.601-1.6,2.5-3.77,2.5-6.033s-0.899-4.433-2.5-6.033L415.633,207.3C413.198,204.85,409.521,204.118,406.333,205.45z M418.133,238.933v-5L440.2,256l-22.067,22.067v-5c0.001-2.263-0.898-4.434-2.499-6.035s-3.771-2.499-6.035-2.499h-93.867 c-4.713,0-8.533-3.821-8.533-8.533c0-4.713,3.821-8.533,8.533-8.533H409.6c2.263,0.001,4.434-0.898,6.035-2.499 C417.235,243.368,418.134,241.197,418.133,238.933z"/> </g></symbol><symbol id="disabled-people" viewBox="0 0 512.001 512.001"><title>disabled-people</title><g clip-rule="evenodd" fill-rule="evenodd"><path d="m238.149 441.679c15.073-75.339-57.144-111.405-77.76-143.127-4.855-7.469-33.424-53.457-38.279-60.927-5.066-7.794-15.534-10.027-23.263-4.959-2.154 1.413-3.677 3.158-4.699 5.136l-38.552-82.533c-12.151-24.873-40.902-11.047-33.35 10.935 5.325 15.005 25.328 85.643 40.932 132.823 11.224 33.936 16.218 42.93 39.3 69.742l35.088 40.76-1.603 32.151h102.186z" fill="#ffdcd5"/><path d="m351.612 298.552c-20.616 31.722-92.833 67.788-77.76 143.127h102.186l-1.603-32.151 35.088-40.76c23.081-26.812 28.076-35.806 39.3-69.742 15.603-47.18 35.606-117.818 40.931-132.823 7.552-21.982-21.199-35.808-33.35-10.935l-38.551 82.533c-1.022-1.978-2.545-3.724-4.699-5.136-7.728-5.068-18.196-2.835-23.263 4.959-4.855 7.471-33.424 53.459-38.279 60.928z" fill="#ffdcd5"/><g fill="#5cd0b3"><path d="m376.039 441.679h-102.186-17.852v60.323h139.978v-60.323z"/><path d="m256.001 502.002v-60.323h-17.852-102.186-19.94v60.323z"/></g></g><g><path d="m484.498 134.01c-11.549-4.785-28.082-1.547-37.079 16.87-.025.052-.05.105-.075.158l-33.128 70.922c-4.92-2.043-10.348-2.559-15.696-1.435-7.05 1.481-13.092 5.618-17.013 11.65-2.476 3.809-10.617 16.83-19.236 30.615-8.192 13.103-16.663 26.651-19.042 30.312-4.892 7.527-13.957 16.18-23.554 25.342-26.618 25.409-62.479 59.647-57.393 113.235h-12.563c2.633-27.936-5.626-53.872-25.111-79.016-3.384-4.366-9.665-5.163-14.03-1.779-4.366 3.383-5.162 9.665-1.779 14.03 16.857 21.752 23.542 43.111 20.81 66.765h-83.134l1.08-21.653c.127-2.563-.735-5.077-2.409-7.022l-35.088-40.76c-22.023-25.583-26.565-33.645-37.384-66.357-8.878-26.845-19.166-61.249-27.433-88.893-6.243-20.876-11.177-37.378-13.549-44.077-1.981-5.816.625-9.253 3.466-10.429 4.064-1.684 8.435 1.037 11.419 7.1l36.755 78.688c-1.338 5.217-1.337 11.902 1.041 20.458 6.858 24.672 15.914 49.618 24.844 68.44 2.368 4.989 8.332 7.116 13.321 4.748 4.99-2.368 7.116-8.332 4.748-13.321-8.461-17.833-17.08-41.606-23.644-65.223-1.855-6.677-1.624-10.831.689-12.348 1.48-.972 3.269-1.303 5.04-.93 1.807.379 3.353 1.437 4.354 2.977 2.382 3.666 10.866 17.234 19.07 30.355 5.612 8.976 11.221 17.947 15.036 24.003 2.943 4.673 9.117 6.076 13.791 3.132 4.673-2.943 6.075-9.118 3.132-13.791-3.805-6.042-9.401-14.992-15-23.947-8.629-13.803-16.781-26.839-19.259-30.652-3.92-6.032-9.962-10.169-17.013-11.65-5.35-1.124-10.777-.609-15.696 1.435l-33.128-70.922c-.025-.053-.05-.105-.075-.158-8.996-18.416-25.526-21.655-37.079-16.87-11.699 4.846-20.509 18.576-14.714 35.444.011.032.022.063.033.095 2.195 6.186 7.321 23.327 13.256 43.175 8.303 27.768 18.637 62.325 27.606 89.443 11.659 35.253 17.437 45.505 41.215 73.126l32.48 37.73-.931 18.656h-10.426c-5.523 0-10 4.477-10 10v60.322c0 5.523 4.477 10 10 10h279.957c5.523 0 10-4.477 10-10v-60.322c0-5.523-4.477-10-10-10h-10.426l-.931-18.656 32.48-37.73c23.778-27.622 29.556-37.873 41.215-73.126 8.97-27.122 19.305-61.684 27.609-89.455 5.933-19.842 11.058-36.979 13.252-43.164.011-.032.022-.063.033-.095 5.795-16.869-3.015-30.6-14.714-35.445zm-358.475 317.669h119.978v40.322h-119.978zm259.956 40.322h-119.978v-40.322h119.979v40.322zm94.332-329.087c-2.371 6.695-7.305 23.194-13.547 44.069-8.267 27.647-18.556 62.056-27.436 88.904-10.819 32.713-15.361 40.775-37.384 66.358l-35.088 40.76c-1.674 1.945-2.537 4.459-2.409 7.022l1.08 21.653h-83.14c-5.194-45.034 24.633-73.507 51.096-98.768 10.466-9.99 20.351-19.426 26.514-28.91 2.475-3.808 10.614-16.826 19.231-30.608 8.194-13.105 16.667-26.657 19.047-30.319 1.001-1.54 2.547-2.597 4.354-2.977 1.769-.371 3.559-.042 5.04.931 2.313 1.517 2.544 5.67.688 12.347-6.564 23.616-15.182 47.389-23.644 65.223-2.368 4.99-.242 10.954 4.748 13.321 4.989 2.365 10.954.242 13.321-4.748 8.931-18.823 17.987-43.769 24.844-68.44 2.378-8.555 2.38-15.241 1.042-20.458l36.755-78.687c2.985-6.062 7.353-8.783 11.42-7.1 2.842 1.177 5.449 4.612 3.468 10.427z"/><path d="m235.202 220.4c19.659 0 38.142-7.656 52.043-21.558 3.905-3.905 3.905-10.237 0-14.142s-10.237-3.905-14.142 0c-10.124 10.124-23.583 15.699-37.9 15.699-29.555 0-53.6-24.045-53.6-53.6 0-19.088 10.269-36.875 26.8-46.419 4.783-2.761 6.422-8.877 3.66-13.66-2.761-4.784-8.877-6.422-13.66-3.66-22.699 13.105-36.8 37.529-36.8 63.74-.001 40.584 33.015 73.6 73.599 73.6z"/><path d="m225.202 63.419v83.381c0 5.523 4.477 10 10 10h53.678l27.487 57.889c1.656 3.488 5.172 5.711 9.033 5.711h15c5.523 0 10-4.477 10-10s-4.477-10-10-10h-8.678l-27.487-57.889c-1.656-3.488-5.172-5.71-9.033-5.71h-50v-43.601h43.4c5.523 0 10-4.477 10-10s-4.477-10-10-10h-43.4v-9.781c13.041-4.228 22.5-16.487 22.5-30.919 0-17.92-14.58-32.5-32.5-32.5s-32.5 14.58-32.5 32.5c0 14.432 9.458 26.691 22.5 30.919zm10-43.419c6.893 0 12.5 5.607 12.5 12.5s-5.607 12.5-12.5 12.5-12.5-5.607-12.5-12.5 5.607-12.5 12.5-12.5z"/><path d="m185.817 316.061c-5.523 0-9.996 4.477-9.996 10s4.48 10 10.003 10 10-4.477 10-10-4.477-10-10-10z"/></g></symbol><symbol id="disabled" viewBox="0 0 512 512"><title>disabled</title><g><path d="m440.371 7.5h-368.742c-35.417 0-64.129 28.712-64.129 64.129v368.742c0 35.417 28.712 64.129 64.129 64.129h368.742c35.417 0 64.129-28.712 64.129-64.129v-368.742c0-35.417-28.712-64.129-64.129-64.129z" fill="#faf5dc"/><path d="m440.371 464.936h-368.742c-17.709 0-32.065-6.856-32.065-24.565v-368.742c0-17.709 14.356-32.065 32.065-32.065h368.742c17.709 0 32.065 14.356 32.065 32.065v368.742c-.001 17.709-14.356 24.565-32.065 24.565z" fill="#8bb3ea"/><path d="m384.258 384.258h-12.819l-28.229-77.625c-2.302-6.333-8.325-10.552-15.065-10.552h-80.161v-56.113h56.113c8.854 0 16.032-7.179 16.032-16.032 0-8.854-7.178-16.032-16.032-16.032h-56.113v-16.032c0-8.854-7.179-16.032-16.032-16.032-8.854 0-16.032 7.178-16.032 16.032v120.242c0 8.854 7.178 16.032 16.032 16.032h84.964l28.229 77.625c2.302 6.333 8.325 10.552 15.065 10.552h24.048c8.854 0 16.032-7.178 16.032-16.032s-7.178-16.033-16.032-16.033z" fill="#faf5dc"/><circle cx="231.952" cy="119.726" fill="#faf5dc" r="24.048"/><path d="m71.629 472.435c-17.709 0-32.065-14.356-32.065-32.065v-424.221c-19.149 11.093-32.064 31.757-32.064 55.48v368.742c0 35.417 28.712 64.129 64.129 64.129h368.742c23.724 0 44.386-12.915 55.48-32.065z" fill="#f5ebcd"/><path d="m95.677 448.387c-17.709 0-32.065-14.356-32.065-32.065v-375.624c-13.805 3.576-24.048 16.007-24.048 30.931v368.742c0 17.709 14.356 32.065 32.065 32.065h368.742c14.924 0 27.355-10.243 30.931-24.048h-375.625z" fill="#739ad6"/><path d="m300.073 352.194h-8.298c-12.95 19.296-34.887 32.065-59.824 32.065-39.783 0-72.145-32.366-72.145-72.145 0-24.935 12.768-46.874 32.065-59.824v-36.301c-37.612 15.736-64.129 52.868-64.129 96.125 0 57.463 46.75 104.21 104.21 104.21 31.303 0 59.268-14.009 78.373-35.943z" fill="#f5ebcd"/></g><g><path d="m440.371 0h-368.742c-39.496 0-71.629 32.133-71.629 71.629v368.742c0 39.496 32.133 71.629 71.629 71.629h368.742c39.496 0 71.629-32.133 71.629-71.629v-368.742c0-39.496-32.133-71.629-71.629-71.629zm56.629 440.371c0 31.225-25.404 56.629-56.629 56.629h-368.742c-31.225 0-56.629-25.404-56.629-56.629v-368.742c0-31.225 25.404-56.629 56.629-56.629h368.742c31.225 0 56.629 25.404 56.629 56.629z"/><path d="m111.71 464.936h-40.081c-13.545 0-24.564-11.02-24.564-24.564v-368.743c0-13.545 11.02-24.565 24.564-24.565h304.611c4.142 0 7.5-3.358 7.5-7.5s-3.358-7.5-7.5-7.5h-304.611c-21.816 0-39.564 17.749-39.564 39.565v368.742c0 21.816 17.749 39.564 39.564 39.564h40.082c4.142 0 7.5-3.358 7.5-7.5s-3.358-7.499-7.501-7.499z"/><path d="m440.371 32.064h-32.068c-4.142 0-7.5 3.358-7.5 7.5s3.358 7.5 7.5 7.5h32.068c13.545 0 24.564 11.02 24.564 24.565v368.742c0 13.545-11.02 24.564-24.564 24.564h-296.596c-4.142 0-7.5 3.358-7.5 7.5s3.358 7.5 7.5 7.5h296.596c21.816 0 39.564-17.749 39.564-39.564v-368.742c.001-21.816-17.748-39.565-39.564-39.565z"/><path d="m231.952 423.823c30.711 0 59.338-12.207 80.608-34.371 2.868-2.989 2.771-7.736-.218-10.604s-7.737-2.771-10.604.218c-18.415 19.189-43.199 29.757-69.786 29.757-53.326 0-96.71-43.384-96.71-96.71 0-36.194 19.957-69.079 52.082-85.821 3.673-1.914 5.099-6.444 3.185-10.117s-6.443-5.1-10.117-3.185c-37.102 19.336-60.149 57.317-60.149 99.123-.001 61.597 50.111 111.71 111.709 111.71z"/><path d="m191.323 261.827c3.22-2.605 3.719-7.328 1.113-10.548-2.605-3.22-7.328-3.719-10.548-1.113-18.799 15.21-29.582 37.789-29.582 61.947 0 43.917 35.729 79.645 79.645 79.645 24.156 0 46.734-10.781 61.944-29.579 2.606-3.22 2.108-7.943-1.112-10.548s-7.942-2.107-10.548 1.113c-12.349 15.261-30.677 24.014-50.284 24.014-35.646 0-64.645-29-64.645-64.645.001-19.609 8.754-37.937 24.017-50.286z"/><path d="m338.095 408.332c3.367 9.266 12.254 15.491 22.114 15.491h24.049c12.976 0 23.532-10.557 23.532-23.532s-10.557-23.532-23.532-23.532h-7.566l-26.433-72.687c-3.367-9.266-12.254-15.491-22.114-15.491h-72.661v-41.113h48.613c12.976 0 23.532-10.556 23.532-23.532s-10.557-23.532-23.532-23.532h-48.613v-8.532c0-12.976-10.557-23.532-23.532-23.532s-23.532 10.556-23.532 23.532v120.242c0 12.976 10.557 23.532 23.532 23.532h79.711zm-114.676-96.219v-120.242c0-4.705 3.828-8.532 8.532-8.532s8.532 3.828 8.532 8.532v16.032c0 4.142 3.358 7.5 7.5 7.5h56.113c4.705 0 8.532 3.828 8.532 8.532s-3.828 8.532-8.532 8.532h-56.113c-4.142 0-7.5 3.358-7.5 7.5v56.113c0 4.142 3.358 7.5 7.5 7.5h80.161c3.575 0 6.796 2.256 8.017 5.616l28.229 77.625c1.078 2.964 3.895 4.937 7.048 4.937h12.819c4.705 0 8.532 3.828 8.532 8.532 0 4.705-3.828 8.532-8.532 8.532h-24.049c-3.574 0-6.796-2.256-8.017-5.616l-28.229-77.625c-1.078-2.964-3.895-4.937-7.048-4.937h-84.964c-4.703.001-8.531-3.826-8.531-8.531z"/><path d="m231.952 151.274c17.396 0 31.548-14.153 31.548-31.548s-14.152-31.548-31.548-31.548-31.548 14.153-31.548 31.548 14.152 31.548 31.548 31.548zm0-48.097c9.125 0 16.548 7.424 16.548 16.548s-7.423 16.548-16.548 16.548-16.548-7.424-16.548-16.548 7.423-16.548 16.548-16.548z"/></g></symbol><symbol id="pride" viewBox="0 0 512 512"><title>pride</title><g><path d="m319.554 411.962c-10.28 1.41-18.51 1.51-25.62.9-24.25-2.11-35.5-12.56-70.54-7.74-45.32 6.23-41.17 30.43-86.49 36.66s-53.42-17.97-98.74-11.73l-5.13-36.5-23.18-165.07c45.32-6.24 49.35 17.96 94.67 11.73s41.17-30.43 86.49-36.66c35.46-4.87 45.71 8.87 70.19 12.11 6.82.89 14.73.98 24.6-.38l28.28 164.81z" fill="#f77a49"/><path d="m319.554 411.962c-10.28 1.41-18.51 1.51-25.62.9l-32.73-197.2c6.82.89 14.73.98 24.6-.38l28.28 164.81z" fill="#de4f42"/><g><path d="m314.085 380.092-152.57-32.693-128.48 46.153 5.13 36.5c45.32-6.24 53.42 17.96 98.74 11.73s41.17-30.43 86.49-36.66c35.04-4.82 46.29 5.63 70.54 7.74 7.11.61 15.34.51 25.62-.9z" fill="#997ab8"/><path d="m319.554 411.962c-10.28 1.41-18.51 1.51-25.62.9l-5.55-33.49c7.08 1.35 15.26 1.87 25.7.72z" fill="#6957a1"/></g><g><path d="m310.424 347.582-139.62-41.132-142.404 54.321 4.634 32.781c45.32-6.23 56.72 17.98 102.04 11.75s41.18-30.43 86.5-36.66c33.97-4.67 44.65 7.75 66.96 11.65 7.45 1.3 16.21 1.65 27.56.09z" fill="#a6dff5"/><path d="m316.094 380.382c-11.35 1.56-20.11 1.21-27.56-.09l-5.44-32.75c7.44 1.26 16.14 1.58 27.33.04z" fill="#54c9eb"/></g><g><path d="m304.134 314.782-133.758-43.712-146.788 56.901 4.812 32.8c45.31-6.23 55.064 17.961 100.384 11.731s41.18-30.43 86.5-36.66c34.4-4.73 44.93 8.08 67.83 11.79 7.26 1.19 15.77 1.45 26.69-.05z" fill="#5bc196"/><path d="m283.114 347.632-5.44-32.75c7.25 1.14 15.7 1.38 26.46-.1l5.67 32.8c-10.92 1.5-19.43 1.24-26.69.05z" fill="#25a077"/></g><g><path d="m297.224 281.982-90.93-24.268-187.36 37.458 4.653 32.799c45.32-6.23 52.967 17.961 98.287 11.731s41.18-30.43 86.5-36.66c35.15-4.83 45.37 8.64 69.33 12.02 6.93.98 15.02 1.12 25.19-.28z" fill="#ffe26f"/><path d="m277.704 315.062-5.44-32.76c6.92.95 14.94 1.06 24.96-.32l5.67 32.8c-10.17 1.4-18.26 1.26-25.19.28z" fill="#ffc54b"/></g><path d="m297.224 281.982c-10.06 1.38-18.08 1.27-24.96.31-24.13-3.33-34.31-16.9-69.57-12.05-45.32 6.23-41.17 30.43-86.49 36.66s-51.95-17.96-97.27-11.73l-4.47-32.8c45.32-6.23 50.13 17.96 95.45 11.73s41.17-30.43 86.49-36.66c35.41-4.87 45.9 8.84 70.42 12.1 6.85.9 14.81.99 24.72-.37z" fill="#ffba4c"/><path d="m272.264 282.292-5.44-32.75c6.85.9 14.81.99 24.72-.37l5.68 32.81c-10.06 1.38-18.079 1.27-24.96.31z" fill="#fb963f"/><g><path d="m432.775 281.952-39.42 39.43-13-13-26.42-26.43c-5.44-5.44-8.17-12.57-8.17-19.71 0-7.13 2.73-14.27 8.17-19.71 10.89-10.89 28.54-10.89 39.42 0 3.79-3.79 8.41-6.27 13.27-7.42h.01c9.1-2.15 19.05.33 26.14 7.42 10.889 10.89 10.889 28.54 0 39.42z" fill="#f77a49"/><path d="m432.775 242.532c10.89 10.89 10.89 28.54 0 39.42l-39.42 39.43-13-13 30.42-30.43c10.89-10.88 10.89-28.53 0-39.42-1.29-1.29-2.68-2.43-4.14-3.42 9.099-2.15 19.049.33 26.14 7.42z" fill="#de4f42"/></g><path d="m497.914 386.392-31.73 31.73-17-17-14.73-14.73c-4.38-4.38-6.57-10.12-6.57-15.86 0-5.75 2.19-11.49 6.57-15.87 8.76-8.76 22.97-8.76 31.73 0 3.48-3.48 7.82-5.58 12.33-6.29 6.85-1.09 14.11 1.01 19.4 6.29 8.76 8.76 8.76 22.97 0 31.73z" fill="#ffba4c"/><path d="m497.914 354.662c8.76 8.76 8.76 22.97 0 31.73l-31.73 31.73-17-17 25.73-25.73c7.32-7.32 8.52-18.45 3.6-27.02 6.85-1.09 14.11 1.01 19.4 6.29z" fill="#fb963f"/><g><path d="m422.104 475.752-28.75 28.75-28.75-28.75c-3.97-3.97-5.95-9.17-5.95-14.38 0-5.2 1.98-10.4 5.95-14.37 7.94-7.94 20.81-7.94 28.75 0 3.85-3.85 8.85-5.83 13.9-5.94 5.36-.13 10.76 1.85 14.85 5.94 7.941 7.94 7.941 20.81 0 28.75z" fill="#a6dff5"/><path d="m422.104 447.002c7.94 7.94 7.94 20.81 0 28.75l-28.75 28.75-14-14 24.75-24.75c6.69-6.69 7.74-16.89 3.15-24.69 5.36-.13 10.76 1.85 14.85 5.94z" fill="#54c9eb"/></g><g><g><path d="m86.992 34.455v86.44l-24.8-31.86-2.45-3.15-24.25 17.01v-79.38l26.7 5.67z" fill="#ffba4c"/><path d="m86.992 34.455v86.44l-24.8-31.86v-59.85z" fill="#fb963f"/></g><g><path d="m185.822 40.645-31.05 101.07-.74-2.47-30.31-101.49 35.32 1.64z" fill="#a6dff5"/><path d="m185.822 40.645-31.05 101.07-.74-2.47 5.01-99.85z" fill="#54c9eb"/></g><g><path d="m290.252 41.545v82.18l-25.31-14.79-8.94-5.23-34.25 20.02v-82.38l43.19.13z" fill="#f77a49"/><path d="m290.252 41.545v82.18l-25.31-14.79v-67.46z" fill="#de4f42"/></g><g><path d="m388.282 37.755-31.05 103.96-1.07-3.49-29.97-97.58 32.69-1.52z" fill="#a6dff5"/><path d="m388.282 37.755-31.05 103.96-1.07-3.49 2.72-99.1z" fill="#54c9eb"/></g><g><path d="m476.522 23.515v79.38l-24.26-17.01-1.5 1.93-25.75 33.08v-86.44l25.75-5.47z" fill="#ffba4c"/><path d="m476.522 23.515v79.38l-24.26-17.01-1.5 1.93v-58.83z" fill="#fb963f"/></g></g></g><g><path d="m269.616 443.487c-3.495-2.226-8.13-1.196-10.354 2.298l-15.305 24.036c-2.225 3.494-1.196 8.13 2.298 10.354 1.249.795 2.643 1.175 4.021 1.175 2.478 0 4.904-1.228 6.333-3.473l15.305-24.036c2.225-3.494 1.196-8.13-2.298-10.354z"/><path d="m293.206 214.014c-.684-3.986-4.403-6.711-8.414-6.162-20.825 2.865-31.989-1.192-43.813-5.486-13.017-4.728-26.476-9.616-50.976-6.247-24.557 3.377-36.312 12.064-46.683 19.728-9.795 7.239-19.048 14.076-39.812 16.931-20.821 2.862-31.955-1.192-43.746-5.484-11.657-4.244-23.669-8.618-43.72-7.035l-1.114-7.886c-.579-4.101-4.371-6.957-8.476-6.377-4.101.58-6.956 4.374-6.377 8.475l41.125 291.075c.529 3.746 3.74 6.452 7.417 6.452.349 0 .703-.024 1.059-.075 4.101-.58 6.956-4.374 6.377-8.476l-9.429-66.739c16.528-1.09 27.253 2.518 38.524 6.309 10.717 3.604 21.713 7.303 37.299 7.303 4.703 0 9.824-.337 15.481-1.115 24.557-3.377 36.312-12.064 46.684-19.729 2.05-1.515 3.986-2.946 6.024-4.35 3.41-2.351 4.27-7.021 1.919-10.431s-7.019-4.27-10.432-1.919c-2.241 1.545-4.369 3.117-6.427 4.638-9.795 7.239-19.048 14.076-39.812 16.931-20.915 2.875-33.078-1.215-45.954-5.545-12.486-4.199-25.352-8.526-45.41-6.983l-3.05-21.59c16.727-1.08 28.204 2.546 40.265 6.357 1.831.579 3.662 1.157 5.51 1.719.728.222 1.463.327 2.187.327 3.215 0 6.188-2.083 7.172-5.318 1.207-3.962-1.028-8.153-4.991-9.359-1.798-.547-3.578-1.11-5.359-1.673-13.194-4.169-26.789-8.464-46.888-6.946l-2.529-17.9c16.668-1.101 27.768 2.521 39.437 6.328 11.015 3.593 22.316 7.281 38.006 7.28 4.74 0 9.881-.336 15.535-1.114 24.557-3.376 36.312-12.064 46.683-19.729 9.795-7.239 19.048-14.076 39.812-16.931 20.784-2.857 31.558 1.182 42.967 5.459 10.822 4.057 22.941 8.6 43.035 7.056l3.079 17.944c-15.856 1-25.127-2.527-34.869-6.232-11.908-4.529-25.403-9.661-49.963-6.287-24.556 3.376-36.312 12.064-46.683 19.729-9.795 7.239-19.048 14.076-39.813 16.931-1.907.262-3.812.474-5.663.63-4.127.347-7.192 3.974-6.845 8.102.329 3.914 3.607 6.872 7.465 6.872.21 0 .423-.009.637-.027 2.114-.178 4.285-.419 6.451-.717 24.557-3.376 36.312-12.064 46.684-19.728 9.795-7.239 19.047-14.076 39.811-16.931s31.364 1.177 42.588 5.446c10.688 4.066 22.656 8.617 42.75 7.066l2.879 16.784c-16.487 1.298-26.719-1.332-37.47-4.095-13.198-3.393-26.847-6.9-50.966-3.585-4.103.564-6.973 4.348-6.409 8.452.564 4.103 4.343 6.971 8.452 6.409 21.2-2.914 32.852.081 45.189 3.252 9.451 2.43 19.13 4.918 32.722 4.918 5.389 0 11.396-.392 18.244-1.333 2.014-.277 3.828-1.359 5.029-2.999s1.685-3.697 1.341-5.7zm-270.272 55.017c16.262-1.072 26.243 2.505 36.731 6.264 3.581 1.284 7.285 2.611 11.267 3.771.7.204 1.406.301 2.101.301 3.249 0 6.243-2.128 7.197-5.404 1.159-3.977-1.126-8.14-5.103-9.298-3.544-1.033-6.875-2.227-10.402-3.49-11.787-4.225-23.934-8.577-43.895-7.035l-2.683-18.988c16.305-1.107 26.144 2.474 36.485 6.239 12.988 4.728 26.417 9.617 50.92 6.249 24.557-3.376 36.312-12.064 46.684-19.728 9.795-7.239 19.047-14.077 39.811-16.932 20.822-2.865 31.99 1.192 43.813 5.486 11.678 4.241 23.711 8.611 43.754 7.034l3.264 19.026c-16.113 1.027-25.982-2.533-36.352-6.272-13.1-4.724-26.647-9.61-51.136-6.241-24.557 3.376-36.312 12.064-46.683 19.728-9.795 7.239-19.048 14.076-39.811 16.931-4.104.564-6.973 4.348-6.409 8.452.517 3.757 3.732 6.479 7.421 6.479.34 0 .685-.023 1.031-.071 24.557-3.376 36.312-12.064 46.683-19.728 9.795-7.239 19.048-14.076 39.811-16.931 20.83-2.865 32.088 1.194 44.005 5.492 11.768 4.243 23.894 8.616 43.99 7.021l3.079 17.944c-16.033 1.014-25.755-2.536-35.968-6.265-12.955-4.73-26.352-9.619-50.856-6.251-24.557 3.376-36.312 12.064-46.683 19.728-9.795 7.239-19.048 14.076-39.812 16.931-20.884 2.873-32.674-1.207-45.159-5.524-12.139-4.198-24.648-8.523-44.566-7.018zm241.607 65.655c-12.063-4.522-25.737-9.647-50.275-6.274-24.557 3.376-36.312 12.064-46.683 19.729-9.796 7.239-19.048 14.076-39.812 16.931-20.951 2.882-33.529-1.222-46.845-5.567-12.841-4.189-26.075-8.506-46.193-6.959l-2.532-17.921c16.455-1.057 27.186 2.54 38.463 6.32 10.748 3.604 21.775 7.301 37.371 7.301 4.706 0 9.831-.337 15.487-1.115 24.557-3.376 36.312-12.064 46.683-19.729 9.795-7.239 19.048-14.076 39.812-16.931 4.103-.564 6.973-4.348 6.409-8.452s-4.348-6.971-8.452-6.409c-24.557 3.376-36.312 12.064-46.683 19.728-9.795 7.239-19.048 14.076-39.812 16.931-20.92 2.878-33.125-1.215-46.047-5.547-12.49-4.187-25.361-8.502-45.335-6.993l-2.53-17.908c16.317-1.046 26.673 2.535 37.558 6.3 10.453 3.615 21.176 7.325 36.671 7.324 4.67 0 9.775-.337 15.434-1.115 24.557-3.376 36.312-12.064 46.683-19.728 9.795-7.239 19.048-14.076 39.812-16.931 20.818-2.862 31.916 1.191 43.669 5.481 11.628 4.245 23.611 8.619 43.662 7.036l3.078 17.943c-15.952 1-25.526-2.539-35.583-6.258-3.18-1.176-6.468-2.392-9.981-3.48-3.955-1.227-8.158.986-9.384 4.943-1.227 3.957.987 8.158 4.943 9.384 3.129.97 6.088 2.064 9.221 3.222 9.455 3.496 19.885 7.352 35.49 7.352 2.478 0 5.087-.097 7.843-.309l3.079 17.947c-15.898.998-25.321-2.535-35.221-6.246z"/><path d="m393.361 328.875c1.919 0 3.839-.732 5.304-2.197l39.423-39.422c6.682-6.682 10.361-15.565 10.361-25.015s-3.68-18.333-10.361-25.014c-6.682-6.682-15.565-10.362-25.014-10.362-7.126 0-13.931 2.093-19.712 5.988-5.78-3.895-12.585-5.988-19.711-5.988-9.449 0-18.333 3.68-25.015 10.362-13.792 13.793-13.792 36.236 0 50.029l39.423 39.422c1.463 1.465 3.383 2.197 5.302 2.197zm-34.119-81.042c3.849-3.849 8.966-5.968 14.408-5.968s10.56 2.12 14.407 5.968c1.406 1.406 3.314 2.197 5.304 2.197s3.896-.79 5.304-2.197c3.849-3.849 8.966-5.968 14.408-5.968s10.56 2.12 14.407 5.968h.001c3.849 3.849 5.968 8.965 5.968 14.408 0 5.442-2.119 10.56-5.969 14.408l-34.119 34.119-34.119-34.119c-7.945-7.944-7.945-20.871 0-28.816z"/><path d="m482.05 340.591c-5.698 0-11.153 1.581-15.864 4.536-4.71-2.955-10.166-4.536-15.863-4.536-7.996 0-15.514 3.114-21.168 8.767-11.671 11.672-11.67 30.663 0 42.334l31.727 31.727c1.465 1.464 3.385 2.197 5.304 2.197s3.839-.732 5.304-2.197l31.727-31.727c5.653-5.654 8.767-13.171 8.767-21.167s-3.114-15.513-8.767-21.167c-5.654-5.654-13.171-8.767-21.167-8.767zm10.56 40.495-26.424 26.424-26.424-26.424c-5.823-5.823-5.823-15.298-.001-21.122 2.821-2.821 6.572-4.374 10.562-4.374 3.989 0 7.739 1.553 10.56 4.374 1.407 1.407 3.314 2.197 5.304 2.197 1.989 0 3.896-.79 5.303-2.197 2.821-2.821 6.572-4.374 10.561-4.374s7.739 1.553 10.56 4.374h.001c2.82 2.821 4.374 6.571 4.374 10.561s-1.555 7.74-4.376 10.561z"/><path d="m427.414 441.695c-9.216-9.217-23.348-10.604-34.046-4.159-4.295-2.602-9.231-3.992-14.383-3.992-7.433 0-14.422 2.895-19.679 8.151-5.256 5.256-8.15 12.245-8.15 19.679s2.895 14.422 8.15 19.678l28.75 28.75c1.407 1.407 3.314 2.197 5.304 2.197s3.896-.79 5.304-2.197l28.751-28.75c10.849-10.851 10.849-28.506-.001-39.357.001 0 .001 0 0 0zm-10.606 28.75-23.447 23.447-23.447-23.447c-2.423-2.423-3.757-5.645-3.757-9.072s1.334-6.649 3.757-9.072c2.424-2.423 5.645-3.758 9.072-3.758s6.648 1.334 9.071 3.757c1.407 1.406 3.314 2.197 5.304 2.197s3.896-.79 5.303-2.196c5.004-5.004 13.142-5.002 18.145 0 5.001 5.004 5.001 13.143-.001 18.144z"/><circle cx="369.823" cy="378.594" r="7.496"/><circle cx="186.385" cy="480.493" r="7.496"/><path d="m446.24 161.15c-3.736 1.789-5.315 6.267-3.526 10.003l12.304 25.705c1.288 2.691 3.973 4.264 6.77 4.264 1.086 0 2.188-.237 3.233-.737 3.736-1.789 5.315-6.267 3.526-10.003l-12.304-25.705c-1.789-3.737-6.268-5.314-10.003-3.527z"/><path d="m247.015 151.172c-3.585-2.071-8.173-.845-10.246 2.743-2.072 3.586-.844 8.174 2.743 10.246l24.667 14.25c1.182.683 2.471 1.007 3.745 1.007 2.591 0 5.112-1.345 6.501-3.75 2.072-3.586.844-8.174-2.743-10.246z"/><path d="m34.979 147.771-15.305 24.036c-2.225 3.494-1.196 8.13 2.298 10.354 1.249.795 2.643 1.175 4.021 1.175 2.478 0 4.904-1.228 6.333-3.473l15.305-24.036c2.225-3.494 1.196-8.13-2.298-10.354-3.495-2.225-8.13-1.196-10.354 2.298z"/><path d="m27.985 30.81v72.09c0 2.798 1.557 5.363 4.04 6.654 2.48 1.291 5.476 1.093 7.767-.514l18.413-12.915 22.871 29.381c1.449 1.861 3.65 2.894 5.92 2.894.813 0 1.635-.132 2.434-.407 3.03-1.041 5.064-3.89 5.064-7.094v-78.058c7.278.743 15.109 1.432 23.534 2.06l29.555 98.968c.946 3.167 3.853 5.341 7.157 5.354h.03c3.292 0 6.202-2.148 7.169-5.298l29.371-95.616c7.362.181 15.005.33 22.938.446v74.97c0 2.687 1.437 5.167 3.767 6.505 2.33 1.337 5.198 1.326 7.517-.029l30.468-17.803 30.469 17.802c1.169.683 2.476 1.024 3.784 1.024 1.288 0 2.577-.332 3.733-.995 2.33-1.337 3.767-3.818 3.767-6.505v-74.97c7.934-.116 15.576-.265 22.938-.446l29.372 95.616c.967 3.15 3.876 5.298 7.169 5.298h.029c3.305-.013 6.212-2.188 7.157-5.354l29.555-98.968c8.425-.628 16.256-1.317 23.535-2.06v78.058c0 3.204 2.035 6.053 5.064 7.094.8.274 1.621.407 2.435.407 2.27 0 4.471-1.033 5.919-2.894l22.871-29.381 18.412 12.915c2.289 1.606 5.284 1.806 7.767.514 2.482-1.291 4.04-3.856 4.04-6.654v-72.089c21.611-7.09 27.019-15.212 27.925-22.367.521-4.109-2.39-7.862-6.499-8.382-4.1-.519-7.862 2.389-8.382 6.499-.011.081-2.068 8.236-39.658 15.511-41.059 7.945-108.819 11.974-201.402 11.974s-160.343-4.029-201.4-11.975c-37.591-7.276-39.649-15.431-39.659-15.511-.52-4.11-4.279-7.016-8.382-6.5-4.109.521-7.019 4.273-6.499 8.383.905 7.155 6.314 15.277 27.925 22.368zm404.522 10.328c14.678-1.848 26.689-3.947 36.508-6.215v53.555l-12.447-8.73c-3.271-2.295-7.77-1.621-10.225 1.533l-13.836 17.774zm-54.509 4.834-20.868 69.879-20.884-67.986c15.178-.492 29.06-1.129 41.752-1.893zm-148.751 2.958c8.594.076 17.508.116 26.753.116s18.159-.039 26.753-.116v61.727l-22.97-13.42c-2.337-1.366-5.229-1.366-7.566 0l-22.97 13.42zm-53.494-1.064-20.884 67.985-20.867-69.879c12.692.764 26.573 1.401 41.751 1.894zm-132.768-12.943c9.819 2.268 21.83 4.367 36.508 6.216v57.916l-13.835-17.775c-2.455-3.153-6.953-3.83-10.225-1.533l-12.448 8.731z"/><path d="m94.744 186.724c0 4.14 3.356 7.496 7.496 7.496s7.496-3.356 7.496-7.496-3.356-7.496-7.496-7.496-7.496 3.356-7.496 7.496z"/><path d="m367.798 186.785c0 4.14 3.356 7.496 7.496 7.496s7.496-3.356 7.496-7.496-3.356-7.496-7.496-7.496-7.496 3.356-7.496 7.496z"/></g></symbol><symbol id="lgbtq" viewBox="0 0 256 256"><title>lgbtq</title><g><g><g><path d="m238.055 61.704h-220.121c2.844-5.426 6.542-10.538 11.096-15.091 5.321-5.321 11.375-9.491 17.865-12.439 22.733-10.433 50.49-6.298 69.227 12.439l11.881 11.881 11.864-11.881c12.02-12.021 27.775-18.057 43.529-18.057 15.772 0 31.526 6.036 43.564 18.057 4.57 4.553 8.268 9.665 11.095 15.091z" fill="#ff4a73"/></g><g><path d="m244.824 94.852h-233.642c-.872-11.323 1.396-22.837 6.752-33.148h220.121c5.373 10.311 7.623 21.825 6.769 33.148z" fill="#ffa31d"/></g><g><path d="m244.824 94.852c-.907 11.794-5.164 23.361-12.823 33.148h-208.013c-7.642-9.787-11.898-21.354-12.806-33.148z" fill="#f9d335"/></g><g><path d="m232.001 128c-1.535 1.989-3.228 3.891-5.042 5.705l-11.881 11.864-15.579 15.58h-142.991l-18.755-18.755-8.723-8.688c-1.814-1.814-3.507-3.716-5.042-5.705h208.013z" fill="#44c7b6"/></g><g><path d="m199.498 161.148-33.166 33.148h-76.676l-33.148-33.148z" fill="#3193f3"/></g><g><path d="m166.332 194.296-29.449 29.449c-2.46 2.477-5.67 3.699-8.88 3.699-3.228 0-6.455-1.221-8.898-3.699l-29.449-29.449z" fill="#a442bc"/></g></g></g><g fill="#5f266d"><path d="m241.606 59.864c-.001-.003-.002-.006-.004-.008-3.09-5.931-7.065-11.339-11.817-16.074-12.416-12.398-28.892-19.227-46.391-19.227-17.494 0-33.957 6.829-46.358 19.231l-9.035 9.048-9.051-9.051c-19.302-19.301-48.929-24.623-73.71-13.251-7.037 3.197-13.442 7.656-19.038 13.252-4.729 4.729-8.703 10.133-11.811 16.063-.001.002-.002.005-.003.007s-.003.004-.004.006c-5.643 10.863-8.129 23.063-7.192 35.282 0 .005-.001.011 0 .016.996 12.923 5.708 25.12 13.624 35.275.001.002.002.003.003.005.003.003.005.007.008.01.003.004.007.009.01.013.001.001.002.002.003.003 1.555 2.021 3.358 4.061 5.366 6.069l27.475 27.445 33.14 33.139c.002.002.004.005.006.007l29.429 29.429c3.109 3.154 7.281 4.891 11.747 4.891 4.432 0 8.594-1.733 11.708-4.87l29.441-29.441c.002-.002.004-.003.005-.004l33.168-33.148c.001-.001.002-.001.003-.002l27.461-27.45c2-2.001 3.802-4.039 5.357-6.059.001-.002.003-.003.005-.005.005-.007.01-.014.015-.021.002-.002.003-.004.005-.006.001-.001.001-.002.002-.003 7.926-10.142 12.64-22.328 13.632-35.245.001-.012.005-.024.006-.036.927-12.26-1.564-24.462-7.205-35.29zm-98.912-10.423c10.889-10.889 25.344-16.886 40.7-16.886 15.364 0 29.832 5.998 40.738 16.888.001.001.002.002.003.003 2.552 2.542 4.848 5.304 6.866 8.257h-96.558zm-110.836 0c4.916-4.916 10.531-8.827 16.705-11.632 21.768-9.991 47.781-5.315 64.73 11.633l8.263 8.262h-96.557c2.023-2.956 4.317-5.721 6.859-8.263zm102.186 171.486c-1.611 1.623-3.757 2.517-6.041 2.517-2.307 0-4.456-.89-6.069-2.527l-22.618-22.617h57.355zm55.795-55.777-25.162 25.146h-73.364l-25.146-25.146zm-131.672-8-25.177-25.15h190.012l-25.159 25.15zm-32.184-33.15c-5.413-7.437-8.935-16.03-10.322-25.148h224.681c-1.382 9.122-4.907 17.714-10.333 25.148zm-10.979-33.15c-.113-8.686 1.735-17.274 5.416-25.146h215.151c3.679 7.847 5.53 16.436 5.425 25.146z"/><path d="m225.75 74.278h-2.25c-2.209 0-4 1.791-4 4s1.791 4 4 4h2.25c2.209 0 4-1.791 4-4s-1.791-4-4-4z"/><path d="m208.5 74.278h-20c-2.209 0-4 1.791-4 4s1.791 4 4 4h20c2.209 0 4-1.791 4-4s-1.791-4-4-4z"/></g></symbol><symbol id="woman" viewBox="-86 0 512 512.00139"><title>woman</title><path d="m167.632812 405.625c-1.132812 0-2.21875-.394531-4.148437-1.507812-23.234375-13.296876-45.085937-29.144532-64.945313-47.09375l-.175781-.132813-1.09375-.882813-.304687-1.371093c-1.996094-9.003907-4.296875-18.03125-6.835938-26.835938l-4.097656-14.191406 10.699219 10.1875c18.660156 17.765625 38.855469 34.128906 60.03125 48.636719 2.191406 1.496094 5.175781 3.535156 8.433593 3.578125h.117188c3.085938 0 5.863281-1.710938 8.671875-3.621094 21.378906-14.59375 41.386719-31.453125 59.453125-50.09375l10.382812-10.710937-3.628906 14.46875c-2.070312 8.253906-3.84375 16.6875-5.265625 25.058593l-.339843 1.996094-1.8125.90625-60.828126 49.527344c-1.300781 1.054687-2.375 1.851562-3.71875 2.039062l-.335937.039063zm0 0" fill="#fff"/><path d="m166.65625 337.792969c-1.101562 0-2.164062-.175781-3.160156-.519531-3.101563-1.078126-5.609375-3.808594-6.40625-6.964844-1.851563 2.460937-4.949219 3.996094-8.132813 3.996094-.957031 0-1.890625-.136719-2.78125-.410157-3.90625-1.222656-6.8125-5.058593-6.933593-9.125-1.554688.988281-3.425782 1.539063-5.324219 1.539063-1.996094 0-3.941407-.601563-5.484375-1.695313-3.089844-2.207031-4.621094-6.460937-3.652344-10.125-1.46875.621094-3.109375.976563-4.777344.976563-2.234375 0-4.445312-.640625-6.230468-1.804688-2.832032-1.832031-4.792969-5.113281-5.109376-8.558594l-.175781-1.957031 1.441407-1.335937c2.328124-2.160156 4.410156-4.421875 6.183593-6.722656l.789063-1.019532 1.230468-.367187c.132813-.039063.269532-.074219.410157-.105469 1.164062-.367188 2.398437-.550781 3.667969-.550781 2.601562 0 5.160156.789062 7.207031 2.21875 3.191406 2.238281 5.21875 6.027343 5.3125 9.894531 1.714843-.914062 3.664062-1.417969 5.671875-1.417969 1.632812 0 3.246094.34375 4.671875.988281 3.234375 1.449219 5.726562 4.519532 6.476562 8 2.074219-2.046874 5.027344-3.269531 7.945313-3.269531.53125 0 1.066406.039063 1.582031.121094 3.402344.507813 6.515625 2.738281 8.105469 5.820313 1.71875-3.4375 4.976562-6.136719 8.996094-7.410157 1.59375-.5 3.207031-.75 4.816406-.75 2.429687 0 4.773437.585938 6.765625 1.699219 1.128906-3.347656 3.699219-6.25 7.109375-7.976562 2.09375-1.058594 4.375-1.617188 6.605468-1.617188 1.386719 0 2.726563.210938 3.984376.632812.988281-4.054687 4.214843-7.503906 8.265624-8.828124l2.886719-.941407 1.683594 2.527344c2.121094 3.191406 4.574219 6.230469 7.28125 9.039063.675781.699218 1.421875 1.441406 2.355469 2.328124l2.722656 2.59375-2.417969 2.878907c-1.308593 1.558593-3.160156 2.585937-5.074219 2.808593-.289062.035157-.570312.050782-.847656.050782-2.671875 0-5.289062-1.445313-6.671875-3.679688.378907 4.675782-1.734375 9.519532-5.445312 12.363282-2.394531 1.832031-5.425781 2.839843-8.53125 2.839843-1.664063 0-3.273438-.285156-4.785157-.847656-.40625 3.773437-2.644531 7.316406-5.875 9.261719-1.863281 1.121094-4.050781 1.714844-6.320312 1.714844-1.585938 0-3.171875-.304688-4.578125-.886719-.269531-.117188-.480469-.210938-.691406-.304688-.882813-.394531-1.753907-.777343-2.679688-.792969-1.703125 0-2.953125 1.015626-4.539062 2.449219-.492188.445313-.941407.84375-1.398438 1.199219-1.710937 1.316406-3.890625 2.042969-6.144531 2.042969zm0 0" fill="#fff"/><path d="m231.082031 431.671875c-2.574219-36.757813.726563-73.117187 9.808594-108.078125l2.101563-8.101562 4.984374 6.726562c5.273438 7.125 8.125 15.820312 8.023438 24.488281-.132812 10.675781-4.855469 21.410157-12.628906 28.71875 2.988281.105469 6.003906 1.792969 8.066406 4.566407 1.679688 2.238281 2.78125 5.140624 3.355469 8.855468 1.609375 10.480469-1.839844 20.457032-5.015625 26.984375-3.289063 6.75-7.664063 12.871094-11.515625 17.96875l-6.4375 8.527344zm0 0" fill="#5b8baf"/><path d="m100.039062 439.058594c-2.332031-3.191406-4.964843-6.214844-7.515624-9.140625-5.351563-6.144531-10.40625-11.949219-13.242188-19.246094-4.515625-11.621094-1.726562-26.097656 6.785156-35.210937-10.183594-3.683594-16.949218-15.667969-15.757812-27.917969.824218-8.515625 4.835937-16.839844 11.921875-24.742188l4.769531-5.320312 2.042969 6.847656c10.792969 36.207031 16.921875 73.96875 18.222656 112.238281l.441406 12.996094zm0 0" fill="#5b8baf"/><path d="m199.113281 507.9375c-27.6875 0-57.292969-.578125-90.515625-1.769531l-4.320312-.152344.488281-4.296875c5.082031-44.496094 3.355469-89.621094-5.132813-134.117188l-2.136718-11.195312 8.664062 7.40625c17.78125 15.195312 37.0625 28.777344 57.308594 40.367188 1.113281.644531 2.621094 1.511718 4.191406 1.511718.175782 0 .324219-.007812.46875-.027344 1.542969-.195312 2.816406-1.230468 3.835938-2.058593l62.539062-50.90625-1.335937 10.003906c-6.257813 46.824219-2.625 95.117187 10.5 139.660156l1.476562 5.011719-5.222656.117188c-13.148437.292968-26.878906.445312-40.808594.445312zm0 0" fill="#ffbf48"/><path d="m67.316406 205.753906c-.238281 0-.476562-.003906-.714844-.015625-8.183593-.382812-15.640624-7-16.988281-15.070312-.21875-1.328125-.289062-2.6875-.359375-4l-.007812-.15625c-.097656-1.96875-.207032-4.191407-.851563-6.199219-1.277343-3.957031-4.441406-6.878906-7.496093-9.703125-1.46875-1.347656-2.789063-2.578125-3.988282-3.921875-5.925781-6.636719-8.261718-16.476562-5.960937-25.070312 2.296875-8.582032 9.226562-15.9375 17.660156-18.742188-5.554687-6.171875-8.058594-15.023438-6.519531-23.15625 1.535156-8.125 7.109375-15.453125 14.539062-19.121094 1.046875-.511718 2.148438-.988281 3.179688-1.425781 4.105468-1.773437 8.34375-3.609375 9.769531-7.671875.699219-1.992188.535156-4.070312.363281-6.269531-.058594-.617188-.101562-1.207031-.132812-1.796875-.457032-8.929688 3.882812-18.117188 11.058594-23.417969 4.609374-3.421875 10.453124-5.3125 16.445312-5.3125 3.191406 0 6.273438.53125 9.164062 1.582031l-.082031-.738281.222657-.78125c.777343-3.011719 4.613281-12.042969 5.699218-13.871094l.0625-.097656c3.414063-5.363281 10.054688-9.621094 17.769532-11.390625 1.21875-.277344 2.386718-.476562 3.480468-.597656.9375-.101563 1.878906-.152344 2.804688-.152344 7.265625 0 14.320312 3.023438 21.574218 9.253906.6875-.527344 1.398438-1.113281 2.152344-1.738281 7.308594-6.070313 14.996094-12.003906 21.496094-12.097656l.25-.003907c5.484375 0 10.597656 2.132813 14.027344 5.851563 3.242187 3.507813 4.71875 7.988281 4.261718 12.957031 4.980469-3.585937 12.699219-7.894531 21.46875-7.894531h.21875c8.363282.070313 16.128907 4.539063 19.359376 11.113281 3.574218 7.273438.746093 16.941406-5.941407 20.285156 3.59375-.136718 7.234375-.335937 10.871094-.335937 5.207031 0 9.449219.40625 13.359375 1.273437 8.828125 1.957032 16.027344 6.683594 19.742188 12.964844 7.539062 12.722656.796874 29.078125-8.023438 40.140625.285156.023438.558594.027344.828125.027344.15625 0 .308594-.003906.464844-.003906 11.972656 0 23.351562 7.300781 28.316406 18.171875 5.109375 11.203125 2.777344 25.277344-5.667969 34.226562 4.703125 3.097656 7.746094 8.214844 8.566406 14.46875.726563 5.535156-.382812 11.359375-3.039062 15.980469-5.027344 8.757813-15.191406 15.234375-27.882812 17.769531-3.394532.679688-6.742188 1.023438-9.949219 1.023438-8.601563 0-15.933594-2.410156-21.203125-6.972656-4.527344-3.921876-7.304688-10.230469-7.242188-16.460938.039063-5.082031 1.964844-9.46875 5.417969-12.351562-7.992187-1.382813-15.242187-7.015626-18.488281-14.414063-3.25-7.398437-2.488282-16.550781 1.933594-23.316406-4.246094 3.554687-9.964844 5.617187-15.730469 5.617187-2.855469 0-5.601563-.488281-8.167969-1.453125-7.878906-2.960937-13.988281-10.535156-15.203125-18.847656-2.679687 9.039063-11.03125 16.175781-20.367187 17.359375-.9375.117188-1.886719.175781-2.832032.175781-8.570312 0-16.871094-4.695312-21.148437-11.964843.183593 8.960937.046875 16.882812-4.179688 23.320312-2.535156 3.859375-7.1875 6.59375-11.851562 6.960938-.328125.023437-.667969.039062-1.023438.039062-3.070312 0-5.6875-1.085938-7.5625-3.140625 4.097657 9.890625 2.953125 22.023437-2.964843 30.933594-5.914063 8.921875-16.648438 14.6875-27.351563 14.6875-2.050781 7.703125-9.609375 13.492187-17.605469 13.492187zm0 0" fill="#644c4c"/><path d="m244.066406 503.519531c-5.804687-19.414062-9.839844-39.761719-11.996094-60.476562l-.289062-2.792969 2.53125-1.222656.117188-.117188c5.289062-6.847656 11.285156-14.609375 15.40625-23.054687 4.5625-9.367188 6.296874-18.714844 5.023437-27.015625-.578125-3.722656-1.683594-6.628906-3.367187-8.878906-.886719-1.191407-1.941407-2.179688-3.144532-2.949219l-3.726562-2.382813 2.742187-3.46875c5.511719-6.964844 8.601563-15.648437 8.699219-24.445312.070312-6.238282-1.371094-12.539063-4.167969-18.214844l-5.652343-11.476562 11.183593 6.207031c2.472657 1.375 5.09375 2.792969 8.492188 4.59375l.707031.378906c13.363281 7.140625 27.132812 14.5 38.015625 25.160156 13.851563 13.558594 23.597656 33.21875 28.179687 56.855469 4.101563 21.148438 3.894532 43.023438 3.695313 64.175781-.101563 10.15625-1.179687 20.226563-8.320313 25.484375-4.320312 3.167969-9.738281 3.792969-15.859374 4.238282-7.8125.5625-15.769532 1.058593-24.324219 1.527343l-3.816407.207031-.378906-3.804687c-2.921875-29.191406-.105468-59.515625 8.140625-87.691406-8.261719 28.003906-11.09375 58.207031-8.242187 87.324219l.410156 4.183593-4.199219.203125c-10.859375.523438-21.542969.933594-31.75 1.210938l-3.847656.105468zm0 0" fill="#3a6082"/><path d="m100.507812 505.878906c-13.964843-.527344-28.570312-1.15625-44.648437-1.921875l-4.300781-.203125.523437-4.277344c3.453125-28.257812 2.644531-56.773437-2.398437-84.753906 5.011718 28.203125 5.796875 56.914063 2.265625 85.351563l-.457031 3.6875-3.707032-.183594c-9.554687-.472656-19.125-.949219-28.707031-1.441406-4.820313-.246094-10.191406-.832031-12.984375-4.671875-1.949219-2.6875-2.070312-6.222656-2.023438-9.914063.285157-28.085937.574219-57.144531 7.757813-84.949219 7.976563-30.90625 24.140625-55.824218 45.515625-70.160156 3.859375-2.59375 8.316406-5.136718 14.027344-8.011718l12.984375-6.53125-7.8125 12.253906c-3.605469 5.660156-5.726563 11.507812-6.300781 17.390625-1.007813 10.347656 3.695312 20.757812 11.703124 25.90625l3.472657 2.230469-2.34375 3.402343c-6.367188 9.238281-7.84375 21.351563-3.855469 31.609375 2.839844 7.304688 8.136719 13.382813 13.257812 19.261719 5.546876 6.382813 10.730469 12.339844 13.472657 19.878906l1.578125 1.207031.003906 1.992188c-.039062 16.4375-1.015625 33.027344-2.898438 49.308594l-.421874 3.675781zm0 0" fill="#3a6082"/><g fill="#efb17c"><path d="m165.730469 272.785156c-.429688 0-.855469-.003906-1.289063-.015625-29.59375-.59375-57.957031-21.371093-67.441406-49.40625-4.070312 3.15625-9.226562 4.90625-14.5625 4.90625-3.289062 0-6.554688-.6875-9.441406-1.992187-1.4375-.65625-2.785156-1.449219-4.03125-2.367188l-5.207032-3.839844.53125-.269531-1.902343-3.339843c-1.082031-1.890626-1.890625-3.914063-2.410157-6.007813l-1.480468-5.980469 6.066406 1.078125c.75.136719 1.417969.214844 2.03125.242188.230469.015625.410156.015625.582031.015625h.144531c7.050782 0 13.972657-4.601563 16.832032-11.191406l.953125-2.195313 2.386719-.199219c10.027343-.828125 19.3125-6.289062 24.835937-14.613281 4.429687-6.6875 6.28125-15.160156 5.078125-23.238281l-.75-5.027344 5.058594.453125c.335937.027344.671875.042969 1.019531.042969.351563 0 .710937-.015625 1.070313-.046875 4.644531-.363281 9.429687-3.167969 11.933593-6.988281 2.269531-3.460938 3.585938-7.859376 4.015625-13.453126l.554688-7.210937 5.816406 4.304687c4.382812 3.246094 9.695312 5.035157 14.960938 5.035157.925781 0 1.855468-.058594 2.761718-.171875 6.246094-.785156 12.398438-4.421875 16.445313-9.726563l3.683593-4.824219 2.980469 5.285157c2.8125 4.984375 7.226563 8.800781 12.425781 10.75 2.617188.980469 5.394532 1.476562 8.257813 1.476562 2.347656 0 4.679687-.335937 6.9375-1l6.160156-1.804687-1.09375 6.328125c-.839843 4.839843-.261719 9.722656 1.671875 14.117187 2.503906 5.714844 7.296875 10.394532 13.152344 12.851563l4.109375 1.722656-2.15625 3.898437c-1.308594 2.375-2.015625 5.234376-2.039063 8.269532-.058593 6.257812 2.722657 12.578125 7.257813 16.503906 5.265625 4.558594 12.628906 6.964844 21.289063 6.964844.558593 0 1.117187-.007813 1.679687-.03125l5.972656-.214844-2.078125 5.605469c-.847656 2.285156-2.011718 4.464843-3.460937 6.484375l-1.820313 2.527344.492188.210937-5.550782 4.167969c-.515624.386718-1.042968.75-1.609374 1.109375-5.003907 3.226562-10.605469 4.9375-16.1875 4.9375-2.230469 0-4.417969-.28125-6.511719-.828125-10.414063 27.058594-39.042969 46.691406-68.117188 46.691406-.003906.003906-.007812.003906-.007812.003906zm-85.496094-59.679687c-4.71875 1.199219-8.878906 2.851562-12.394531 4.851562l-.503906.285157 2.1875-1.113282c3.183593-1.625 6.789062-2.980468 10.710937-4.023437zm165.496094-2c4.113281.414062 8.011719 1.363281 11.59375 2.882812l1.777343.757813c-4.011718-2-8.503906-3.226563-13.371093-3.640625zm0 0"/><path d="m165.1875 375.953125c-3.007812-.050781-5.6875-1.726563-8.394531-3.585937-22.691407-15.53125-44.285157-33.246094-64.175781-52.652344l-3.847657-3.753906 4.699219-2.605469c3.722656-2.0625 7-4.128907 10.03125-6.316407l4.015625-2.902343 1.988281 4.539062c.917969 2.101563 2.386719 3.847657 4.242188 5.050781 1.839844 1.191407 3.996094 1.824219 6.230468 1.824219.183594 0 .363282-.003906.546876-.015625l3.429687-.160156.679687 3.367188c.484376 2.402343 1.855469 4.5625 3.761719 5.925781 1.546875 1.097656 3.507813 1.707031 5.527344 1.707031.601563 0 1.203125-.054688 1.789063-.160156l3.0625-.550782 1.289062 2.832032c1.179688 2.59375 3.457031 4.628906 6.085938 5.449218.917968.285157 1.875.429688 2.851562.429688 1.699219 0 3.394531-.4375 4.902344-1.261719l2.9375-1.609375 2.097656 2.613282c1.199219 1.492187 2.769531 2.605468 4.53125 3.214843 1.023438.351563 2.109375.53125 3.222656.53125 2.238282 0 4.425782-.734375 6.160156-2.070312.5-.386719.96875-.8125 1.359376-1.171875 1.296874-1.171875 2.113281-1.824219 3.042968-2.179688l1.199219-.464844 1.246094.328126c.480469.125.984375.335937 1.695312.65625l.75.324218c1.351563.554688 2.933594.859375 4.53125.859375 2.261719 0 4.523438-.609375 6.375-1.722656 2.238281-1.351563 4.027344-3.484375 5.035157-5.996094l1.117187-2.789062 2.992187.296875c.46875.042968.945313.070312 1.421876.070312 3.175781 0 6.234374-1.007812 8.617187-2.835937 2.09375-1.601563 3.753906-3.9375 4.679687-6.578125l1.296876-3.703125 3.730468 1.226562c.769532.253907 1.578125.382813 2.394532.382813.285156 0 .570312-.015625.851562-.046875 1.875-.222657 3.71875-1.230469 5.046875-2.765625l2.515625-2.902344 3.003906 2.394531c.769532.613281 1.558594 1.226563 2.347656 1.832031l4.339844 3.320313-4.433594 3.101563c-19.292968 20.59375-40.828124 39.050781-64.070312 54.917968-2.660156 1.816406-5.523438 3.589844-8.667969 3.605469zm0 0"/><path d="m166.46875 311.957031c-1.59375-1.308593-3.449219-2.152343-5.375-2.441406-.527344-.078125-1.058594-.117187-1.585938-.117187-1.539062 0-3.113281.335937-4.550781.972656l-3.101562 1.371094-1.859375-2.835938c-1.222656-1.867188-2.964844-3.375-4.90625-4.246094-1.425782-.640625-3.054688-.980468-4.699219-.980468-.652344 0-1.308594.054687-1.945313.160156l-3.269531.53125-1.132812-3.109375c-.898438-2.460938-2.527344-4.613281-4.585938-6.054688-1.585937-1.109375-3.507812-1.839843-5.554687-2.113281l-5.429688-.722656 2.34375-4.953125c3.144532-6.648438 4.308594-13.914063 3.273438-20.453125l-1.316406-8.316406 7.277343 4.234374c10.789063 6.277344 22.679688 9.71875 34.386719 9.949219.484375.007813.894531.019531 1.304688.019531 13.566406 0 27.160156-4.148437 39.308593-12l6.3125-4.082031-.144531 7.515625c-.132812 7.085938 1.675781 14.632813 5.238281 21.832032l1.84375 3.726562-3.800781 1.699219c-2.585938 1.15625-4.730469 3.164062-6.039062 5.65625l-1.226563 2.34375-2.640625-.214844c-.363281-.03125-.726562-.046875-1.09375-.046875-2.265625 0-4.566406.5625-6.660156 1.625-2.359375 1.203125-4.324219 2.953125-5.671875 5.054688l-1.582031 2.457031-2.824219-.753907c-1.207031-.324218-2.476563-.488281-3.773438-.488281-1.617187 0-3.238281.25-4.816406.75-2.425781.765625-4.621094 2.074219-6.347656 3.785157l-2.566407 2.542968zm0 0"/></g><path d="m336.808594 409.441406c-4.75-24.457031-14.890625-44.851562-29.328125-58.980468-11.316407-11.074219-25.367188-18.578126-38.953125-25.835938l-.691406-.371094c-12.488282-6.671875-26.644532-14.234375-37.328126-25.300781-11.132812-11.527344-16.710937-25.972656-14.921874-38.640625.101562-.726562-.011719-1.433594-.269532-2.070312 4.253906-3.558594 8.136719-7.542969 11.546875-11.890626 4.019531 7.039063 12.09375 12.242188 21.664063 13.675782 1.777344.265625 3.523437.398437 5.222656.398437 5.550781 0 10.605469-1.402343 14.574219-4.097656 6.617187-4.492187 10.457031-12.847656 9.78125-21.28125-.5625-7.023437-4.066407-13.785156-9.6875-18.824219 2.417969-3.402344 4.136719-7.179687 5.023437-11.140625.0625-.011719.128906-.023437.195313-.035156 13.847656-2.765625 25.003906-9.960937 30.613281-19.734375 6.851562-11.9375 3.886719-25.542969-3.378906-32.972656 7.285156-10.066406 8.875-24.042969 3.6875-35.410156-4.726563-10.351563-14.773438-17.878907-25.882813-19.960938 7.28125-11.628906 11.363281-26.488281 4.09375-38.757812-4.292969-7.25-12.441406-12.664063-22.359375-14.863282-5.203125-1.152344-10.417968-1.425781-15.566406-1.363281 2.589844-5.332031 2.839844-12 .046875-17.679687-3.953125-8.039063-12.953125-13.296876-22.929687-13.390626-5.960938-.035156-12.199219 1.648438-18.277344 4.980469-.832032-3.246093-2.445313-6.226562-4.769532-8.738281-4.289062-4.640625-10.582031-7.265625-17.320312-7.15234375-8.257812.11718775-17.050781 7.25781275-23.585938 12.67187475-8.113281-6.164062-16.441406-8.824219-24.808593-7.910156-1.300781.144531-2.636719.371094-3.964844.679687-8.730469 2.003907-16.308594 6.925782-20.277344 13.160157-.847656 1.335937-2.769531 5.777343-3.851562 8.4375-.683594 1.683593-1.214844 3.058593-1.617188 4.195312-8.640625-1.746093-17.902343.222657-25.042969 5.507813-8.363281 6.1875-13.226562 16.492187-12.691406 26.882812.03125.617188.082032 1.238282.132813 1.863282.144531 1.773437.28125 3.453124-.140625 4.652343-.839844 2.398438-4.109375 3.808594-7.570313 5.300781-1.097656.472657-2.234375.964844-3.332031 1.503907-8.550781 4.210937-14.964844 12.640625-16.738281 22.003906-1.4375 7.570313.175781 15.6875 4.234375 22.238281-7.4375 4.058594-13.105469 11.117188-15.316406 19.378906-2.679688 10.023438-.054688 21.066407 6.851562 28.8125 1.359375 1.527344 2.839844 2.890626 4.269531 4.210938 2.796875 2.582031 5.433594 5.019531 6.382813 7.964844.476562 1.488281.566406 3.265625.664062 5.148437.078125 1.488281.152344 3.03125.421875 4.628907.996094 5.964843 4.726563 11.265624 9.71875 14.644531-.019531.203125-.039062.402343-.03125.609375.246094 4.433594 1.679688 8.757812 3.988281 12.558594-1.960937 1.730468-3.671874 3.617187-5.117187 5.671874-6.777344 9.636719-6.484375 22.660157.679687 30.292969 3.917969 4.171875 9.585938 6.289063 15.351563 6.289063 5.125 0 10.328125-1.671875 14.453125-5.066406 7.210938-5.945313 10.519531-16.398438 8.511719-26.152344.605469-.246094 1.199219-.507813 1.785156-.796875 4.871094 11.554687 12.808594 21.742187 22.589844 29.695312-.003907.621094.117187 1.25.417969 1.839844 4.371093 8.636719 2.851562 20.441406-3.871094 30.070313-6.953125 9.957031-17.886719 16.441406-26.632813 20.976562-3.277343 1.703125-6.691406 3.351562-9.992187 4.945312-7.496094 3.617188-15.246094 7.359376-22.382813 12.148438-22.199219 14.894531-38.957031 40.652344-47.1875 72.519531-7.289062 28.238281-7.59375 57.566407-7.8867185 85.933594-.03125 3.332031-.0859375 8.367187 2.8124995 12.339844 4.175782 5.726562 11.898438 6.121093 16.050782 6.335937 60.59375 3.113282 120.414062 5.808594 180.140625 5.808594 37.855469 0 75.679687-1.082031 113.613281-3.832031 5.214844-.375 12.363281-.894531 17.964844-5.011719 8.589844-6.3125 9.875-17.511719 9.984375-28.671875.207031-21.371094.421875-43.46875-3.765625-65.042969zm-97.1875-32.546875c.589844 1.53125 2.042968 2.554688 3.683594 2.585938 1.726562.035156 3.617187 1.144531 4.925781 2.902343 1.285156 1.71875 2.136719 4.035157 2.605469 7.078126 1.457031 9.449218-1.726563 18.601562-4.65625 24.617187-3.003907 6.160156-6.980469 11.847656-11.109376 17.316406-2.511718-35.871093.710938-72.226562 9.6875-106.789062 4.6875 6.3125 7.335938 14.234375 7.242188 22.0625-.113281 9.605469-4.367188 19.265625-11.375 25.839843-1.195312 1.121094-1.589844 2.855469-1.003906 4.386719zm-9.335938-26-60.863281 49.546875c-.417969.339844-1.394531 1.132813-1.75 1.183594-.273437.027344-1.007813-.292969-2.191406-.96875-23.058594-13.203125-44.738281-28.9375-64.441407-46.761719-.050781-.050781-.117187-.082031-.171874-.128906-2.019532-9.101563-4.320313-18.132813-6.902344-27.070313 18.8125 17.90625 39.136718 34.371094 60.535156 49.03125 2.457031 1.683594 6.171875 4.226563 10.644531 4.285157h.164063c4.234375 0 7.714844-2.128907 10.917968-4.3125 21.652344-14.777344 41.835938-31.785157 60.085938-50.613281-2.101562 8.363281-3.882812 16.824218-5.332031 25.351562-.242188.125-.472657.277344-.695313.457031zm-140.320312 23.597657c-.320313-1.320313-1.285156-2.390626-2.5625-2.84375-8.496094-3.035157-14.132813-13.234376-13.113282-23.722657.878907-9.0625 5.796876-16.746093 10.921876-22.457031 10.71875 35.964844 16.78125 73.554688 18.0625 111.234375-2.410157-3.296875-5.089844-6.378906-7.730469-9.410156-5.117188-5.878907-9.953125-11.429688-12.53125-18.070313-3.980469-10.242187-1.523438-23 5.980469-31.027344.925781-.992187 1.292968-2.382812.972656-3.703124zm21.609375-57.414063c2.726562 1.769531 5.953125 2.605469 9.132812 2.449219.675781 3.320312 2.5625 6.394531 5.367188 8.390625 2.988281 2.128906 6.789062 2.878906 10.34375 2.230469 1.625 3.5625 4.714843 6.425781 8.542969 7.617187 3.640624 1.132813 7.59375.644531 10.859374-1.144531 1.640626 2.039062 3.835938 3.625 6.335938 4.488281 1.464844.507813 3 .753906 4.53125.753906 3.070312 0 6.132812-.996093 8.597656-2.898437.597656-.460938 1.128906-.9375 1.636719-1.398438.519531-.46875 1.375-1.242187 1.761719-1.394531.234375.054687.722656.273437 1.058594.425781.277343.121094.550781.246094.828124.359375 4.65625 1.910157 10.222657 1.488281 14.535157-1.105469 3.015625-1.816406 5.378906-4.675781 6.695312-7.941406 4.53125.453125 9.261719-.800781 12.875-3.570312 2.773438-2.125 4.859375-5.117188 6.011719-8.425782 1.585938.511719 3.28125.699219 4.953125.503907 2.964844-.347657 5.695313-1.886719 7.617187-4.121094.796876.640625 1.601563 1.265625 2.417969 1.878906-.199219.148438-.390625.308594-.566406.496094-19.054687 20.359375-40.394531 38.648437-63.425781 54.367187-2.269532 1.546876-4.464844 2.898438-6.429688 2.910157-1.882812-.023438-3.917968-1.316407-6.191406-2.871094-22.628906-15.5-44.007812-33.066406-63.652344-52.222656 3.390625-1.886719 6.949219-4.054688 10.433594-6.574219 1.195312 2.742188 3.171875 5.136719 5.730469 6.796875zm158.492187-81.386719c.4375 5.507813-2.082031 11.117188-6.273437 13.964844-3.503907 2.382812-8.503907 3.234375-14.070313 2.398438-6.269531-.9375-14.464844-4.65625-16.933594-12.039063-.15625-.46875-.398437-.878906-.691406-1.242187 1.570313-2.597657 2.984375-5.289063 4.210938-8.066407 7.511718 1.011719 15.519531-.851562 22.457031-5.316406 1.507813-.96875 2.925781-2.039063 4.242187-3.1875 4.054688 3.636719 6.667969 8.589844 7.058594 13.488281zm-216.828125-49.390625c-.113281-2.210937-.242187-4.714843-1.039062-7.207031-1.597657-4.964844-5.3125-8.394531-8.589844-11.421875-1.347656-1.246094-2.621094-2.421875-3.722656-3.652344-5.042969-5.65625-7.035157-14.046875-5.078125-21.367187 1.957031-7.324219 7.871094-13.597656 15.066406-15.980469 1.292969-.429687 2.285156-1.488281 2.628906-2.808594.347656-1.320312 0-2.726562-.917968-3.734375-4.746094-5.210937-6.878907-12.746094-5.5625-19.671875 1.308593-6.925781 6.054687-13.160156 12.375-16.273437.917968-.449219 1.914062-.878906 2.96875-1.335938 4.441406-1.917968 9.96875-4.300781 11.984374-10.027344.988282-2.820312.765626-5.566406.566407-7.988281-.042969-.539062-.089844-1.082031-.117188-1.617187-.394531-7.609375 3.3125-15.457032 9.4375-19.988282 4-2.960937 9.054688-4.519531 14.074219-4.519531 2.660156 0 5.3125.4375 7.796875 1.335938 2.097656.761719 4.40625-.320313 5.164063-2.414063.222656-.617187.289062-1.253906.214843-1.863281.703125-2.722656 4.425781-11.417969 5.265625-12.828125 2.816406-4.421875 8.671875-8.113281 15.285156-9.636719 1.023438-.234375 2.046876-.410156 3.035157-.515625 7.058593-.777344 14.039062 1.894532 21.332031 8.152344 1.476562 1.269531 3.648438 1.300781 5.164062.074219.660157-.539063 1.378907-1.132813 2.140626-1.761719 5.007812-4.152344 13.394531-11.105469 18.996093-11.183594 4.417969-.042968 8.542969 1.601563 11.285157 4.5625 2.460937 2.660156 3.574218 6.078125 3.21875 9.878906-.144532 1.582032.648437 3.097657 2.03125 3.882813 1.378906.78125 3.089843.679687 4.371093-.261719 4.457031-3.273437 11.363281-7.152344 19.050781-7.152344h.21875c6.847657.066407 13.1875 3.640626 15.769532 8.890626 2.609375 5.308593.597656 12.566406-4.144532 14.929687-1.710937.855469-2.585937 2.792969-2.097656 4.640625.488282 1.847656 2.195313 3.09375 4.117188 2.992188 7.71875-.421876 15.699218-.855469 23.132812.792968 7.75 1.714844 14.007813 5.761719 17.167969 11.097656 6.5 10.972657.28125 25.589844-7.703125 35.609376-.984375 1.238281-1.15625 2.933593-.441406 4.339843.714844 1.410157 2.199218 2.273438 3.765625 2.203125 10.71875-.472656 21.316406 6.046875 25.769531 15.808594 4.457031 9.757812 2.421875 22.023438-4.941406 29.824219-.824219.871093-1.214844 2.0625-1.070313 3.25.140625 1.191406.804688 2.253906 1.8125 2.902343 7.996094 5.175782 8.648438 17.351563 4.234375 25.046876-4.449218 7.753906-13.636718 13.527343-25.199218 15.839843-11.316407 2.261719-21.429688.417969-27.75-5.054687-3.660157-3.171875-5.910157-8.304688-5.863282-13.402344.03125-3.890625 1.445313-7.199219 3.976563-9.316406 1.207031-1.007813 1.71875-2.628906 1.304687-4.152344-.414062-1.519531-1.675781-2.65625-3.230468-2.917969-6.671876-1.105469-12.738282-5.828125-15.457032-12.019531-2.71875-6.195312-2.082031-13.855469 1.617188-19.515625 1.097656-1.679687.792968-3.910156-.710938-5.234375-1.507812-1.324219-3.757812-1.339844-5.28125-.035156-5.320312 4.546875-13.292968 5.953125-19.847656 3.496094-6.550781-2.457032-11.636719-8.757813-12.652344-15.679688-.277344-1.878906-1.824218-3.308594-3.714844-3.4375-1.902343-.125-3.617187 1.082031-4.148437 2.902344-2.183594 7.554687-9.160156 13.519531-16.964844 14.5-7.804687.980468-16.042969-3.066406-20.03125-9.84375-.933593-1.585938-2.820312-2.335938-4.585937-1.828125-1.769532.507812-2.96875 2.144531-2.917969 3.984375.222656 8.257812.117187 15.542968-3.460937 20.992187-1.851563 2.820313-5.394532 4.898438-8.824219 5.167969-1.5625.125-3.753907-.09375-5.316407-1.8125-1.320312-1.449219-3.496093-1.742188-5.152343-.683594-1.65625 1.054688-2.308594 3.152344-1.546875 4.960938 3.648437 8.660156 2.644531 19.320312-2.550782 27.148437-5.195312 7.832031-14.625 12.894531-24.023437 12.902344-1.828125.003906-3.429687 1.238281-3.894531 3.007813-1.59375 6.058593-7.964844 10.75-14.242188 10.46875-6.257812-.289063-12.191406-5.546876-13.222656-11.730469-.191406-1.144531-.257812-2.390625-.324219-3.710938zm26.285157 63.8125c-5.503907 4.53125-14.285157 4.292969-18.796876-.515625-5.054687-5.382812-3.953124-14.464844.035157-20.136718 1.027343-1.460938 2.242187-2.824219 3.644531-4.082032 2.054688 1.878906 4.378906 3.453125 6.917969 4.601563 4.359375 1.96875 9.246093 2.65625 14.011719 2.164062 1.304687 6.796875-.933594 13.949219-5.8125 17.96875zm21.265624-28.03125c-.417968-1.242187-1.414062-2.203125-2.671874-2.574219-1.253907-.375-2.613282-.113281-3.640626.699219-5.492187 4.328125-13.460937 5.300781-19.832031 2.425781-1.167969-.527343-2.273437-1.183593-3.304687-1.941406 2.898437-1.480468 6.199218-2.726562 9.914062-3.722656 2.152344-.578125 3.425782-2.789062 2.847656-4.9375-.578124-2.152344-2.789062-3.429688-4.9375-2.847656-5.03125 1.347656-9.472656 3.121094-13.308593 5.300781-.890625-1.566406-1.566407-3.25-1.996094-4.996094.84375.148438 1.691406.265625 2.554687.304688.300782.011719.601563.019531.902344.019531 8.675782 0 17.0625-5.675781 20.503906-13.605469 11.148438-.917969 21.625-7.023437 27.839844-16.386719 5.070313-7.644531 7.039063-17.058593 5.695313-26.039062.902343.078125 1.835937.082031 2.789062.003906 5.871094-.460937 11.734375-3.90625 14.929688-8.777344 3.082031-4.699218 4.261719-10.140624 4.667969-15.339843 5.859374 4.335937 13.363281 6.519531 20.59375 5.609375 7.539062-.949219 14.527343-5.226563 19.128906-11.265625 3.203125 5.664062 8.34375 10.214843 14.515625 12.53125 5.683593 2.132812 11.960937 2.253906 17.714843.566406-.945312 5.492187-.316406 11.238281 1.953126 16.410156 2.964843 6.753907 8.542968 12.109375 15.269531 14.929688-1.632813 2.957031-2.511719 6.421875-2.542969 10.171875-.0625 7.390625 3.25 14.886718 8.648438 19.5625 6.410156 5.554687 15.503906 8.28125 25.726562 7.914062-.714844 1.9375-1.710938 3.800782-2.957031 5.539063-4.636719-2.472657-9.964844-4.023438-15.722657-4.515625-2.222656-.1875-4.171874 1.457031-4.359374 3.675781s1.457031 4.171875 3.675781 4.359375c3.746093.316406 7.238281 1.183594 10.371093 2.519531-.441406.324219-.890624.640625-1.359374.941407-6.125 3.941406-13.25 5.253906-19.53125 3.601562-1.992188-.523438-4.054688.535156-4.792969 2.457031-10.015625 26.113281-37.589844 44.648438-65.550781 44.101563-27.964844-.5625-54.769532-20.203125-63.734376-46.695313zm63.574219 54.753907c.460938.007812.917969.011718 1.378907.011718 14.644531 0 29.128906-4.660156 41.480468-12.636718-.148437 7.8125 1.820313 15.945312 5.652344 23.683593-3.382812 1.511719-6.230469 4.164063-7.953125 7.449219-3.300781-.269531-6.757813.40625-9.890625 1.996094-3.003906 1.527344-5.507812 3.785156-7.234375 6.457031-3.429687-.914063-7.203125-.824219-10.820313.316406-3.074218.964844-5.808593 2.617188-7.96875 4.753907-2.09375-1.726563-4.640624-2.902344-7.328124-3.308594-2.816407-.425782-5.738282.003906-8.339844 1.152344-1.617188-2.464844-3.917969-4.488282-6.605469-5.695313-2.777344-1.25-5.929687-1.613281-8.933594-1.121094-1.15625-3.179687-3.273437-6.019531-6.050781-7.960937-2.160156-1.511719-4.699219-2.457032-7.3125-2.800782 3.503906-7.421874 4.761719-15.449218 3.601562-22.789062 11.046876 6.425781 23.578126 10.238281 36.324219 10.492188zm-45.085937 20.695312c.105468-.027344.210937-.035156.3125-.070312 2.457031-.828126 5.417968-.40625 7.539062 1.082031 2.125 1.484375 3.539063 4.121093 3.605469 6.710937.035156 1.414063.804687 2.707032 2.035156 3.40625 1.230469.699219 2.738281.703125 3.96875.007813 1.984375-1.117188 4.613281-1.234375 6.6875-.300781 2.078125.933593 3.730469 2.976562 4.210938 5.203124.316406 1.449219 1.398437 2.609376 2.820312 3.019532 1.425781.414062 2.960938.007812 3.996094-1.046875 1.519531-1.546875 3.882813-2.339844 6.023437-2.011719 2.140626.324219 4.167969 1.773438 5.15625 3.699219.695313 1.339843 2.078126 2.183593 3.582032 2.183593h.054687c1.523438-.019531 2.910157-.902343 3.574219-2.273437 1.191406-2.460937 3.578125-4.402344 6.550781-5.335937 2.96875-.9375 6.042969-.707032 8.425781.628906 1.054688.589844 2.316407.675781 3.441407.234375 1.125-.445313 1.992187-1.367188 2.363281-2.519531.746094-2.316407 2.589844-4.363282 5.054688-5.617188 2.46875-1.25 5.210937-1.53125 7.523437-.765625 1.070313.355469 2.246094.246094 3.234375-.304687.988281-.550782 1.699219-1.496094 1.957031-2.597657.636719-2.695312 2.921875-5.039062 5.578125-5.910156 2.234375 3.34375 4.808594 6.570313 7.734375 9.601563.804688.839843 1.632813 1.652343 2.46875 2.449218-.621093.75-1.53125 1.296875-2.476562 1.40625-1.386719.160156-2.914063-.578125-3.648438-1.761718-.984375-1.589844-2.9375-2.296876-4.710937-1.699219-1.773438.597656-2.90625 2.335937-2.730469 4.199219.3125 3.316406-1.195313 6.769531-3.839844 8.792968-2.644531 2.027344-6.367187 2.582032-9.488281 1.417969-1.171875-.4375-2.484375-.304687-3.546875.359375-1.058594.660156-1.753906 1.78125-1.875 3.027344-.242187 2.480468-1.777344 4.914062-3.910156 6.199218-2.136719 1.285157-5.007813 1.503907-7.3125.554688-.203125-.082031-.40625-.171875-.605469-.261719-1.042969-.46875-2.46875-1.105469-4.21875-1.136719-3.367188-.042968-5.636719 1.988282-7.292969 3.484376-.414062.375-.804687.726562-1.152343.996093-1.523438 1.171875-3.761719 1.535157-5.574219.910157s-3.347657-2.296876-3.816407-4.15625c-.386718-1.511719-1.609374-2.667969-3.140624-2.96875-1.527344-.296876-3.097657.316406-4.019532 1.574218-1.410156 1.921875-4.183594 2.835938-6.457031 2.128906-2.277344-.707031-4.042969-3.039062-4.113281-5.417968-.042969-1.46875-.882813-2.800782-2.191406-3.46875-1.308594-.671875-2.878907-.578125-4.097657.246094-1.78125 1.207031-4.449219 1.175781-6.203125-.074219s-2.652344-3.761719-2.097656-5.839844c.40625-1.511719-.101562-3.121094-1.296875-4.128906-1.199219-1.007813-2.875-1.230469-4.292969-.570313-2.207031 1.027344-5.0625.824219-7.101562-.496094-1.847656-1.199218-3.113282-3.375-3.3125-5.578124 2.359375-2.1875 4.601562-4.578126 6.625-7.210938zm-109.949219 197.574219c-1.222656-1.671875-1.292969-4.386719-1.261719-7.503907.285156-27.882812.582032-56.714843 7.628906-84 7.734376-29.953124 23.316407-54.046874 43.871094-67.839843 4.289063-2.878907 8.917969-5.398438 13.601563-7.761719-3.476563 5.464844-6.203125 11.890625-6.90625 19.148438-1.167969 12.011718 4.453125 23.835937 13.523437 29.667968-7.011718 10.160156-8.792968 23.75-4.292968 35.328125 3.09375 7.949219 8.621093 14.300781 13.972656 20.441407 5.261718 6.039062 10.226562 11.746093 12.726562 18.621093.273438.75.75 1.359375 1.339844 1.8125-.042969 16.351563-1 32.679688-2.867188 48.859375-14.839843-.5625-29.707031-1.210937-44.613281-1.917968 3.496094-28.636719 2.6875-57.539063-2.433593-85.949219-.394532-2.191407-2.492188-3.652344-4.679688-3.25-2.191406.394531-3.648438 2.488281-3.253906 4.679687 5.011718 27.8125 5.773437 56.105469 2.292968 84.132813-9.546874-.460938-19.113281-.941407-28.695312-1.433594-3.890625-.199219-8.1875-.613281-9.953125-3.035156zm99.414063 7.070312c5.117187-44.84375 3.3125-90.8125-5.179688-135.328125 17.96875 15.363282 37.40625 29.066406 57.914062 40.804688 1.367188.785156 3.554688 2.035156 6.183594 2.035156.335938 0 .679688-.019531 1.03125-.0625 2.632813-.335938 4.550782-1.898438 5.820313-2.933594l54.691406-44.519531c-6.304687 47.15625-2.746094 95.953125 10.628906 141.316406-43.605469.988281-87.222656.25-131.089843-1.3125zm223.769531-27.769531c-.085938 9.066406-.960938 18.039062-6.695313 22.253906-3.449218 2.535156-8.277344 3.070313-13.773437 3.464844-8.085938.585938-16.171875 1.089844-24.25 1.53125-2.871094-28.699219-.105469-58.496094 8.003906-86.175781.625-2.136719-.601563-4.378907-2.738281-5.003907-2.132813-.625-4.375.601563-5 2.738282-8.359375 28.539062-11.230469 59.253906-8.324219 88.855468-10.5625.511719-21.117187.917969-31.675781 1.210938-.019532-.300781-.0625-.601562-.152344-.902344-5.804688-19.402344-9.75-39.460937-11.855469-59.75.558594-.265625 1.066407-.65625 1.472657-1.179687 5.433593-7.027344 11.589843-14.988281 15.902343-23.839844 4.925781-10.109375 6.785157-20.265625 5.378907-29.375-.671876-4.378906-2.019532-7.871094-4.109376-10.675781-1.183593-1.582032-2.613281-2.910156-4.1875-3.917969 6.015626-7.605469 9.441407-17.105469 9.554688-26.878906.085938-6.972657-1.53125-13.84375-4.578125-20.023438 2.898437 1.601563 5.765625 3.140625 8.554687 4.628907l.691407.367187c13.085937 6.992187 26.621093 14.222656 37.109375 24.488281 13.265625 12.980469 22.617187 31.914063 27.054687 54.757813 4.03125 20.769531 3.820313 42.453125 3.617188 63.425781zm0 0"/></symbol><symbol id="woman-1" viewBox="0 0 512 512"><title>woman-1</title><path style="fill:#DBEAFF;" d="M477.703,128c-18.528-32.092-68.599-40.488-132.068-27.252C325.364,39.165,293.056,0,256,0 s-69.364,39.165-89.635,100.748C102.897,87.512,52.825,95.908,34.297,128c-18.528,32.091-0.764,79.653,42.433,128 C33.533,304.347,15.77,351.909,34.297,384s68.6,40.488,132.068,27.251C186.636,472.835,218.944,512,256,512 s69.364-39.165,89.635-100.749c63.468,13.236,113.54,4.84,132.068-27.251S478.467,304.347,435.27,256 C478.467,207.653,496.231,160.091,477.703,128z M463.846,136c14.645,25.365-2.144,65.922-39.707,108.132 c-16.856-17.244-36.806-34.43-59.416-50.904c-2.962-27.818-7.87-53.688-14.376-76.908C405.684,104.896,449.202,110.635,463.846,136 z M304,339.138c-16.003,9.239-32.09,17.47-48,24.727c-15.91-7.256-31.997-15.487-48-24.727s-31.174-19.055-45.414-29.206 C160.916,292.526,160,274.479,160,256s0.916-36.526,2.586-53.933c14.239-10.15,29.411-19.966,45.414-29.206 c16.003-9.239,32.09-17.47,48-24.727c15.91,7.256,31.997,15.487,48,24.727c16.002,9.239,31.174,19.055,45.414,29.206 C351.085,219.474,352,237.522,352,256s-0.916,36.526-2.586,53.933C335.174,320.083,320.003,329.899,304,339.138z M346.941,331.211 c-2.979,21.739-7.188,42.181-12.424,60.786c-18.729-4.768-38.538-11.343-58.853-19.633c12.036-5.9,24.172-12.346,36.335-19.368 S335.814,338.684,346.941,331.211z M236.335,372.363c-20.315,8.29-40.124,14.865-58.853,19.633 c-5.235-18.604-9.445-39.047-12.424-60.786c11.127,7.474,22.778,14.762,34.941,21.784S224.3,366.463,236.335,372.363z M145.394,297.151c-17.337-13.448-32.935-27.315-46.429-41.152c13.494-13.836,29.093-27.703,46.429-41.151 C144.485,228.221,144,241.955,144,256C144,270.045,144.485,283.778,145.394,297.151z M165.059,180.789 c2.979-21.738,7.188-42.181,12.424-60.785c18.73,4.768,38.538,11.343,58.853,19.633c-12.036,5.9-24.172,12.346-36.335,19.368 S176.186,173.315,165.059,180.789z M275.665,139.637c20.315-8.29,40.124-14.865,58.853-19.633 c5.235,18.604,9.445,39.047,12.424,60.785c-11.127-7.474-22.778-14.761-34.941-21.784S287.7,145.537,275.665,139.637z M366.606,214.848c17.336,13.448,32.935,27.315,46.429,41.151c-13.494,13.836-29.092,27.704-46.429,41.152 C367.515,283.778,368,270.045,368,256C368,241.955,367.515,228.221,366.606,214.848z M256,16c29.289,0,56.019,34.817,73.792,88.453 c-23.362,5.976-48.22,14.661-73.792,26.004c-25.572-11.344-50.43-20.029-73.792-26.004C199.981,50.817,226.711,16,256,16z M48.154,136c14.645-25.365,58.163-31.104,113.499-19.679c-6.506,23.22-11.414,49.09-14.376,76.908 c-22.61,16.474-42.56,33.66-59.416,50.904C50.297,201.922,33.509,161.365,48.154,136z M48.154,376 c-14.645-25.365,2.144-65.922,39.707-108.133c16.856,17.244,36.806,34.43,59.416,50.904c2.961,27.818,7.87,53.688,14.376,76.908 C106.316,407.105,62.798,401.365,48.154,376z M256,496c-29.289,0-56.019-34.818-73.793-88.454 c23.362-5.976,48.221-14.66,73.793-26.004c25.572,11.344,50.431,20.029,73.792,26.004C312.019,461.182,285.289,496,256,496z M463.846,376c-14.645,25.365-58.163,31.104-113.499,19.679c6.506-23.22,11.415-49.09,14.376-76.908 c22.61-16.474,42.56-33.66,59.416-50.904C461.703,310.078,478.491,350.635,463.846,376z"/><path style="fill:#C3DDFF;" d="M364.723,318.771c22.471-16.373,42.626-33.767,59.416-50.904c0.29-4.04,0.289-7.753,0.289-11.867 c0-4.114,0.001-7.827-0.289-11.868c-16.79-17.137-36.945-34.531-59.416-50.904c-2.954-27.747-7.895-53.734-14.376-76.908 c-6.653-4.511-13.27-8.33-20.555-11.868c-23.242,5.972-48.371,14.728-73.792,26.004c-25.421-11.277-50.55-20.032-73.792-26.004 c-7.286,3.538-13.902,7.357-20.555,11.868c-6.481,23.174-11.422,49.161-14.376,76.908c-22.471,16.373-42.626,33.767-59.416,50.904 c-0.29,4.041-0.289,7.753-0.289,11.868c0,4.114-0.001,7.827,0.289,11.867c16.79,17.137,36.945,34.531,59.416,50.904 c2.954,27.747,7.895,53.734,14.376,76.908c6.652,4.51,13.269,8.331,20.555,11.868c23.242-5.972,48.372-14.727,73.793-26.004 c25.421,11.277,50.551,20.032,73.792,26.004c7.286-3.537,13.902-7.357,20.555-11.868 C356.829,372.505,361.77,346.518,364.723,318.771z M366.606,214.848c17.336,13.448,32.935,27.315,46.429,41.151 c-13.494,13.836-29.092,27.704-46.429,41.152C367.515,283.778,368,270.045,368,256C368,241.955,367.515,228.221,366.606,214.848z M145.394,297.151c-17.337-13.448-32.935-27.315-46.429-41.152c13.494-13.836,29.093-27.703,46.429-41.151 C144.485,228.221,144,241.955,144,256C144,270.045,144.485,283.778,145.394,297.151z M334.518,120.003 c5.235,18.604,9.445,39.047,12.424,60.785c-11.127-7.474-22.778-14.761-34.941-21.784s-24.3-13.468-36.335-19.368 C295.98,131.347,315.788,124.772,334.518,120.003z M177.482,120.003c18.73,4.768,38.538,11.343,58.853,19.633 c-12.036,5.9-24.172,12.346-36.335,19.368s-23.814,14.31-34.941,21.784C168.037,159.05,172.247,138.608,177.482,120.003z M177.482,391.996c-5.235-18.604-9.445-39.047-12.424-60.786c11.127,7.474,22.778,14.762,34.941,21.784s24.3,13.468,36.335,19.368 C216.021,380.653,196.212,387.228,177.482,391.996z M208,339.138c-16.003-9.239-31.174-19.055-45.414-29.206 C160.916,292.526,160,274.479,160,256s0.916-36.526,2.586-53.933c14.239-10.15,29.411-19.966,45.414-29.206 c16.003-9.239,32.09-17.47,48-24.727c15.91,7.256,31.997,15.487,48,24.727c16.002,9.239,31.174,19.055,45.414,29.206 C351.085,219.474,352,237.522,352,256s-0.916,36.526-2.586,53.933c-14.239,10.15-29.411,19.966-45.414,29.206 s-32.09,17.47-48,24.727C240.09,356.608,224.003,348.378,208,339.138z M334.518,391.996c-18.729-4.768-38.538-11.343-58.853-19.633 c12.036-5.9,24.172-12.346,36.335-19.368s23.814-14.311,34.941-21.784C343.963,352.949,339.753,373.392,334.518,391.996z"/><path style="fill:#6E4848;" d="M256,112c-39.765,0-72,32.235-72,72v136h144V184C328,144.235,295.765,112,256,112z"/><path style="fill:#E2A975;" d="M321.309,305.704l-31.611-13.548c-5.883-2.521-9.697-8.306-9.697-14.706V248h-48v29.45 c0,6.4-3.814,12.185-9.697,14.706l-31.611,13.548c-6.355,2.724-11.069,7.982-13.278,14.28c9.86,6.57,19.965,13.022,30.587,19.155 c16.003,9.239,32.09,17.47,48,24.727c15.91-7.256,31.997-15.487,48-24.727c10.622-6.132,20.727-12.585,30.587-19.155 C332.378,313.686,327.664,308.427,321.309,305.704z"/><path style="fill:#8BB3EA;" d="M321.309,305.704l-13.086-5.608C300.139,321.083,279.836,336,256,336s-44.139-14.917-52.222-35.905 l-13.086,5.608c-6.355,2.724-11.069,7.982-13.278,14.28c9.86,6.57,19.965,13.022,30.587,19.155c16.003,9.239,32.09,17.47,48,24.727 c15.91-7.256,31.997-15.487,48-24.727c10.622-6.132,20.727-12.585,30.587-19.155C332.378,313.686,327.664,308.427,321.309,305.704z "/><path style="fill:#D19A6E;" d="M232,275.304c7.417,3.005,15.506,4.696,24,4.696c8.494,0,16.583-1.691,24-4.696V248h-48V275.304z"/><path style="fill:#ECBD83;" d="M208,152v64c0,26.51,21.49,48,48,48s48-21.49,48-48v-64H208z"/><path style="fill:#E2A975;" d="M256,264c2.732,0,5.664-0.267,8.271-0.706C241.578,259.478,224,239.778,224,216v-12.759 c0-7.123,3.164-13.877,8.636-18.437L272,152h-64v64C208,242.51,229.49,264,256,264z"/><path style="fill:#6E4848;" d="M232,208c-1.039,0-2.078-0.242-3.039-0.641c-1.039-0.398-1.844-0.961-2.641-1.68 c-0.719-0.805-1.281-1.68-1.68-2.641S224,201.039,224,200s0.242-2.078,0.641-3.039c0.398-1.039,0.961-1.922,1.68-2.641 c1.836-1.844,4.641-2.719,7.195-2.164c0.563,0.086,1.039,0.242,1.523,0.484c0.477,0.156,0.961,0.398,1.359,0.719 c0.477,0.242,0.883,0.641,1.281,0.961c0.719,0.719,1.281,1.602,1.68,2.641c0.398,0.961,0.641,2,0.641,3.039 s-0.242,2.078-0.641,3.039s-0.961,1.836-1.68,2.641c-0.805,0.719-1.68,1.281-2.641,1.68S233.039,208,232,208z"/><path style="fill:#6E4848;" d="M280,208c-1.039,0-2.078-0.242-3.039-0.641c-1.039-0.398-1.844-0.961-2.641-1.68 c-0.719-0.805-1.281-1.68-1.68-2.641S272,201.039,272,200s0.242-2.078,0.641-3.039c0.398-1.039,0.961-1.922,1.68-2.641 c0.398-0.32,0.797-0.719,1.195-0.961c0.484-0.32,0.961-0.563,1.445-0.719c0.477-0.242,0.961-0.398,1.438-0.484 c1.039-0.234,2.156-0.234,3.117,0c0.563,0.086,1.039,0.242,1.523,0.484c0.477,0.156,0.961,0.398,1.359,0.719 c0.477,0.242,0.883,0.641,1.281,0.961c0.719,0.719,1.281,1.602,1.68,2.641c0.398,0.961,0.641,2,0.641,3.039 s-0.242,2.078-0.641,3.039s-0.961,1.836-1.68,2.641c-0.805,0.719-1.68,1.281-2.641,1.68S281.039,208,280,208z"/><path style="fill:#D19A6E;" d="M255.852,242.453c-9.078,0-17.375-3.508-22.18-9.391c-2.797-3.422-2.289-8.461,1.133-11.258 c3.422-2.805,8.461-2.289,11.258,1.133c1.43,1.75,5.008,3.516,9.789,3.516c4.773,0,8.359-1.773,9.797-3.523 c2.789-3.414,7.836-3.922,11.258-1.117c3.414,2.797,3.914,7.844,1.117,11.258C273.211,238.945,264.922,242.453,255.852,242.453z"/><path style="fill:#785353;" d="M328,208c-32-8-88-48-88-48l-56,48v-24c0-39.764,32.235-72,72-72h0c39.764,0,72,32.235,72,72V208z"/><path style="fill:#966A5B;" d="M227.488,117.865c17.165,19.166,52.693,53.364,100.512,71.182V184c0-39.765-32.235-72-72-72 C245.875,112,236.23,114.092,227.488,117.865z"/></symbol><symbol id="woman-2" viewBox="0 0 512 512"><title>woman-2</title><g> <g> <path style="fill:#DBEAFF;" d="M173.561,376.895c8.211-1.901,16.493,2.88,18.952,10.941l2.185,7.162 c18.013,59.033,43.768,85.453,61.303,85.453s43.29-26.42,61.303-85.453l2.185-7.162c2.459-8.062,10.74-12.843,18.952-10.941 l7.288,1.688c60.105,13.903,95.88,4.83,104.656-10.357c8.76-15.187-1.245-50.704-43.361-95.818l-5.104-5.467 c-5.752-6.16-5.752-15.722,0-21.883l5.104-5.467c42.116-45.114,52.121-80.631,43.361-95.818 c-8.768-15.179-44.551-24.26-104.656-10.357l-7.288,1.688c-8.211,1.901-16.493-2.88-18.952-10.941l-2.185-7.162 C299.29,57.969,273.535,31.548,256,31.548s-43.29,26.42-61.303,85.453l-2.185,7.162c-2.459,8.062-10.74,12.843-18.952,10.941 l-7.288-1.688c-60.121-13.911-95.888-4.846-104.656,10.357c-8.76,15.187,1.245,50.704,43.361,95.818l5.104,5.467 c5.752,6.16,5.752,15.722,0,21.883l-5.104,5.467c-42.116,45.114-52.12,80.631-43.361,95.818 c8.768,15.187,44.551,24.268,104.656,10.357L173.561,376.895z"/> </g> <path style="fill:#6E4848;" d="M256,111.71c-39.845,0-72.145,32.3-72.145,72.145v136.274h144.29V183.855 C328.145,144.01,295.845,111.71,256,111.71z"/> <path style="fill:#E2A975;" d="M321.44,305.804l-31.675-13.575c-5.895-2.526-9.717-8.322-9.717-14.736v-29.509h-48.097v29.509 c0,6.413-3.822,12.21-9.717,14.736l-31.675,13.575c-6.368,2.729-11.091,15.28-13.305,21.59 c9.88,6.583,20.006,13.049,30.649,19.193c16.035,9.258,32.155,17.505,48.097,24.776c15.942-7.271,32.062-15.519,48.097-24.776 c10.643-6.145,20.769-12.61,30.649-19.193C332.531,321.084,327.809,308.533,321.44,305.804z"/> <path style="fill:#8BB3EA;" d="M321.44,305.804l-13.113-5.62c-8.1,21.03-28.444,35.977-52.327,35.977 s-44.228-14.948-52.327-35.977l-13.113,5.62c-6.368,2.729-11.091,15.28-13.305,21.59c9.88,6.583,20.006,13.049,30.649,19.193 c16.035,9.258,32.155,17.505,48.097,24.776c15.942-7.271,32.062-15.519,48.097-24.776c10.643-6.145,20.769-12.61,30.649-19.193 C332.531,321.084,327.809,308.533,321.44,305.804z"/> <path style="fill:#D19A6E;" d="M231.952,280.019c7.431,3.011,15.537,4.705,24.048,4.705s16.617-1.694,24.048-4.705V252.66h-48.097 V280.019z"/> <path style="fill:#ECBD83;" d="M207.903,151.79v64.129c0,26.563,21.534,48.097,48.097,48.097s48.097-21.534,48.097-48.097V151.79 H207.903z"/> <path style="fill:#E2A975;" d="M250.018,263.65c10.831,1.323,21.022-1.01,29.601-5.86l-14.281-2.402 c-19.272-3.241-33.386-19.926-33.386-39.469v-12.785c0-4.758,2.113-9.27,5.769-12.316l39.443-32.87l7.39-6.158h-76.65l0,62.347 C207.903,238.732,225.606,260.669,250.018,263.65z"/> <path style="fill:#785353;" d="M328.145,207.903c-32.065-8.016-88.177-48.097-88.177-48.097l-56.113,48.097v-24.048 c0-39.845,32.3-72.145,72.145-72.145h0c39.845,0,72.145,32.3,72.145,72.145V207.903z"/> <path style="fill:#966A5B;" d="M227.45,117.605c17.2,19.204,52.78,53.453,100.695,71.307v-5.057 c0-39.845-32.3-72.145-72.145-72.145C245.854,111.71,236.209,113.825,227.45,117.605z"/> </g><g> <path d="M434.813,256.013c5.816-6.486,11.221-13.001,16.176-19.516c32.753-43.073,42.24-81.605,26.714-108.497 c-11.63-20.143-36.058-31.53-70.645-32.931c-18.404-0.745-39.241,1.342-61.69,6.085c-5.253-16.116-11.324-30.799-18.099-43.593 C307.326,19.905,282.682,0,256,0c-35.922,0-68.398,36.826-89.392,101.149c-22.417-4.735-43.227-6.821-61.61-6.082 C70.381,96.458,45.934,107.846,34.297,128c-15.526,26.892-6.039,65.423,26.714,108.497c4.954,6.516,10.36,13.031,16.176,19.516 c-8.071,8.989-15.329,18.004-21.648,26.951C27.305,322.941,19.762,358.823,34.297,384c12.528,21.7,39.76,33.084,78.015,33.083 c9.152,0,18.94-0.652,29.303-1.97c8.115-1.032,16.454-2.454,24.973-4.247c2.707,8.273,5.645,16.206,8.808,23.75 C196.323,484.518,224.948,512,256,512s59.677-27.482,80.604-77.384c3.163-7.543,6.101-15.476,8.808-23.75 c8.519,1.792,16.858,3.215,24.973,4.247c10.366,1.318,20.148,1.97,29.303,1.97c38.25-0.001,65.487-11.385,78.015-33.083 c14.536-25.177,6.992-61.059-21.242-101.036C450.142,274.017,442.883,265.002,434.813,256.013z M406.451,110.057 c20.353,0.824,46.982,5.907,58.261,25.443c12.131,21.012,2.777,54.515-25.664,91.917c-4.465,5.872-9.324,11.746-14.53,17.601 c-17.254-17.7-37.557-35.143-60.103-51.604c-2.976-27.718-7.98-54.085-14.68-77.865 C370.454,111.255,389.598,109.378,406.451,110.057z M367.388,236.211c-0.135-4.14-3.599-7.376-7.741-7.251 c-4.14,0.135-7.386,3.601-7.251,7.741c0.208,6.372,0.313,12.865,0.313,19.299c0,18.537-0.856,36.749-2.52,54.381 c-2.879,2.045-5.799,4.072-8.749,6.084c-1.367-3.469-3.326-6.669-5.796-9.449V191.642c30.195,20.069,56.997,42.053,78.658,64.37 c-14.073,14.518-30.25,28.814-48.093,42.526c0.99-13.925,1.499-28.141,1.499-42.538 C367.709,249.404,367.602,242.746,367.388,236.211z M159.291,256c0-18.554,0.852-36.706,2.525-54.358 c4.752-3.38,9.599-6.716,14.54-10v115.374c-2.469,2.78-4.427,5.98-5.794,9.45c-2.951-2.012-5.871-4.039-8.75-6.085 C160.146,292.749,159.291,274.537,159.291,256z M145.789,298.538c-17.842-13.712-34.02-28.009-48.093-42.526 c14.031-14.456,30.214-28.773,48.086-42.52c-0.987,13.912-1.492,28.094-1.492,42.508 C144.291,270.397,144.8,284.613,145.789,298.538z M256,119.209c35.646,0,64.645,29,64.645,64.646v13.789 c-30.99-11.708-75.821-43.586-76.318-43.941c-2.809-2.005-6.621-1.836-9.24,0.409l-43.732,37.484v-7.742 C191.355,148.209,220.354,119.209,256,119.209z M334.921,173.272c-2.473-18.531-11.334-35.059-24.299-47.3 c8.339-2.675,16.527-5.044,24.509-7.06c5.422,19.101,9.775,40.238,12.79,62.904C343.654,178.927,339.317,176.079,334.921,173.272z M191.355,211.353l9.048-7.756v12.322c0,18.947,9.533,35.702,24.048,45.743v15.83c0,3.418-2.03,6.497-5.171,7.843l-27.926,11.968 V211.353z M280.095,207.54c4.142,0,7.5-3.358,7.5-7.5c0-0.547-0.062-1.08-0.173-1.594c3.049,1.661,6.118,3.275,9.175,4.815v12.659 c0,22.385-18.211,40.597-40.597,40.597s-40.597-18.211-40.597-40.597v-24.048c0-0.361-0.034-0.713-0.083-1.06l25.116-21.528 c7.155,4.931,21.348,14.446,37.229,23.666c-2.948,1.011-5.07,3.799-5.07,7.09C272.595,204.182,275.953,207.54,280.095,207.54z M225.189,299.123c8.664-3.713,14.262-12.204,14.262-21.63v-8.492c5.229,1.634,10.788,2.515,16.548,2.515 s11.319-0.881,16.548-2.515v8.492c0,9.426,5.598,17.917,14.263,21.63l11.484,4.922c-8.547,15.143-24.502,24.617-42.295,24.617 c-17.806,0-33.753-9.47-42.297-24.616L225.189,299.123z M292.72,285.335c-3.142-1.346-5.171-4.425-5.171-7.843v-15.83 c14.515-10.042,24.048-26.796,24.048-45.743v-5.749c3.111,1.278,6.141,2.412,9.048,3.359v83.774L292.72,285.335z M200.145,352.743 c12.468,7.199,25.034,13.866,37.588,19.971c-20.802,8.598-41.277,15.461-60.891,20.39c-5.539-19.45-9.833-40.614-12.787-62.928 C175.62,337.996,187.677,345.545,200.145,352.743z M207.645,339.753c-8.203-4.736-16.215-9.628-24.023-14.643 c0.997-5.472,4.654-10.167,9.891-12.412l6.331-2.713c10.962,20.675,32.285,33.677,56.155,33.677 c23.852,0,45.187-13.007,56.153-33.678l6.333,2.714c5.235,2.244,8.891,6.935,9.89,12.413c-7.807,5.015-15.818,9.906-24.021,14.642 c-16.053,9.268-32.253,17.633-48.355,25.008C239.898,357.386,223.698,349.021,207.645,339.753z M311.855,352.743 c12.468-7.198,24.525-14.747,36.089-22.567c-2.954,22.314-7.249,43.478-12.787,62.928c-19.614-4.929-40.089-11.792-60.891-20.39 C286.821,366.609,299.387,359.942,311.855,352.743z M256,15c29.187,0,56.602,34.712,74.733,89.566 c-11.26,2.866-22.867,6.366-34.721,10.468c-11.767-6.868-25.432-10.824-40.012-10.824c-14.58,0-28.245,3.956-40.013,10.825 c-11.854-4.101-23.459-7.603-34.719-10.469C199.851,48.392,227.622,15,256,15z M72.952,227.417 c-28.441-37.403-37.795-70.906-25.664-91.917c11.286-19.548,37.94-24.627,58.313-25.445c27.033-1.084,59.936,4.413,95.779,15.916 c-12.966,12.242-21.827,28.77-24.3,47.301c-4.399,2.809-8.738,5.659-13.008,8.548c1.686-12.648,3.806-25.008,6.376-37.023 c0.867-4.05-1.714-8.037-5.765-8.903c-4.046-0.868-8.036,1.715-8.903,5.765c-3.566,16.67-6.299,33.966-8.209,51.766 c-22.541,16.458-42.839,33.897-60.089,51.594C82.275,239.164,77.417,233.289,72.952,227.417z M139.723,400.233 c-46.612,5.93-80.304-2.721-92.435-23.733c-11.441-19.816-4.159-49.961,20.504-84.882c5.765-8.163,12.356-16.394,19.675-24.615 c17.299,17.766,37.584,35.173,60.105,51.598c2.964,27.717,7.897,53.99,14.634,77.854 C154.541,398.034,147.032,399.303,139.723,400.233z M322.771,428.815C304.599,472.148,280.262,497,256,497 s-48.599-24.852-66.771-68.185c-2.85-6.795-5.505-13.932-7.97-21.359c24.036-6.098,49.255-14.963,74.741-26.254 c25.486,11.291,50.705,20.156,74.741,26.254C328.275,414.883,325.62,422.02,322.771,428.815z M464.712,376.5 c-12.131,21.011-45.823,29.663-92.435,23.733c-7.31-0.93-14.818-2.199-22.483-3.777c6.737-23.864,11.669-50.137,14.634-77.854 c22.521-16.425,42.807-33.833,60.105-51.598c7.319,8.221,13.91,16.452,19.675,24.615 C468.872,326.539,476.153,356.684,464.712,376.5z"/> <path d="M266.061,223.194c-1.513,1.848-5.257,3.713-10.213,3.713s-8.7-1.865-10.212-3.712c-2.623-3.207-7.348-3.678-10.554-1.056 c-3.206,2.623-3.679,7.348-1.056,10.554c4.721,5.77,12.878,9.214,21.821,9.214c8.943,0,17.101-3.444,21.821-9.214 c2.624-3.206,2.151-7.931-1.055-10.554C273.41,219.517,268.684,219.989,266.061,223.194z"/> <circle cx="231.97" cy="200.04" r="7.5"/> </g></symbol></svg>