<?xml version="1.0" encoding="iso-8859-1"?>
<!-- Generator: Adobe Illustrator 19.0.0, SVG Export Plug-In . SVG Version: 6.00 Build 0)  -->
<svg version="1.1" id="Capa_1" xmlns="http://www.w3.org/2000/svg" xmlns:xlink="http://www.w3.org/1999/xlink" x="0px" y="0px"
	 viewBox="0 0 512 512" style="enable-background:new 0 0 512 512;" xml:space="preserve">
<circle style="fill:#303C42;" cx="256" cy="53.333" r="53.333"/>
<circle style="fill:#1E88E5;" cx="256" cy="53.333" r="32"/>
<path style="opacity:0.1;enable-background:new    ;" d="M272.746,26.19c0.349,1.889,0.587,3.82,0.587,5.81
	c0,17.646-14.354,32-32,32c-6.158,0-11.861-1.831-16.746-4.857c2.747,14.874,15.757,26.19,31.413,26.19c17.646,0,32-14.354,32-32
	C288,41.845,281.862,31.836,272.746,26.19z"/>
<path style="fill:#303C42;" d="M480,128H32c-5.896,0-10.667,4.771-10.667,10.667v42.667C21.333,187.229,26.104,192,32,192h138.667
	v309.333c0,5.896,4.771,10.667,10.667,10.667h53.333c5.896,0,10.667-4.771,10.667-10.667v-160h21.333v160
	c0,5.896,4.771,10.667,10.667,10.667h53.333c5.896,0,10.667-4.771,10.667-10.667V192H480c5.896,0,10.667-4.771,10.667-10.667
	v-42.667C490.667,132.771,485.896,128,480,128z"/>
<path style="fill:#1E88E5;" d="M469.333,170.667H330.667c-5.896,0-10.667,4.771-10.667,10.667v309.333h-32v-160
	c0-5.896-4.771-10.667-10.667-10.667h-42.667c-5.896,0-10.667,4.771-10.667,10.667v160h-32V181.333
	c0-5.896-4.771-10.667-10.667-10.667H42.667v-21.333h426.667V170.667z"/>
<path style="opacity:0.1;enable-background:new    ;" d="M469.333,170.667H330.667c-5.896,0-10.667,4.771-10.667,10.667v309.333h-32
	v-160c0-5.896-4.771-10.667-10.667-10.667H256V149.333h213.333V170.667z"/>
<linearGradient id="SVGID_1_" gradientUnits="userSpaceOnUse" x1="-46.1607" y1="639.1146" x2="-27.239" y2="630.2907" gradientTransform="matrix(21.3333 0 0 -21.3333 996.3334 13791.667)">
	<stop  offset="0" style="stop-color:#FFFFFF;stop-opacity:0.2"/>
	<stop  offset="1" style="stop-color:#FFFFFF;stop-opacity:0"/>
</linearGradient>
<path style="fill:url(#SVGID_1_);" d="M256,106.667c29.406,0,53.333-23.927,53.333-53.333S285.406,0,256,0
	s-53.333,23.927-53.333,53.333S226.594,106.667,256,106.667z M480,128H32c-5.896,0-10.667,4.771-10.667,10.667v42.667
	C21.333,187.229,26.104,192,32,192h138.667v309.333c0,5.896,4.771,10.667,10.667,10.667h53.333c5.896,0,10.667-4.771,10.667-10.667
	v-160h21.333v160c0,5.896,4.771,10.667,10.667,10.667h53.333c5.896,0,10.667-4.771,10.667-10.667V192H480
	c5.896,0,10.667-4.771,10.667-10.667v-42.667C490.667,132.771,485.896,128,480,128z"/>
<g>
</g>
<g>
</g>
<g>
</g>
<g>
</g>
<g>
</g>
<g>
</g>
<g>
</g>
<g>
</g>
<g>
</g>
<g>
</g>
<g>
</g>
<g>
</g>
<g>
</g>
<g>
</g>
<g>
</g>
</svg>
