<?xml version="1.0" encoding="iso-8859-1"?>
<!-- Generator: Adobe Illustrator 19.0.0, SVG Export Plug-In . SVG Version: 6.00 Build 0)  -->
<svg version="1.1" id="Capa_1" xmlns="http://www.w3.org/2000/svg" xmlns:xlink="http://www.w3.org/1999/xlink" x="0px" y="0px"
	 viewBox="0 0 512 512" style="enable-background:new 0 0 512 512;" xml:space="preserve">
<g>
	<g transform="translate(1 1)">
		<path style="fill:#00695C;" d="M502.467,255c0.011,65.636-26.058,128.586-72.469,174.997
			c-46.411,46.411-109.362,72.48-174.997,72.469c-4.267,0-8.533-0.085-12.715-0.341h-0.171C110.629,495.274,7.531,386.664,7.531,255
			S110.629,14.726,242.115,7.875h0.171c4.181-0.256,8.448-0.341,12.715-0.341c65.636-0.011,128.586,26.058,174.997,72.469
			C476.409,126.414,502.478,189.364,502.467,255z"/>
		<path style="fill:#009688;" d="M476.867,255c0.003,131.665-103.095,240.275-234.581,247.125h-0.171
			C110.629,495.274,7.531,386.664,7.531,255S110.629,14.726,242.115,7.875h0.171C373.771,14.725,476.869,123.336,476.867,255z"/>
		<g>
			<path style="fill:#FFEB3A;" d="M193.987,152.259c-17.17,10.214-31.514,24.558-41.728,41.728L120.6,180.931
				c13.924-25.461,34.824-46.42,60.245-60.416L193.987,152.259z"/>
			<path style="fill:#FFEB3A;" d="M139.203,284.525l-31.744,13.141c-8.081-27.875-8.051-57.475,0.085-85.333l31.659,13.141
				C134.296,244.852,134.296,265.148,139.203,284.525z"/>
			<path style="fill:#FFEB3A;" d="M193.987,357.741L180.931,389.4c-25.461-13.924-46.42-34.824-60.416-60.245l31.744-13.141
				C162.473,333.183,176.817,347.527,193.987,357.741z"/>
			<path style="fill:#FFEB3A;" d="M297.667,402.541c-27.875,8.081-57.475,8.051-85.333-0.085l13.141-31.659
				c19.378,4.907,39.673,4.907,59.051,0L297.667,402.541z"/>
			<path style="fill:#FFEB3A;" d="M389.4,329.069c-13.924,25.461-34.824,46.42-60.245,60.416l-13.141-31.744
				c17.17-10.214,31.514-24.558,41.728-41.728L389.4,329.069z"/>
			<path style="fill:#FFEB3A;" d="M297.667,195.267L255,237.933l-42.667-42.667h25.6V75.8c0-9.426,7.641-17.067,17.067-17.067
				s17.067,7.641,17.067,17.067v119.467H297.667z"/>
			<path style="fill:#FFEB3A;" d="M408.6,297.667v-25.6h-93.867c-9.426,0-17.067-7.641-17.067-17.067s7.641-17.067,17.067-17.067
				H408.6v-25.6L451.267,255L408.6,297.667z"/>
		</g>
	</g>
	<g>
		<path d="M256,0C114.615,0,0,114.615,0,256s114.615,256,256,256s256-114.615,256-256C511.84,114.682,397.319,0.16,256,0z
			 M256,494.933C124.041,494.933,17.067,387.959,17.067,256S124.041,17.067,256,17.067S494.933,124.041,494.933,256
			C494.785,387.898,387.898,494.785,256,494.933z"/>
		<path d="M118.317,189.792l31.667,13.117c3.923,1.625,8.444,0.12,10.608-3.533c9.469-15.958,22.786-29.289,38.733-38.775
			c3.651-2.166,5.154-6.687,3.529-10.608l-13.158-31.766c-0.931-2.243-2.773-3.983-5.065-4.784
			c-2.292-0.802-4.817-0.589-6.943,0.584c-26.84,14.775-48.904,36.906-63.596,63.792c-1.16,2.126-1.362,4.645-0.556,6.929
			C114.342,187.029,116.08,188.864,118.317,189.792L118.317,189.792z M177.704,133.867l6.637,16.033
			c-13.587,9.187-25.284,20.896-34.458,34.492l-15.962-6.608C145.145,160.132,160.087,145.144,177.704,133.867z"/>
		<path d="M148.467,283.375c-4.569-17.985-4.56-36.828,0.025-54.808c1.05-4.112-1.083-8.37-5.004-9.992l-31.662-13.108
			c-2.236-0.928-4.762-0.861-6.946,0.184c-2.184,1.044-3.822,2.968-4.504,5.291c-8.629,29.398-8.68,60.649-0.146,90.075
			c0.674,2.334,2.311,4.27,4.5,5.323c2.189,1.053,4.723,1.124,6.967,0.194l31.771-13.158
			C147.388,291.749,149.519,287.488,148.467,283.375z M130.304,280.35l-16.029,6.642c-4.484-20.427-4.453-41.587,0.092-62
			l15.963,6.608C127.208,247.699,127.2,264.247,130.304,280.35z"/>
		<path d="M199.375,351.408c-15.958-9.468-29.287-22.785-38.771-38.733c-2.165-3.652-6.686-5.158-10.608-3.533l-31.771,13.167
			c-2.243,0.93-3.984,2.772-4.787,5.064c-0.802,2.292-0.591,4.818,0.582,6.944c14.778,26.838,36.91,48.9,63.796,63.592
			c2.125,1.161,4.644,1.363,6.928,0.557c2.284-0.806,4.117-2.545,5.043-4.782l13.117-31.667
			C204.53,358.095,203.026,353.575,199.375,351.408z M177.779,378.084c-17.649-11.225-32.635-26.167-43.913-43.783l16.033-6.642
			c9.19,13.585,20.898,25.282,34.492,34.458L177.779,378.084z"/>
		<path d="M293.375,368.533c-1.618-3.927-5.883-6.06-9.996-5c-17.984,4.567-36.825,4.558-54.804-0.025
			c-4.113-1.066-8.382,1.069-9.996,5l-13.117,31.667c-0.929,2.236-0.863,4.762,0.182,6.947c1.045,2.185,2.969,3.822,5.293,4.503
			c14.679,4.319,29.902,6.511,45.204,6.508c15.182-0.005,30.289-2.146,44.875-6.358c2.334-0.674,4.271-2.31,5.325-4.499
			c1.054-2.189,1.125-4.723,0.196-6.968L293.375,368.533z M224.988,397.642l6.613-15.975c16.1,3.125,32.651,3.133,48.754,0.025
			l6.642,16.033C266.567,402.21,245.405,402.182,224.988,397.642z"/>
		<path d="M393.683,322.208l-31.667-13.117c-3.923-1.631-8.447-0.124-10.608,3.533c-9.469,15.958-22.786,29.289-38.733,38.776
			c-3.651,2.166-5.154,6.687-3.529,10.608l13.158,31.767c0.929,2.243,2.771,3.982,5.062,4.783c2.292,0.808,4.821,0.596,6.946-0.583
			c26.84-14.775,48.904-36.906,63.596-63.792c1.159-2.126,1.361-4.645,0.556-6.929C397.659,324.971,395.921,323.137,393.683,322.208
			L393.683,322.208z M334.296,378.133l-6.637-16.033c13.587-9.187,25.284-20.896,34.458-34.492l15.962,6.608
			C366.855,351.868,351.913,366.856,334.296,378.133z"/>
		<path d="M249.967,244.966c1.6,1.601,3.77,2.5,6.033,2.5s4.433-0.899,6.033-2.5L304.7,202.3c2.441-2.44,3.171-6.111,1.85-9.299
			c-1.321-3.189-4.432-5.268-7.884-5.267H281.6V76.8c0-14.138-11.461-25.6-25.6-25.6c-14.138,0-25.6,11.462-25.6,25.6v110.933
			h-17.067c-3.451,0-6.563,2.079-7.883,5.268c-1.321,3.189-0.59,6.859,1.85,9.299L249.967,244.966z M238.933,204.8
			c2.263,0.001,4.434-0.898,6.035-2.499c1.6-1.6,2.499-3.771,2.499-6.035V76.8c0-4.713,3.821-8.533,8.533-8.533
			c4.713,0,8.533,3.821,8.533,8.533v119.467c-0.001,2.263,0.898,4.434,2.499,6.035c1.6,1.6,3.771,2.499,6.035,2.499h5L256,226.867
			L233.933,204.8H238.933z"/>
		<path d="M406.333,205.45c-3.189,1.321-5.267,4.432-5.267,7.883V230.4h-85.333c-14.138,0-25.6,11.462-25.6,25.6
			c0,14.139,11.462,25.6,25.6,25.6h85.333v17.067c0,3.451,2.079,6.563,5.267,7.883c3.189,1.321,6.859,0.59,9.299-1.85l42.667-42.667
			c1.601-1.6,2.5-3.77,2.5-6.033s-0.899-4.433-2.5-6.033L415.633,207.3C413.198,204.85,409.521,204.118,406.333,205.45z
			 M418.133,238.933v-5L440.2,256l-22.067,22.067v-5c0.001-2.263-0.898-4.434-2.499-6.035s-3.771-2.499-6.035-2.499h-93.867
			c-4.713,0-8.533-3.821-8.533-8.533c0-4.713,3.821-8.533,8.533-8.533H409.6c2.263,0.001,4.434-0.898,6.035-2.499
			C417.235,243.368,418.134,241.197,418.133,238.933z"/>
	</g>
</g>
<g>
</g>
<g>
</g>
<g>
</g>
<g>
</g>
<g>
</g>
<g>
</g>
<g>
</g>
<g>
</g>
<g>
</g>
<g>
</g>
<g>
</g>
<g>
</g>
<g>
</g>
<g>
</g>
<g>
</g>
</svg>
