<svg id="Layer_1" enable-background="new 0 0 512.001 512.001" height="512" viewBox="0 0 512.001 512.001" width="512" xmlns="http://www.w3.org/2000/svg"><g><g clip-rule="evenodd" fill-rule="evenodd"><path d="m238.149 441.679c15.073-75.339-57.144-111.405-77.76-143.127-4.855-7.469-33.424-53.457-38.279-60.927-5.066-7.794-15.534-10.027-23.263-4.959-2.154 1.413-3.677 3.158-4.699 5.136l-38.552-82.533c-12.151-24.873-40.902-11.047-33.35 10.935 5.325 15.005 25.328 85.643 40.932 132.823 11.224 33.936 16.218 42.93 39.3 69.742l35.088 40.76-1.603 32.151h102.186z" fill="#ffdcd5"/><path d="m351.612 298.552c-20.616 31.722-92.833 67.788-77.76 143.127h102.186l-1.603-32.151 35.088-40.76c23.081-26.812 28.076-35.806 39.3-69.742 15.603-47.18 35.606-117.818 40.931-132.823 7.552-21.982-21.199-35.808-33.35-10.935l-38.551 82.533c-1.022-1.978-2.545-3.724-4.699-5.136-7.728-5.068-18.196-2.835-23.263 4.959-4.855 7.471-33.424 53.459-38.279 60.928z" fill="#ffdcd5"/><g fill="#5cd0b3"><path d="m376.039 441.679h-102.186-17.852v60.323h139.978v-60.323z"/><path d="m256.001 502.002v-60.323h-17.852-102.186-19.94v60.323z"/></g></g><g><path d="m484.498 134.01c-11.549-4.785-28.082-1.547-37.079 16.87-.025.052-.05.105-.075.158l-33.128 70.922c-4.92-2.043-10.348-2.559-15.696-1.435-7.05 1.481-13.092 5.618-17.013 11.65-2.476 3.809-10.617 16.83-19.236 30.615-8.192 13.103-16.663 26.651-19.042 30.312-4.892 7.527-13.957 16.18-23.554 25.342-26.618 25.409-62.479 59.647-57.393 113.235h-12.563c2.633-27.936-5.626-53.872-25.111-79.016-3.384-4.366-9.665-5.163-14.03-1.779-4.366 3.383-5.162 9.665-1.779 14.03 16.857 21.752 23.542 43.111 20.81 66.765h-83.134l1.08-21.653c.127-2.563-.735-5.077-2.409-7.022l-35.088-40.76c-22.023-25.583-26.565-33.645-37.384-66.357-8.878-26.845-19.166-61.249-27.433-88.893-6.243-20.876-11.177-37.378-13.549-44.077-1.981-5.816.625-9.253 3.466-10.429 4.064-1.684 8.435 1.037 11.419 7.1l36.755 78.688c-1.338 5.217-1.337 11.902 1.041 20.458 6.858 24.672 15.914 49.618 24.844 68.44 2.368 4.989 8.332 7.116 13.321 4.748 4.99-2.368 7.116-8.332 4.748-13.321-8.461-17.833-17.08-41.606-23.644-65.223-1.855-6.677-1.624-10.831.689-12.348 1.48-.972 3.269-1.303 5.04-.93 1.807.379 3.353 1.437 4.354 2.977 2.382 3.666 10.866 17.234 19.07 30.355 5.612 8.976 11.221 17.947 15.036 24.003 2.943 4.673 9.117 6.076 13.791 3.132 4.673-2.943 6.075-9.118 3.132-13.791-3.805-6.042-9.401-14.992-15-23.947-8.629-13.803-16.781-26.839-19.259-30.652-3.92-6.032-9.962-10.169-17.013-11.65-5.35-1.124-10.777-.609-15.696 1.435l-33.128-70.922c-.025-.053-.05-.105-.075-.158-8.996-18.416-25.526-21.655-37.079-16.87-11.699 4.846-20.509 18.576-14.714 35.444.011.032.022.063.033.095 2.195 6.186 7.321 23.327 13.256 43.175 8.303 27.768 18.637 62.325 27.606 89.443 11.659 35.253 17.437 45.505 41.215 73.126l32.48 37.73-.931 18.656h-10.426c-5.523 0-10 4.477-10 10v60.322c0 5.523 4.477 10 10 10h279.957c5.523 0 10-4.477 10-10v-60.322c0-5.523-4.477-10-10-10h-10.426l-.931-18.656 32.48-37.73c23.778-27.622 29.556-37.873 41.215-73.126 8.97-27.122 19.305-61.684 27.609-89.455 5.933-19.842 11.058-36.979 13.252-43.164.011-.032.022-.063.033-.095 5.795-16.869-3.015-30.6-14.714-35.445zm-358.475 317.669h119.978v40.322h-119.978zm259.956 40.322h-119.978v-40.322h119.979v40.322zm94.332-329.087c-2.371 6.695-7.305 23.194-13.547 44.069-8.267 27.647-18.556 62.056-27.436 88.904-10.819 32.713-15.361 40.775-37.384 66.358l-35.088 40.76c-1.674 1.945-2.537 4.459-2.409 7.022l1.08 21.653h-83.14c-5.194-45.034 24.633-73.507 51.096-98.768 10.466-9.99 20.351-19.426 26.514-28.91 2.475-3.808 10.614-16.826 19.231-30.608 8.194-13.105 16.667-26.657 19.047-30.319 1.001-1.54 2.547-2.597 4.354-2.977 1.769-.371 3.559-.042 5.04.931 2.313 1.517 2.544 5.67.688 12.347-6.564 23.616-15.182 47.389-23.644 65.223-2.368 4.99-.242 10.954 4.748 13.321 4.989 2.365 10.954.242 13.321-4.748 8.931-18.823 17.987-43.769 24.844-68.44 2.378-8.555 2.38-15.241 1.042-20.458l36.755-78.687c2.985-6.062 7.353-8.783 11.42-7.1 2.842 1.177 5.449 4.612 3.468 10.427z"/><path d="m235.202 220.4c19.659 0 38.142-7.656 52.043-21.558 3.905-3.905 3.905-10.237 0-14.142s-10.237-3.905-14.142 0c-10.124 10.124-23.583 15.699-37.9 15.699-29.555 0-53.6-24.045-53.6-53.6 0-19.088 10.269-36.875 26.8-46.419 4.783-2.761 6.422-8.877 3.66-13.66-2.761-4.784-8.877-6.422-13.66-3.66-22.699 13.105-36.8 37.529-36.8 63.74-.001 40.584 33.015 73.6 73.599 73.6z"/><path d="m225.202 63.419v83.381c0 5.523 4.477 10 10 10h53.678l27.487 57.889c1.656 3.488 5.172 5.711 9.033 5.711h15c5.523 0 10-4.477 10-10s-4.477-10-10-10h-8.678l-27.487-57.889c-1.656-3.488-5.172-5.71-9.033-5.71h-50v-43.601h43.4c5.523 0 10-4.477 10-10s-4.477-10-10-10h-43.4v-9.781c13.041-4.228 22.5-16.487 22.5-30.919 0-17.92-14.58-32.5-32.5-32.5s-32.5 14.58-32.5 32.5c0 14.432 9.458 26.691 22.5 30.919zm10-43.419c6.893 0 12.5 5.607 12.5 12.5s-5.607 12.5-12.5 12.5-12.5-5.607-12.5-12.5 5.607-12.5 12.5-12.5z"/><path d="m185.817 316.061c-5.523 0-9.996 4.477-9.996 10s4.48 10 10.003 10 10-4.477 10-10-4.477-10-10-10z"/></g></g></svg>