<svg id="Capa_1" enable-background="new 0 0 512 512" height="512" viewBox="0 0 512 512" width="512" xmlns="http://www.w3.org/2000/svg"><g><g><path d="m440.371 7.5h-368.742c-35.417 0-64.129 28.712-64.129 64.129v368.742c0 35.417 28.712 64.129 64.129 64.129h368.742c35.417 0 64.129-28.712 64.129-64.129v-368.742c0-35.417-28.712-64.129-64.129-64.129z" fill="#faf5dc"/><path d="m440.371 464.936h-368.742c-17.709 0-32.065-6.856-32.065-24.565v-368.742c0-17.709 14.356-32.065 32.065-32.065h368.742c17.709 0 32.065 14.356 32.065 32.065v368.742c-.001 17.709-14.356 24.565-32.065 24.565z" fill="#8bb3ea"/><path d="m384.258 384.258h-12.819l-28.229-77.625c-2.302-6.333-8.325-10.552-15.065-10.552h-80.161v-56.113h56.113c8.854 0 16.032-7.179 16.032-16.032 0-8.854-7.178-16.032-16.032-16.032h-56.113v-16.032c0-8.854-7.179-16.032-16.032-16.032-8.854 0-16.032 7.178-16.032 16.032v120.242c0 8.854 7.178 16.032 16.032 16.032h84.964l28.229 77.625c2.302 6.333 8.325 10.552 15.065 10.552h24.048c8.854 0 16.032-7.178 16.032-16.032s-7.178-16.033-16.032-16.033z" fill="#faf5dc"/><circle cx="231.952" cy="119.726" fill="#faf5dc" r="24.048"/><path d="m71.629 472.435c-17.709 0-32.065-14.356-32.065-32.065v-424.221c-19.149 11.093-32.064 31.757-32.064 55.48v368.742c0 35.417 28.712 64.129 64.129 64.129h368.742c23.724 0 44.386-12.915 55.48-32.065z" fill="#f5ebcd"/><path d="m95.677 448.387c-17.709 0-32.065-14.356-32.065-32.065v-375.624c-13.805 3.576-24.048 16.007-24.048 30.931v368.742c0 17.709 14.356 32.065 32.065 32.065h368.742c14.924 0 27.355-10.243 30.931-24.048h-375.625z" fill="#739ad6"/><path d="m300.073 352.194h-8.298c-12.95 19.296-34.887 32.065-59.824 32.065-39.783 0-72.145-32.366-72.145-72.145 0-24.935 12.768-46.874 32.065-59.824v-36.301c-37.612 15.736-64.129 52.868-64.129 96.125 0 57.463 46.75 104.21 104.21 104.21 31.303 0 59.268-14.009 78.373-35.943z" fill="#f5ebcd"/></g><g><path d="m440.371 0h-368.742c-39.496 0-71.629 32.133-71.629 71.629v368.742c0 39.496 32.133 71.629 71.629 71.629h368.742c39.496 0 71.629-32.133 71.629-71.629v-368.742c0-39.496-32.133-71.629-71.629-71.629zm56.629 440.371c0 31.225-25.404 56.629-56.629 56.629h-368.742c-31.225 0-56.629-25.404-56.629-56.629v-368.742c0-31.225 25.404-56.629 56.629-56.629h368.742c31.225 0 56.629 25.404 56.629 56.629z"/><path d="m111.71 464.936h-40.081c-13.545 0-24.564-11.02-24.564-24.564v-368.743c0-13.545 11.02-24.565 24.564-24.565h304.611c4.142 0 7.5-3.358 7.5-7.5s-3.358-7.5-7.5-7.5h-304.611c-21.816 0-39.564 17.749-39.564 39.565v368.742c0 21.816 17.749 39.564 39.564 39.564h40.082c4.142 0 7.5-3.358 7.5-7.5s-3.358-7.499-7.501-7.499z"/><path d="m440.371 32.064h-32.068c-4.142 0-7.5 3.358-7.5 7.5s3.358 7.5 7.5 7.5h32.068c13.545 0 24.564 11.02 24.564 24.565v368.742c0 13.545-11.02 24.564-24.564 24.564h-296.596c-4.142 0-7.5 3.358-7.5 7.5s3.358 7.5 7.5 7.5h296.596c21.816 0 39.564-17.749 39.564-39.564v-368.742c.001-21.816-17.748-39.565-39.564-39.565z"/><path d="m231.952 423.823c30.711 0 59.338-12.207 80.608-34.371 2.868-2.989 2.771-7.736-.218-10.604s-7.737-2.771-10.604.218c-18.415 19.189-43.199 29.757-69.786 29.757-53.326 0-96.71-43.384-96.71-96.71 0-36.194 19.957-69.079 52.082-85.821 3.673-1.914 5.099-6.444 3.185-10.117s-6.443-5.1-10.117-3.185c-37.102 19.336-60.149 57.317-60.149 99.123-.001 61.597 50.111 111.71 111.709 111.71z"/><path d="m191.323 261.827c3.22-2.605 3.719-7.328 1.113-10.548-2.605-3.22-7.328-3.719-10.548-1.113-18.799 15.21-29.582 37.789-29.582 61.947 0 43.917 35.729 79.645 79.645 79.645 24.156 0 46.734-10.781 61.944-29.579 2.606-3.22 2.108-7.943-1.112-10.548s-7.942-2.107-10.548 1.113c-12.349 15.261-30.677 24.014-50.284 24.014-35.646 0-64.645-29-64.645-64.645.001-19.609 8.754-37.937 24.017-50.286z"/><path d="m338.095 408.332c3.367 9.266 12.254 15.491 22.114 15.491h24.049c12.976 0 23.532-10.557 23.532-23.532s-10.557-23.532-23.532-23.532h-7.566l-26.433-72.687c-3.367-9.266-12.254-15.491-22.114-15.491h-72.661v-41.113h48.613c12.976 0 23.532-10.556 23.532-23.532s-10.557-23.532-23.532-23.532h-48.613v-8.532c0-12.976-10.557-23.532-23.532-23.532s-23.532 10.556-23.532 23.532v120.242c0 12.976 10.557 23.532 23.532 23.532h79.711zm-114.676-96.219v-120.242c0-4.705 3.828-8.532 8.532-8.532s8.532 3.828 8.532 8.532v16.032c0 4.142 3.358 7.5 7.5 7.5h56.113c4.705 0 8.532 3.828 8.532 8.532s-3.828 8.532-8.532 8.532h-56.113c-4.142 0-7.5 3.358-7.5 7.5v56.113c0 4.142 3.358 7.5 7.5 7.5h80.161c3.575 0 6.796 2.256 8.017 5.616l28.229 77.625c1.078 2.964 3.895 4.937 7.048 4.937h12.819c4.705 0 8.532 3.828 8.532 8.532 0 4.705-3.828 8.532-8.532 8.532h-24.049c-3.574 0-6.796-2.256-8.017-5.616l-28.229-77.625c-1.078-2.964-3.895-4.937-7.048-4.937h-84.964c-4.703.001-8.531-3.826-8.531-8.531z"/><path d="m231.952 151.274c17.396 0 31.548-14.153 31.548-31.548s-14.152-31.548-31.548-31.548-31.548 14.153-31.548 31.548 14.152 31.548 31.548 31.548zm0-48.097c9.125 0 16.548 7.424 16.548 16.548s-7.423 16.548-16.548 16.548-16.548-7.424-16.548-16.548 7.423-16.548 16.548-16.548z"/></g></g></svg>