<svg id="Layer_1" enable-background="new 0 0 512 512" height="512" viewBox="0 0 512 512" width="512" xmlns="http://www.w3.org/2000/svg"><g><path d="m319.554 411.962c-10.28 1.41-18.51 1.51-25.62.9-24.25-2.11-35.5-12.56-70.54-7.74-45.32 6.23-41.17 30.43-86.49 36.66s-53.42-17.97-98.74-11.73l-5.13-36.5-23.18-165.07c45.32-6.24 49.35 17.96 94.67 11.73s41.17-30.43 86.49-36.66c35.46-4.87 45.71 8.87 70.19 12.11 6.82.89 14.73.98 24.6-.38l28.28 164.81z" fill="#f77a49"/><path d="m319.554 411.962c-10.28 1.41-18.51 1.51-25.62.9l-32.73-197.2c6.82.89 14.73.98 24.6-.38l28.28 164.81z" fill="#de4f42"/><g><path d="m314.085 380.092-152.57-32.693-128.48 46.153 5.13 36.5c45.32-6.24 53.42 17.96 98.74 11.73s41.17-30.43 86.49-36.66c35.04-4.82 46.29 5.63 70.54 7.74 7.11.61 15.34.51 25.62-.9z" fill="#997ab8"/><path d="m319.554 411.962c-10.28 1.41-18.51 1.51-25.62.9l-5.55-33.49c7.08 1.35 15.26 1.87 25.7.72z" fill="#6957a1"/></g><g><path d="m310.424 347.582-139.62-41.132-142.404 54.321 4.634 32.781c45.32-6.23 56.72 17.98 102.04 11.75s41.18-30.43 86.5-36.66c33.97-4.67 44.65 7.75 66.96 11.65 7.45 1.3 16.21 1.65 27.56.09z" fill="#a6dff5"/><path d="m316.094 380.382c-11.35 1.56-20.11 1.21-27.56-.09l-5.44-32.75c7.44 1.26 16.14 1.58 27.33.04z" fill="#54c9eb"/></g><g><path d="m304.134 314.782-133.758-43.712-146.788 56.901 4.812 32.8c45.31-6.23 55.064 17.961 100.384 11.731s41.18-30.43 86.5-36.66c34.4-4.73 44.93 8.08 67.83 11.79 7.26 1.19 15.77 1.45 26.69-.05z" fill="#5bc196"/><path d="m283.114 347.632-5.44-32.75c7.25 1.14 15.7 1.38 26.46-.1l5.67 32.8c-10.92 1.5-19.43 1.24-26.69.05z" fill="#25a077"/></g><g><path d="m297.224 281.982-90.93-24.268-187.36 37.458 4.653 32.799c45.32-6.23 52.967 17.961 98.287 11.731s41.18-30.43 86.5-36.66c35.15-4.83 45.37 8.64 69.33 12.02 6.93.98 15.02 1.12 25.19-.28z" fill="#ffe26f"/><path d="m277.704 315.062-5.44-32.76c6.92.95 14.94 1.06 24.96-.32l5.67 32.8c-10.17 1.4-18.26 1.26-25.19.28z" fill="#ffc54b"/></g><path d="m297.224 281.982c-10.06 1.38-18.08 1.27-24.96.31-24.13-3.33-34.31-16.9-69.57-12.05-45.32 6.23-41.17 30.43-86.49 36.66s-51.95-17.96-97.27-11.73l-4.47-32.8c45.32-6.23 50.13 17.96 95.45 11.73s41.17-30.43 86.49-36.66c35.41-4.87 45.9 8.84 70.42 12.1 6.85.9 14.81.99 24.72-.37z" fill="#ffba4c"/><path d="m272.264 282.292-5.44-32.75c6.85.9 14.81.99 24.72-.37l5.68 32.81c-10.06 1.38-18.079 1.27-24.96.31z" fill="#fb963f"/><g><path d="m432.775 281.952-39.42 39.43-13-13-26.42-26.43c-5.44-5.44-8.17-12.57-8.17-19.71 0-7.13 2.73-14.27 8.17-19.71 10.89-10.89 28.54-10.89 39.42 0 3.79-3.79 8.41-6.27 13.27-7.42h.01c9.1-2.15 19.05.33 26.14 7.42 10.889 10.89 10.889 28.54 0 39.42z" fill="#f77a49"/><path d="m432.775 242.532c10.89 10.89 10.89 28.54 0 39.42l-39.42 39.43-13-13 30.42-30.43c10.89-10.88 10.89-28.53 0-39.42-1.29-1.29-2.68-2.43-4.14-3.42 9.099-2.15 19.049.33 26.14 7.42z" fill="#de4f42"/></g><path d="m497.914 386.392-31.73 31.73-17-17-14.73-14.73c-4.38-4.38-6.57-10.12-6.57-15.86 0-5.75 2.19-11.49 6.57-15.87 8.76-8.76 22.97-8.76 31.73 0 3.48-3.48 7.82-5.58 12.33-6.29 6.85-1.09 14.11 1.01 19.4 6.29 8.76 8.76 8.76 22.97 0 31.73z" fill="#ffba4c"/><path d="m497.914 354.662c8.76 8.76 8.76 22.97 0 31.73l-31.73 31.73-17-17 25.73-25.73c7.32-7.32 8.52-18.45 3.6-27.02 6.85-1.09 14.11 1.01 19.4 6.29z" fill="#fb963f"/><g><path d="m422.104 475.752-28.75 28.75-28.75-28.75c-3.97-3.97-5.95-9.17-5.95-14.38 0-5.2 1.98-10.4 5.95-14.37 7.94-7.94 20.81-7.94 28.75 0 3.85-3.85 8.85-5.83 13.9-5.94 5.36-.13 10.76 1.85 14.85 5.94 7.941 7.94 7.941 20.81 0 28.75z" fill="#a6dff5"/><path d="m422.104 447.002c7.94 7.94 7.94 20.81 0 28.75l-28.75 28.75-14-14 24.75-24.75c6.69-6.69 7.74-16.89 3.15-24.69 5.36-.13 10.76 1.85 14.85 5.94z" fill="#54c9eb"/></g><g><g><path d="m86.992 34.455v86.44l-24.8-31.86-2.45-3.15-24.25 17.01v-79.38l26.7 5.67z" fill="#ffba4c"/><path d="m86.992 34.455v86.44l-24.8-31.86v-59.85z" fill="#fb963f"/></g><g><path d="m185.822 40.645-31.05 101.07-.74-2.47-30.31-101.49 35.32 1.64z" fill="#a6dff5"/><path d="m185.822 40.645-31.05 101.07-.74-2.47 5.01-99.85z" fill="#54c9eb"/></g><g><path d="m290.252 41.545v82.18l-25.31-14.79-8.94-5.23-34.25 20.02v-82.38l43.19.13z" fill="#f77a49"/><path d="m290.252 41.545v82.18l-25.31-14.79v-67.46z" fill="#de4f42"/></g><g><path d="m388.282 37.755-31.05 103.96-1.07-3.49-29.97-97.58 32.69-1.52z" fill="#a6dff5"/><path d="m388.282 37.755-31.05 103.96-1.07-3.49 2.72-99.1z" fill="#54c9eb"/></g><g><path d="m476.522 23.515v79.38l-24.26-17.01-1.5 1.93-25.75 33.08v-86.44l25.75-5.47z" fill="#ffba4c"/><path d="m476.522 23.515v79.38l-24.26-17.01-1.5 1.93v-58.83z" fill="#fb963f"/></g></g></g><g><path d="m269.616 443.487c-3.495-2.226-8.13-1.196-10.354 2.298l-15.305 24.036c-2.225 3.494-1.196 8.13 2.298 10.354 1.249.795 2.643 1.175 4.021 1.175 2.478 0 4.904-1.228 6.333-3.473l15.305-24.036c2.225-3.494 1.196-8.13-2.298-10.354z"/><path d="m293.206 214.014c-.684-3.986-4.403-6.711-8.414-6.162-20.825 2.865-31.989-1.192-43.813-5.486-13.017-4.728-26.476-9.616-50.976-6.247-24.557 3.377-36.312 12.064-46.683 19.728-9.795 7.239-19.048 14.076-39.812 16.931-20.821 2.862-31.955-1.192-43.746-5.484-11.657-4.244-23.669-8.618-43.72-7.035l-1.114-7.886c-.579-4.101-4.371-6.957-8.476-6.377-4.101.58-6.956 4.374-6.377 8.475l41.125 291.075c.529 3.746 3.74 6.452 7.417 6.452.349 0 .703-.024 1.059-.075 4.101-.58 6.956-4.374 6.377-8.476l-9.429-66.739c16.528-1.09 27.253 2.518 38.524 6.309 10.717 3.604 21.713 7.303 37.299 7.303 4.703 0 9.824-.337 15.481-1.115 24.557-3.377 36.312-12.064 46.684-19.729 2.05-1.515 3.986-2.946 6.024-4.35 3.41-2.351 4.27-7.021 1.919-10.431s-7.019-4.27-10.432-1.919c-2.241 1.545-4.369 3.117-6.427 4.638-9.795 7.239-19.048 14.076-39.812 16.931-20.915 2.875-33.078-1.215-45.954-5.545-12.486-4.199-25.352-8.526-45.41-6.983l-3.05-21.59c16.727-1.08 28.204 2.546 40.265 6.357 1.831.579 3.662 1.157 5.51 1.719.728.222 1.463.327 2.187.327 3.215 0 6.188-2.083 7.172-5.318 1.207-3.962-1.028-8.153-4.991-9.359-1.798-.547-3.578-1.11-5.359-1.673-13.194-4.169-26.789-8.464-46.888-6.946l-2.529-17.9c16.668-1.101 27.768 2.521 39.437 6.328 11.015 3.593 22.316 7.281 38.006 7.28 4.74 0 9.881-.336 15.535-1.114 24.557-3.376 36.312-12.064 46.683-19.729 9.795-7.239 19.048-14.076 39.812-16.931 20.784-2.857 31.558 1.182 42.967 5.459 10.822 4.057 22.941 8.6 43.035 7.056l3.079 17.944c-15.856 1-25.127-2.527-34.869-6.232-11.908-4.529-25.403-9.661-49.963-6.287-24.556 3.376-36.312 12.064-46.683 19.729-9.795 7.239-19.048 14.076-39.813 16.931-1.907.262-3.812.474-5.663.63-4.127.347-7.192 3.974-6.845 8.102.329 3.914 3.607 6.872 7.465 6.872.21 0 .423-.009.637-.027 2.114-.178 4.285-.419 6.451-.717 24.557-3.376 36.312-12.064 46.684-19.728 9.795-7.239 19.047-14.076 39.811-16.931s31.364 1.177 42.588 5.446c10.688 4.066 22.656 8.617 42.75 7.066l2.879 16.784c-16.487 1.298-26.719-1.332-37.47-4.095-13.198-3.393-26.847-6.9-50.966-3.585-4.103.564-6.973 4.348-6.409 8.452.564 4.103 4.343 6.971 8.452 6.409 21.2-2.914 32.852.081 45.189 3.252 9.451 2.43 19.13 4.918 32.722 4.918 5.389 0 11.396-.392 18.244-1.333 2.014-.277 3.828-1.359 5.029-2.999s1.685-3.697 1.341-5.7zm-270.272 55.017c16.262-1.072 26.243 2.505 36.731 6.264 3.581 1.284 7.285 2.611 11.267 3.771.7.204 1.406.301 2.101.301 3.249 0 6.243-2.128 7.197-5.404 1.159-3.977-1.126-8.14-5.103-9.298-3.544-1.033-6.875-2.227-10.402-3.49-11.787-4.225-23.934-8.577-43.895-7.035l-2.683-18.988c16.305-1.107 26.144 2.474 36.485 6.239 12.988 4.728 26.417 9.617 50.92 6.249 24.557-3.376 36.312-12.064 46.684-19.728 9.795-7.239 19.047-14.077 39.811-16.932 20.822-2.865 31.99 1.192 43.813 5.486 11.678 4.241 23.711 8.611 43.754 7.034l3.264 19.026c-16.113 1.027-25.982-2.533-36.352-6.272-13.1-4.724-26.647-9.61-51.136-6.241-24.557 3.376-36.312 12.064-46.683 19.728-9.795 7.239-19.048 14.076-39.811 16.931-4.104.564-6.973 4.348-6.409 8.452.517 3.757 3.732 6.479 7.421 6.479.34 0 .685-.023 1.031-.071 24.557-3.376 36.312-12.064 46.683-19.728 9.795-7.239 19.048-14.076 39.811-16.931 20.83-2.865 32.088 1.194 44.005 5.492 11.768 4.243 23.894 8.616 43.99 7.021l3.079 17.944c-16.033 1.014-25.755-2.536-35.968-6.265-12.955-4.73-26.352-9.619-50.856-6.251-24.557 3.376-36.312 12.064-46.683 19.728-9.795 7.239-19.048 14.076-39.812 16.931-20.884 2.873-32.674-1.207-45.159-5.524-12.139-4.198-24.648-8.523-44.566-7.018zm241.607 65.655c-12.063-4.522-25.737-9.647-50.275-6.274-24.557 3.376-36.312 12.064-46.683 19.729-9.796 7.239-19.048 14.076-39.812 16.931-20.951 2.882-33.529-1.222-46.845-5.567-12.841-4.189-26.075-8.506-46.193-6.959l-2.532-17.921c16.455-1.057 27.186 2.54 38.463 6.32 10.748 3.604 21.775 7.301 37.371 7.301 4.706 0 9.831-.337 15.487-1.115 24.557-3.376 36.312-12.064 46.683-19.729 9.795-7.239 19.048-14.076 39.812-16.931 4.103-.564 6.973-4.348 6.409-8.452s-4.348-6.971-8.452-6.409c-24.557 3.376-36.312 12.064-46.683 19.728-9.795 7.239-19.048 14.076-39.812 16.931-20.92 2.878-33.125-1.215-46.047-5.547-12.49-4.187-25.361-8.502-45.335-6.993l-2.53-17.908c16.317-1.046 26.673 2.535 37.558 6.3 10.453 3.615 21.176 7.325 36.671 7.324 4.67 0 9.775-.337 15.434-1.115 24.557-3.376 36.312-12.064 46.683-19.728 9.795-7.239 19.048-14.076 39.812-16.931 20.818-2.862 31.916 1.191 43.669 5.481 11.628 4.245 23.611 8.619 43.662 7.036l3.078 17.943c-15.952 1-25.526-2.539-35.583-6.258-3.18-1.176-6.468-2.392-9.981-3.48-3.955-1.227-8.158.986-9.384 4.943-1.227 3.957.987 8.158 4.943 9.384 3.129.97 6.088 2.064 9.221 3.222 9.455 3.496 19.885 7.352 35.49 7.352 2.478 0 5.087-.097 7.843-.309l3.079 17.947c-15.898.998-25.321-2.535-35.221-6.246z"/><path d="m393.361 328.875c1.919 0 3.839-.732 5.304-2.197l39.423-39.422c6.682-6.682 10.361-15.565 10.361-25.015s-3.68-18.333-10.361-25.014c-6.682-6.682-15.565-10.362-25.014-10.362-7.126 0-13.931 2.093-19.712 5.988-5.78-3.895-12.585-5.988-19.711-5.988-9.449 0-18.333 3.68-25.015 10.362-13.792 13.793-13.792 36.236 0 50.029l39.423 39.422c1.463 1.465 3.383 2.197 5.302 2.197zm-34.119-81.042c3.849-3.849 8.966-5.968 14.408-5.968s10.56 2.12 14.407 5.968c1.406 1.406 3.314 2.197 5.304 2.197s3.896-.79 5.304-2.197c3.849-3.849 8.966-5.968 14.408-5.968s10.56 2.12 14.407 5.968h.001c3.849 3.849 5.968 8.965 5.968 14.408 0 5.442-2.119 10.56-5.969 14.408l-34.119 34.119-34.119-34.119c-7.945-7.944-7.945-20.871 0-28.816z"/><path d="m482.05 340.591c-5.698 0-11.153 1.581-15.864 4.536-4.71-2.955-10.166-4.536-15.863-4.536-7.996 0-15.514 3.114-21.168 8.767-11.671 11.672-11.67 30.663 0 42.334l31.727 31.727c1.465 1.464 3.385 2.197 5.304 2.197s3.839-.732 5.304-2.197l31.727-31.727c5.653-5.654 8.767-13.171 8.767-21.167s-3.114-15.513-8.767-21.167c-5.654-5.654-13.171-8.767-21.167-8.767zm10.56 40.495-26.424 26.424-26.424-26.424c-5.823-5.823-5.823-15.298-.001-21.122 2.821-2.821 6.572-4.374 10.562-4.374 3.989 0 7.739 1.553 10.56 4.374 1.407 1.407 3.314 2.197 5.304 2.197 1.989 0 3.896-.79 5.303-2.197 2.821-2.821 6.572-4.374 10.561-4.374s7.739 1.553 10.56 4.374h.001c2.82 2.821 4.374 6.571 4.374 10.561s-1.555 7.74-4.376 10.561z"/><path d="m427.414 441.695c-9.216-9.217-23.348-10.604-34.046-4.159-4.295-2.602-9.231-3.992-14.383-3.992-7.433 0-14.422 2.895-19.679 8.151-5.256 5.256-8.15 12.245-8.15 19.679s2.895 14.422 8.15 19.678l28.75 28.75c1.407 1.407 3.314 2.197 5.304 2.197s3.896-.79 5.304-2.197l28.751-28.75c10.849-10.851 10.849-28.506-.001-39.357.001 0 .001 0 0 0zm-10.606 28.75-23.447 23.447-23.447-23.447c-2.423-2.423-3.757-5.645-3.757-9.072s1.334-6.649 3.757-9.072c2.424-2.423 5.645-3.758 9.072-3.758s6.648 1.334 9.071 3.757c1.407 1.406 3.314 2.197 5.304 2.197s3.896-.79 5.303-2.196c5.004-5.004 13.142-5.002 18.145 0 5.001 5.004 5.001 13.143-.001 18.144z"/><circle cx="369.823" cy="378.594" r="7.496"/><circle cx="186.385" cy="480.493" r="7.496"/><path d="m446.24 161.15c-3.736 1.789-5.315 6.267-3.526 10.003l12.304 25.705c1.288 2.691 3.973 4.264 6.77 4.264 1.086 0 2.188-.237 3.233-.737 3.736-1.789 5.315-6.267 3.526-10.003l-12.304-25.705c-1.789-3.737-6.268-5.314-10.003-3.527z"/><path d="m247.015 151.172c-3.585-2.071-8.173-.845-10.246 2.743-2.072 3.586-.844 8.174 2.743 10.246l24.667 14.25c1.182.683 2.471 1.007 3.745 1.007 2.591 0 5.112-1.345 6.501-3.75 2.072-3.586.844-8.174-2.743-10.246z"/><path d="m34.979 147.771-15.305 24.036c-2.225 3.494-1.196 8.13 2.298 10.354 1.249.795 2.643 1.175 4.021 1.175 2.478 0 4.904-1.228 6.333-3.473l15.305-24.036c2.225-3.494 1.196-8.13-2.298-10.354-3.495-2.225-8.13-1.196-10.354 2.298z"/><path d="m27.985 30.81v72.09c0 2.798 1.557 5.363 4.04 6.654 2.48 1.291 5.476 1.093 7.767-.514l18.413-12.915 22.871 29.381c1.449 1.861 3.65 2.894 5.92 2.894.813 0 1.635-.132 2.434-.407 3.03-1.041 5.064-3.89 5.064-7.094v-78.058c7.278.743 15.109 1.432 23.534 2.06l29.555 98.968c.946 3.167 3.853 5.341 7.157 5.354h.03c3.292 0 6.202-2.148 7.169-5.298l29.371-95.616c7.362.181 15.005.33 22.938.446v74.97c0 2.687 1.437 5.167 3.767 6.505 2.33 1.337 5.198 1.326 7.517-.029l30.468-17.803 30.469 17.802c1.169.683 2.476 1.024 3.784 1.024 1.288 0 2.577-.332 3.733-.995 2.33-1.337 3.767-3.818 3.767-6.505v-74.97c7.934-.116 15.576-.265 22.938-.446l29.372 95.616c.967 3.15 3.876 5.298 7.169 5.298h.029c3.305-.013 6.212-2.188 7.157-5.354l29.555-98.968c8.425-.628 16.256-1.317 23.535-2.06v78.058c0 3.204 2.035 6.053 5.064 7.094.8.274 1.621.407 2.435.407 2.27 0 4.471-1.033 5.919-2.894l22.871-29.381 18.412 12.915c2.289 1.606 5.284 1.806 7.767.514 2.482-1.291 4.04-3.856 4.04-6.654v-72.089c21.611-7.09 27.019-15.212 27.925-22.367.521-4.109-2.39-7.862-6.499-8.382-4.1-.519-7.862 2.389-8.382 6.499-.011.081-2.068 8.236-39.658 15.511-41.059 7.945-108.819 11.974-201.402 11.974s-160.343-4.029-201.4-11.975c-37.591-7.276-39.649-15.431-39.659-15.511-.52-4.11-4.279-7.016-8.382-6.5-4.109.521-7.019 4.273-6.499 8.383.905 7.155 6.314 15.277 27.925 22.368zm404.522 10.328c14.678-1.848 26.689-3.947 36.508-6.215v53.555l-12.447-8.73c-3.271-2.295-7.77-1.621-10.225 1.533l-13.836 17.774zm-54.509 4.834-20.868 69.879-20.884-67.986c15.178-.492 29.06-1.129 41.752-1.893zm-148.751 2.958c8.594.076 17.508.116 26.753.116s18.159-.039 26.753-.116v61.727l-22.97-13.42c-2.337-1.366-5.229-1.366-7.566 0l-22.97 13.42zm-53.494-1.064-20.884 67.985-20.867-69.879c12.692.764 26.573 1.401 41.751 1.894zm-132.768-12.943c9.819 2.268 21.83 4.367 36.508 6.216v57.916l-13.835-17.775c-2.455-3.153-6.953-3.83-10.225-1.533l-12.448 8.731z"/><path d="m94.744 186.724c0 4.14 3.356 7.496 7.496 7.496s7.496-3.356 7.496-7.496-3.356-7.496-7.496-7.496-7.496 3.356-7.496 7.496z"/><path d="m367.798 186.785c0 4.14 3.356 7.496 7.496 7.496s7.496-3.356 7.496-7.496-3.356-7.496-7.496-7.496-7.496 3.356-7.496 7.496z"/></g></svg>