<svg id="Layer_1" enable-background="new 0 0 256 256" viewBox="0 0 256 256" xmlns="http://www.w3.org/2000/svg"><g><g><g><g><g><path d="m238.055 61.704h-220.121c2.844-5.426 6.542-10.538 11.096-15.091 5.321-5.321 11.375-9.491 17.865-12.439 22.733-10.433 50.49-6.298 69.227 12.439l11.881 11.881 11.864-11.881c12.02-12.021 27.775-18.057 43.529-18.057 15.772 0 31.526 6.036 43.564 18.057 4.57 4.553 8.268 9.665 11.095 15.091z" fill="#ff4a73"/></g><g><path d="m244.824 94.852h-233.642c-.872-11.323 1.396-22.837 6.752-33.148h220.121c5.373 10.311 7.623 21.825 6.769 33.148z" fill="#ffa31d"/></g><g><path d="m244.824 94.852c-.907 11.794-5.164 23.361-12.823 33.148h-208.013c-7.642-9.787-11.898-21.354-12.806-33.148z" fill="#f9d335"/></g><g><path d="m232.001 128c-1.535 1.989-3.228 3.891-5.042 5.705l-11.881 11.864-15.579 15.58h-142.991l-18.755-18.755-8.723-8.688c-1.814-1.814-3.507-3.716-5.042-5.705h208.013z" fill="#44c7b6"/></g><g><path d="m199.498 161.148-33.166 33.148h-76.676l-33.148-33.148z" fill="#3193f3"/></g><g><path d="m166.332 194.296-29.449 29.449c-2.46 2.477-5.67 3.699-8.88 3.699-3.228 0-6.455-1.221-8.898-3.699l-29.449-29.449z" fill="#a442bc"/></g></g></g><g fill="#5f266d"><path d="m241.606 59.864c-.001-.003-.002-.006-.004-.008-3.09-5.931-7.065-11.339-11.817-16.074-12.416-12.398-28.892-19.227-46.391-19.227-17.494 0-33.957 6.829-46.358 19.231l-9.035 9.048-9.051-9.051c-19.302-19.301-48.929-24.623-73.71-13.251-7.037 3.197-13.442 7.656-19.038 13.252-4.729 4.729-8.703 10.133-11.811 16.063-.001.002-.002.005-.003.007s-.003.004-.004.006c-5.643 10.863-8.129 23.063-7.192 35.282 0 .005-.001.011 0 .016.996 12.923 5.708 25.12 13.624 35.275.001.002.002.003.003.005.003.003.005.007.008.01.003.004.007.009.01.013.001.001.002.002.003.003 1.555 2.021 3.358 4.061 5.366 6.069l27.475 27.445 33.14 33.139c.002.002.004.005.006.007l29.429 29.429c3.109 3.154 7.281 4.891 11.747 4.891 4.432 0 8.594-1.733 11.708-4.87l29.441-29.441c.002-.002.004-.003.005-.004l33.168-33.148c.001-.001.002-.001.003-.002l27.461-27.45c2-2.001 3.802-4.039 5.357-6.059.001-.002.003-.003.005-.005.005-.007.01-.014.015-.021.002-.002.003-.004.005-.006.001-.001.001-.002.002-.003 7.926-10.142 12.64-22.328 13.632-35.245.001-.012.005-.024.006-.036.927-12.26-1.564-24.462-7.205-35.29zm-98.912-10.423c10.889-10.889 25.344-16.886 40.7-16.886 15.364 0 29.832 5.998 40.738 16.888.001.001.002.002.003.003 2.552 2.542 4.848 5.304 6.866 8.257h-96.558zm-110.836 0c4.916-4.916 10.531-8.827 16.705-11.632 21.768-9.991 47.781-5.315 64.73 11.633l8.263 8.262h-96.557c2.023-2.956 4.317-5.721 6.859-8.263zm102.186 171.486c-1.611 1.623-3.757 2.517-6.041 2.517-2.307 0-4.456-.89-6.069-2.527l-22.618-22.617h57.355zm55.795-55.777-25.162 25.146h-73.364l-25.146-25.146zm-131.672-8-25.177-25.15h190.012l-25.159 25.15zm-32.184-33.15c-5.413-7.437-8.935-16.03-10.322-25.148h224.681c-1.382 9.122-4.907 17.714-10.333 25.148zm-10.979-33.15c-.113-8.686 1.735-17.274 5.416-25.146h215.151c3.679 7.847 5.53 16.436 5.425 25.146z"/><path d="m225.75 74.278h-2.25c-2.209 0-4 1.791-4 4s1.791 4 4 4h2.25c2.209 0 4-1.791 4-4s-1.791-4-4-4z"/><path d="m208.5 74.278h-20c-2.209 0-4 1.791-4 4s1.791 4 4 4h20c2.209 0 4-1.791 4-4s-1.791-4-4-4z"/></g></g></g></svg>