<?xml version="1.0" encoding="iso-8859-1"?>
<!-- Generator: Adobe Illustrator 19.0.0, SVG Export Plug-In . SVG Version: 6.00 Build 0)  -->
<svg xmlns="http://www.w3.org/2000/svg" xmlns:xlink="http://www.w3.org/1999/xlink" version="1.1" id="Capa_1" x="0px" y="0px" viewBox="0 0 512 512" style="enable-background:new 0 0 512 512;" xml:space="preserve" width="512" height="512">
<g>
	<path style="fill:#DBEAFF;" d="M477.703,128c-18.528-32.092-68.599-40.488-132.068-27.252C325.364,39.165,293.056,0,256,0   s-69.364,39.165-89.635,100.748C102.897,87.512,52.825,95.908,34.297,128c-18.528,32.091-0.764,79.653,42.433,128   C33.533,304.347,15.77,351.909,34.297,384s68.6,40.488,132.068,27.251C186.636,472.835,218.944,512,256,512   s69.364-39.165,89.635-100.749c63.468,13.236,113.54,4.84,132.068-27.251S478.467,304.347,435.27,256   C478.467,207.653,496.231,160.091,477.703,128z M463.846,136c14.645,25.365-2.144,65.922-39.707,108.132   c-16.856-17.244-36.806-34.43-59.416-50.904c-2.962-27.818-7.87-53.688-14.376-76.908C405.684,104.896,449.202,110.635,463.846,136   z M304,339.138c-16.003,9.239-32.09,17.47-48,24.727c-15.91-7.256-31.997-15.487-48-24.727s-31.174-19.055-45.414-29.206   C160.916,292.526,160,274.479,160,256s0.916-36.526,2.586-53.933c14.239-10.15,29.411-19.966,45.414-29.206   c16.003-9.239,32.09-17.47,48-24.727c15.91,7.256,31.997,15.487,48,24.727c16.002,9.239,31.174,19.055,45.414,29.206   C351.085,219.474,352,237.522,352,256s-0.916,36.526-2.586,53.933C335.174,320.083,320.003,329.899,304,339.138z M346.941,331.211   c-2.979,21.739-7.188,42.181-12.424,60.786c-18.729-4.768-38.538-11.343-58.853-19.633c12.036-5.9,24.172-12.346,36.335-19.368   S335.814,338.684,346.941,331.211z M236.335,372.363c-20.315,8.29-40.124,14.865-58.853,19.633   c-5.235-18.604-9.445-39.047-12.424-60.786c11.127,7.474,22.778,14.762,34.941,21.784S224.3,366.463,236.335,372.363z    M145.394,297.151c-17.337-13.448-32.935-27.315-46.429-41.152c13.494-13.836,29.093-27.703,46.429-41.151   C144.485,228.221,144,241.955,144,256C144,270.045,144.485,283.778,145.394,297.151z M165.059,180.789   c2.979-21.738,7.188-42.181,12.424-60.785c18.73,4.768,38.538,11.343,58.853,19.633c-12.036,5.9-24.172,12.346-36.335,19.368   S176.186,173.315,165.059,180.789z M275.665,139.637c20.315-8.29,40.124-14.865,58.853-19.633   c5.235,18.604,9.445,39.047,12.424,60.785c-11.127-7.474-22.778-14.761-34.941-21.784S287.7,145.537,275.665,139.637z    M366.606,214.848c17.336,13.448,32.935,27.315,46.429,41.151c-13.494,13.836-29.092,27.704-46.429,41.152   C367.515,283.778,368,270.045,368,256C368,241.955,367.515,228.221,366.606,214.848z M256,16c29.289,0,56.019,34.817,73.792,88.453   c-23.362,5.976-48.22,14.661-73.792,26.004c-25.572-11.344-50.43-20.029-73.792-26.004C199.981,50.817,226.711,16,256,16z    M48.154,136c14.645-25.365,58.163-31.104,113.499-19.679c-6.506,23.22-11.414,49.09-14.376,76.908   c-22.61,16.474-42.56,33.66-59.416,50.904C50.297,201.922,33.509,161.365,48.154,136z M48.154,376   c-14.645-25.365,2.144-65.922,39.707-108.133c16.856,17.244,36.806,34.43,59.416,50.904c2.961,27.818,7.87,53.688,14.376,76.908   C106.316,407.105,62.798,401.365,48.154,376z M256,496c-29.289,0-56.019-34.818-73.793-88.454   c23.362-5.976,48.221-14.66,73.793-26.004c25.572,11.344,50.431,20.029,73.792,26.004C312.019,461.182,285.289,496,256,496z    M463.846,376c-14.645,25.365-58.163,31.104-113.499,19.679c6.506-23.22,11.415-49.09,14.376-76.908   c22.61-16.474,42.56-33.66,59.416-50.904C461.703,310.078,478.491,350.635,463.846,376z"/>
	<path style="fill:#C3DDFF;" d="M364.723,318.771c22.471-16.373,42.626-33.767,59.416-50.904c0.29-4.04,0.289-7.753,0.289-11.867   c0-4.114,0.001-7.827-0.289-11.868c-16.79-17.137-36.945-34.531-59.416-50.904c-2.954-27.747-7.895-53.734-14.376-76.908   c-6.653-4.511-13.27-8.33-20.555-11.868c-23.242,5.972-48.371,14.728-73.792,26.004c-25.421-11.277-50.55-20.032-73.792-26.004   c-7.286,3.538-13.902,7.357-20.555,11.868c-6.481,23.174-11.422,49.161-14.376,76.908c-22.471,16.373-42.626,33.767-59.416,50.904   c-0.29,4.041-0.289,7.753-0.289,11.868c0,4.114-0.001,7.827,0.289,11.867c16.79,17.137,36.945,34.531,59.416,50.904   c2.954,27.747,7.895,53.734,14.376,76.908c6.652,4.51,13.269,8.331,20.555,11.868c23.242-5.972,48.372-14.727,73.793-26.004   c25.421,11.277,50.551,20.032,73.792,26.004c7.286-3.537,13.902-7.357,20.555-11.868   C356.829,372.505,361.77,346.518,364.723,318.771z M366.606,214.848c17.336,13.448,32.935,27.315,46.429,41.151   c-13.494,13.836-29.092,27.704-46.429,41.152C367.515,283.778,368,270.045,368,256C368,241.955,367.515,228.221,366.606,214.848z    M145.394,297.151c-17.337-13.448-32.935-27.315-46.429-41.152c13.494-13.836,29.093-27.703,46.429-41.151   C144.485,228.221,144,241.955,144,256C144,270.045,144.485,283.778,145.394,297.151z M334.518,120.003   c5.235,18.604,9.445,39.047,12.424,60.785c-11.127-7.474-22.778-14.761-34.941-21.784s-24.3-13.468-36.335-19.368   C295.98,131.347,315.788,124.772,334.518,120.003z M177.482,120.003c18.73,4.768,38.538,11.343,58.853,19.633   c-12.036,5.9-24.172,12.346-36.335,19.368s-23.814,14.31-34.941,21.784C168.037,159.05,172.247,138.608,177.482,120.003z    M177.482,391.996c-5.235-18.604-9.445-39.047-12.424-60.786c11.127,7.474,22.778,14.762,34.941,21.784s24.3,13.468,36.335,19.368   C216.021,380.653,196.212,387.228,177.482,391.996z M208,339.138c-16.003-9.239-31.174-19.055-45.414-29.206   C160.916,292.526,160,274.479,160,256s0.916-36.526,2.586-53.933c14.239-10.15,29.411-19.966,45.414-29.206   c16.003-9.239,32.09-17.47,48-24.727c15.91,7.256,31.997,15.487,48,24.727c16.002,9.239,31.174,19.055,45.414,29.206   C351.085,219.474,352,237.522,352,256s-0.916,36.526-2.586,53.933c-14.239,10.15-29.411,19.966-45.414,29.206   s-32.09,17.47-48,24.727C240.09,356.608,224.003,348.378,208,339.138z M334.518,391.996c-18.729-4.768-38.538-11.343-58.853-19.633   c12.036-5.9,24.172-12.346,36.335-19.368s23.814-14.311,34.941-21.784C343.963,352.949,339.753,373.392,334.518,391.996z"/>
	<path style="fill:#6E4848;" d="M256,112c-39.765,0-72,32.235-72,72v136h144V184C328,144.235,295.765,112,256,112z"/>
	<path style="fill:#E2A975;" d="M321.309,305.704l-31.611-13.548c-5.883-2.521-9.697-8.306-9.697-14.706V248h-48v29.45   c0,6.4-3.814,12.185-9.697,14.706l-31.611,13.548c-6.355,2.724-11.069,7.982-13.278,14.28c9.86,6.57,19.965,13.022,30.587,19.155   c16.003,9.239,32.09,17.47,48,24.727c15.91-7.256,31.997-15.487,48-24.727c10.622-6.132,20.727-12.585,30.587-19.155   C332.378,313.686,327.664,308.427,321.309,305.704z"/>
	<path style="fill:#8BB3EA;" d="M321.309,305.704l-13.086-5.608C300.139,321.083,279.836,336,256,336s-44.139-14.917-52.222-35.905   l-13.086,5.608c-6.355,2.724-11.069,7.982-13.278,14.28c9.86,6.57,19.965,13.022,30.587,19.155c16.003,9.239,32.09,17.47,48,24.727   c15.91-7.256,31.997-15.487,48-24.727c10.622-6.132,20.727-12.585,30.587-19.155C332.378,313.686,327.664,308.427,321.309,305.704z   "/>
	<path style="fill:#D19A6E;" d="M232,275.304c7.417,3.005,15.506,4.696,24,4.696c8.494,0,16.583-1.691,24-4.696V248h-48V275.304z"/>
	<path style="fill:#ECBD83;" d="M208,152v64c0,26.51,21.49,48,48,48s48-21.49,48-48v-64H208z"/>
	<path style="fill:#E2A975;" d="M256,264c2.732,0,5.664-0.267,8.271-0.706C241.578,259.478,224,239.778,224,216v-12.759   c0-7.123,3.164-13.877,8.636-18.437L272,152h-64v64C208,242.51,229.49,264,256,264z"/>
	<path style="fill:#6E4848;" d="M232,208c-1.039,0-2.078-0.242-3.039-0.641c-1.039-0.398-1.844-0.961-2.641-1.68   c-0.719-0.805-1.281-1.68-1.68-2.641S224,201.039,224,200s0.242-2.078,0.641-3.039c0.398-1.039,0.961-1.922,1.68-2.641   c1.836-1.844,4.641-2.719,7.195-2.164c0.563,0.086,1.039,0.242,1.523,0.484c0.477,0.156,0.961,0.398,1.359,0.719   c0.477,0.242,0.883,0.641,1.281,0.961c0.719,0.719,1.281,1.602,1.68,2.641c0.398,0.961,0.641,2,0.641,3.039   s-0.242,2.078-0.641,3.039s-0.961,1.836-1.68,2.641c-0.805,0.719-1.68,1.281-2.641,1.68S233.039,208,232,208z"/>
	<path style="fill:#6E4848;" d="M280,208c-1.039,0-2.078-0.242-3.039-0.641c-1.039-0.398-1.844-0.961-2.641-1.68   c-0.719-0.805-1.281-1.68-1.68-2.641S272,201.039,272,200s0.242-2.078,0.641-3.039c0.398-1.039,0.961-1.922,1.68-2.641   c0.398-0.32,0.797-0.719,1.195-0.961c0.484-0.32,0.961-0.563,1.445-0.719c0.477-0.242,0.961-0.398,1.438-0.484   c1.039-0.234,2.156-0.234,3.117,0c0.563,0.086,1.039,0.242,1.523,0.484c0.477,0.156,0.961,0.398,1.359,0.719   c0.477,0.242,0.883,0.641,1.281,0.961c0.719,0.719,1.281,1.602,1.68,2.641c0.398,0.961,0.641,2,0.641,3.039   s-0.242,2.078-0.641,3.039s-0.961,1.836-1.68,2.641c-0.805,0.719-1.68,1.281-2.641,1.68S281.039,208,280,208z"/>
	<path style="fill:#D19A6E;" d="M255.852,242.453c-9.078,0-17.375-3.508-22.18-9.391c-2.797-3.422-2.289-8.461,1.133-11.258   c3.422-2.805,8.461-2.289,11.258,1.133c1.43,1.75,5.008,3.516,9.789,3.516c4.773,0,8.359-1.773,9.797-3.523   c2.789-3.414,7.836-3.922,11.258-1.117c3.414,2.797,3.914,7.844,1.117,11.258C273.211,238.945,264.922,242.453,255.852,242.453z"/>
	<path style="fill:#785353;" d="M328,208c-32-8-88-48-88-48l-56,48v-24c0-39.764,32.235-72,72-72h0c39.764,0,72,32.235,72,72V208z"/>
	<path style="fill:#966A5B;" d="M227.488,117.865c17.165,19.166,52.693,53.364,100.512,71.182V184c0-39.765-32.235-72-72-72   C245.875,112,236.23,114.092,227.488,117.865z"/>
</g>















</svg>
