<?xml version="1.0" encoding="iso-8859-1"?>
<!-- Generator: Adobe Illustrator 19.0.0, SVG Export Plug-In . SVG Version: 6.00 Build 0)  -->
<svg xmlns="http://www.w3.org/2000/svg" xmlns:xlink="http://www.w3.org/1999/xlink" version="1.1" id="Capa_1" x="0px" y="0px" viewBox="0 0 512 512" style="enable-background:new 0 0 512 512;" xml:space="preserve" width="512" height="512">
<g>
	<g>
		<g>
			<path style="fill:#DBEAFF;" d="M173.561,376.895c8.211-1.901,16.493,2.88,18.952,10.941l2.185,7.162     c18.013,59.033,43.768,85.453,61.303,85.453s43.29-26.42,61.303-85.453l2.185-7.162c2.459-8.062,10.74-12.843,18.952-10.941     l7.288,1.688c60.105,13.903,95.88,4.83,104.656-10.357c8.76-15.187-1.245-50.704-43.361-95.818l-5.104-5.467     c-5.752-6.16-5.752-15.722,0-21.883l5.104-5.467c42.116-45.114,52.121-80.631,43.361-95.818     c-8.768-15.179-44.551-24.26-104.656-10.357l-7.288,1.688c-8.211,1.901-16.493-2.88-18.952-10.941l-2.185-7.162     C299.29,57.969,273.535,31.548,256,31.548s-43.29,26.42-61.303,85.453l-2.185,7.162c-2.459,8.062-10.74,12.843-18.952,10.941     l-7.288-1.688c-60.121-13.911-95.888-4.846-104.656,10.357c-8.76,15.187,1.245,50.704,43.361,95.818l5.104,5.467     c5.752,6.16,5.752,15.722,0,21.883l-5.104,5.467c-42.116,45.114-52.12,80.631-43.361,95.818     c8.768,15.187,44.551,24.268,104.656,10.357L173.561,376.895z"/>
		</g>
		<path style="fill:#6E4848;" d="M256,111.71c-39.845,0-72.145,32.3-72.145,72.145v136.274h144.29V183.855    C328.145,144.01,295.845,111.71,256,111.71z"/>
		<path style="fill:#E2A975;" d="M321.44,305.804l-31.675-13.575c-5.895-2.526-9.717-8.322-9.717-14.736v-29.509h-48.097v29.509    c0,6.413-3.822,12.21-9.717,14.736l-31.675,13.575c-6.368,2.729-11.091,15.28-13.305,21.59    c9.88,6.583,20.006,13.049,30.649,19.193c16.035,9.258,32.155,17.505,48.097,24.776c15.942-7.271,32.062-15.519,48.097-24.776    c10.643-6.145,20.769-12.61,30.649-19.193C332.531,321.084,327.809,308.533,321.44,305.804z"/>
		<path style="fill:#8BB3EA;" d="M321.44,305.804l-13.113-5.62c-8.1,21.03-28.444,35.977-52.327,35.977    s-44.228-14.948-52.327-35.977l-13.113,5.62c-6.368,2.729-11.091,15.28-13.305,21.59c9.88,6.583,20.006,13.049,30.649,19.193    c16.035,9.258,32.155,17.505,48.097,24.776c15.942-7.271,32.062-15.519,48.097-24.776c10.643-6.145,20.769-12.61,30.649-19.193    C332.531,321.084,327.809,308.533,321.44,305.804z"/>
		<path style="fill:#D19A6E;" d="M231.952,280.019c7.431,3.011,15.537,4.705,24.048,4.705s16.617-1.694,24.048-4.705V252.66h-48.097    V280.019z"/>
		<path style="fill:#ECBD83;" d="M207.903,151.79v64.129c0,26.563,21.534,48.097,48.097,48.097s48.097-21.534,48.097-48.097V151.79    H207.903z"/>
		<path style="fill:#E2A975;" d="M250.018,263.65c10.831,1.323,21.022-1.01,29.601-5.86l-14.281-2.402    c-19.272-3.241-33.386-19.926-33.386-39.469v-12.785c0-4.758,2.113-9.27,5.769-12.316l39.443-32.87l7.39-6.158h-76.65l0,62.347    C207.903,238.732,225.606,260.669,250.018,263.65z"/>
		<path style="fill:#785353;" d="M328.145,207.903c-32.065-8.016-88.177-48.097-88.177-48.097l-56.113,48.097v-24.048    c0-39.845,32.3-72.145,72.145-72.145h0c39.845,0,72.145,32.3,72.145,72.145V207.903z"/>
		<path style="fill:#966A5B;" d="M227.45,117.605c17.2,19.204,52.78,53.453,100.695,71.307v-5.057    c0-39.845-32.3-72.145-72.145-72.145C245.854,111.71,236.209,113.825,227.45,117.605z"/>
	</g>
	<g>
		<path d="M434.813,256.013c5.816-6.486,11.221-13.001,16.176-19.516c32.753-43.073,42.24-81.605,26.714-108.497    c-11.63-20.143-36.058-31.53-70.645-32.931c-18.404-0.745-39.241,1.342-61.69,6.085c-5.253-16.116-11.324-30.799-18.099-43.593    C307.326,19.905,282.682,0,256,0c-35.922,0-68.398,36.826-89.392,101.149c-22.417-4.735-43.227-6.821-61.61-6.082    C70.381,96.458,45.934,107.846,34.297,128c-15.526,26.892-6.039,65.423,26.714,108.497c4.954,6.516,10.36,13.031,16.176,19.516    c-8.071,8.989-15.329,18.004-21.648,26.951C27.305,322.941,19.762,358.823,34.297,384c12.528,21.7,39.76,33.084,78.015,33.083    c9.152,0,18.94-0.652,29.303-1.97c8.115-1.032,16.454-2.454,24.973-4.247c2.707,8.273,5.645,16.206,8.808,23.75    C196.323,484.518,224.948,512,256,512s59.677-27.482,80.604-77.384c3.163-7.543,6.101-15.476,8.808-23.75    c8.519,1.792,16.858,3.215,24.973,4.247c10.366,1.318,20.148,1.97,29.303,1.97c38.25-0.001,65.487-11.385,78.015-33.083    c14.536-25.177,6.992-61.059-21.242-101.036C450.142,274.017,442.883,265.002,434.813,256.013z M406.451,110.057    c20.353,0.824,46.982,5.907,58.261,25.443c12.131,21.012,2.777,54.515-25.664,91.917c-4.465,5.872-9.324,11.746-14.53,17.601    c-17.254-17.7-37.557-35.143-60.103-51.604c-2.976-27.718-7.98-54.085-14.68-77.865    C370.454,111.255,389.598,109.378,406.451,110.057z M367.388,236.211c-0.135-4.14-3.599-7.376-7.741-7.251    c-4.14,0.135-7.386,3.601-7.251,7.741c0.208,6.372,0.313,12.865,0.313,19.299c0,18.537-0.856,36.749-2.52,54.381    c-2.879,2.045-5.799,4.072-8.749,6.084c-1.367-3.469-3.326-6.669-5.796-9.449V191.642c30.195,20.069,56.997,42.053,78.658,64.37    c-14.073,14.518-30.25,28.814-48.093,42.526c0.99-13.925,1.499-28.141,1.499-42.538    C367.709,249.404,367.602,242.746,367.388,236.211z M159.291,256c0-18.554,0.852-36.706,2.525-54.358    c4.752-3.38,9.599-6.716,14.54-10v115.374c-2.469,2.78-4.427,5.98-5.794,9.45c-2.951-2.012-5.871-4.039-8.75-6.085    C160.146,292.749,159.291,274.537,159.291,256z M145.789,298.538c-17.842-13.712-34.02-28.009-48.093-42.526    c14.031-14.456,30.214-28.773,48.086-42.52c-0.987,13.912-1.492,28.094-1.492,42.508    C144.291,270.397,144.8,284.613,145.789,298.538z M256,119.209c35.646,0,64.645,29,64.645,64.646v13.789    c-30.99-11.708-75.821-43.586-76.318-43.941c-2.809-2.005-6.621-1.836-9.24,0.409l-43.732,37.484v-7.742    C191.355,148.209,220.354,119.209,256,119.209z M334.921,173.272c-2.473-18.531-11.334-35.059-24.299-47.3    c8.339-2.675,16.527-5.044,24.509-7.06c5.422,19.101,9.775,40.238,12.79,62.904C343.654,178.927,339.317,176.079,334.921,173.272z     M191.355,211.353l9.048-7.756v12.322c0,18.947,9.533,35.702,24.048,45.743v15.83c0,3.418-2.03,6.497-5.171,7.843l-27.926,11.968    V211.353z M280.095,207.54c4.142,0,7.5-3.358,7.5-7.5c0-0.547-0.062-1.08-0.173-1.594c3.049,1.661,6.118,3.275,9.175,4.815v12.659    c0,22.385-18.211,40.597-40.597,40.597s-40.597-18.211-40.597-40.597v-24.048c0-0.361-0.034-0.713-0.083-1.06l25.116-21.528    c7.155,4.931,21.348,14.446,37.229,23.666c-2.948,1.011-5.07,3.799-5.07,7.09C272.595,204.182,275.953,207.54,280.095,207.54z     M225.189,299.123c8.664-3.713,14.262-12.204,14.262-21.63v-8.492c5.229,1.634,10.788,2.515,16.548,2.515    s11.319-0.881,16.548-2.515v8.492c0,9.426,5.598,17.917,14.263,21.63l11.484,4.922c-8.547,15.143-24.502,24.617-42.295,24.617    c-17.806,0-33.753-9.47-42.297-24.616L225.189,299.123z M292.72,285.335c-3.142-1.346-5.171-4.425-5.171-7.843v-15.83    c14.515-10.042,24.048-26.796,24.048-45.743v-5.749c3.111,1.278,6.141,2.412,9.048,3.359v83.774L292.72,285.335z M200.145,352.743    c12.468,7.199,25.034,13.866,37.588,19.971c-20.802,8.598-41.277,15.461-60.891,20.39c-5.539-19.45-9.833-40.614-12.787-62.928    C175.62,337.996,187.677,345.545,200.145,352.743z M207.645,339.753c-8.203-4.736-16.215-9.628-24.023-14.643    c0.997-5.472,4.654-10.167,9.891-12.412l6.331-2.713c10.962,20.675,32.285,33.677,56.155,33.677    c23.852,0,45.187-13.007,56.153-33.678l6.333,2.714c5.235,2.244,8.891,6.935,9.89,12.413c-7.807,5.015-15.818,9.906-24.021,14.642    c-16.053,9.268-32.253,17.633-48.355,25.008C239.898,357.386,223.698,349.021,207.645,339.753z M311.855,352.743    c12.468-7.198,24.525-14.747,36.089-22.567c-2.954,22.314-7.249,43.478-12.787,62.928c-19.614-4.929-40.089-11.792-60.891-20.39    C286.821,366.609,299.387,359.942,311.855,352.743z M256,15c29.187,0,56.602,34.712,74.733,89.566    c-11.26,2.866-22.867,6.366-34.721,10.468c-11.767-6.868-25.432-10.824-40.012-10.824c-14.58,0-28.245,3.956-40.013,10.825    c-11.854-4.101-23.459-7.603-34.719-10.469C199.851,48.392,227.622,15,256,15z M72.952,227.417    c-28.441-37.403-37.795-70.906-25.664-91.917c11.286-19.548,37.94-24.627,58.313-25.445c27.033-1.084,59.936,4.413,95.779,15.916    c-12.966,12.242-21.827,28.77-24.3,47.301c-4.399,2.809-8.738,5.659-13.008,8.548c1.686-12.648,3.806-25.008,6.376-37.023    c0.867-4.05-1.714-8.037-5.765-8.903c-4.046-0.868-8.036,1.715-8.903,5.765c-3.566,16.67-6.299,33.966-8.209,51.766    c-22.541,16.458-42.839,33.897-60.089,51.594C82.275,239.164,77.417,233.289,72.952,227.417z M139.723,400.233    c-46.612,5.93-80.304-2.721-92.435-23.733c-11.441-19.816-4.159-49.961,20.504-84.882c5.765-8.163,12.356-16.394,19.675-24.615    c17.299,17.766,37.584,35.173,60.105,51.598c2.964,27.717,7.897,53.99,14.634,77.854    C154.541,398.034,147.032,399.303,139.723,400.233z M322.771,428.815C304.599,472.148,280.262,497,256,497    s-48.599-24.852-66.771-68.185c-2.85-6.795-5.505-13.932-7.97-21.359c24.036-6.098,49.255-14.963,74.741-26.254    c25.486,11.291,50.705,20.156,74.741,26.254C328.275,414.883,325.62,422.02,322.771,428.815z M464.712,376.5    c-12.131,21.011-45.823,29.663-92.435,23.733c-7.31-0.93-14.818-2.199-22.483-3.777c6.737-23.864,11.669-50.137,14.634-77.854    c22.521-16.425,42.807-33.833,60.105-51.598c7.319,8.221,13.91,16.452,19.675,24.615    C468.872,326.539,476.153,356.684,464.712,376.5z"/>
		<path d="M266.061,223.194c-1.513,1.848-5.257,3.713-10.213,3.713s-8.7-1.865-10.212-3.712c-2.623-3.207-7.348-3.678-10.554-1.056    c-3.206,2.623-3.679,7.348-1.056,10.554c4.721,5.77,12.878,9.214,21.821,9.214c8.943,0,17.101-3.444,21.821-9.214    c2.624-3.206,2.151-7.931-1.055-10.554C273.41,219.517,268.684,219.989,266.061,223.194z"/>
		<circle cx="231.97" cy="200.04" r="7.5"/>
	</g>
</g>















</svg>
