<svg height="511pt" viewBox="-88 0 511 511.99755" width="511pt" xmlns="http://www.w3.org/2000/svg"><path d="m109.433594 301.898438 7.167968 4.566406c16.535157 10.527344 35.609376 16.09375 55.160157 16.09375h.070312c.433594 0 .859375 0 1.300781-.011719 20.460938-.285156 40.964844-6.960937 57.757813-18.800781l7.667969-5.40625-1.410156 9.277344c-9.859376 64.84375-18.660157 130.625-26.160157 195.507812l-.40625 3.515625-75.589843.542969zm0 0" fill="#f7b36f"/><path d="m249.902344 102.566406c-2.859375-10.515625-8.523438-19.144531-15.949219-24.289062-6.679687-4.621094-15.476563-7.0625-25.433594-7.0625-.417969 0-.835937.003906-1.253906.011718-7.027344.140626-13.542969 1.789063-19.84375 3.386719l-.269531.066407c-2.746094.691406-5.582032 1.40625-8.453125 1.996093-1.980469.40625-4.125.605469-6.554688.605469-4.894531 0-10.074219-.816406-15.082031-1.609375l-.167969-.027344c-4.054687-.632812-8.246093-1.289062-12.046875-1.449219-1.335937-.054687-2.667968-.082031-3.957031-.082031-12.953125 0-23.441406 2.785157-31.171875 8.273438-5.773438 4.105469-10.566406 10.144531-13.859375 17.460937l-5.039063 11.207032-2.523437-12.023438c-3.746094-17.855469-6.535156-36.863281-1.601563-54.898438 1.796876-6.542968 4.257813-10.949218 7.753907-13.867187 2.433593-2.039063 5.71875-3.261719 8.785156-3.261719 2.289063 0 4.390625.667969 6.074219 1.9375-.617188-3.835937.742187-7.835937 3.597656-10.460937 2.066406-1.914063 4.929688-3.023438 7.839844-3.023438.96875 0 1.925781.121094 2.84375.363281 1.035156.269532 2.085937.691407 3.097656 1.097657l.292969.117187c1.78125.726563 3.765625 1.535156 5.609375 1.535156.894531 0 1.703125-.195312 2.46875-.601562 1.292968-.679688 2.175781-1.894531 3.03125-3.066406l.082031-.113282c.304687-.417968.617187-.839843.957031-1.234374 2.164063-2.636719 5.820313-4.273438 9.722656-4.316407 3.992188 0 7.566407 1.507813 9.851563 4.136719 2.574219-5.480469 8.582031-9.308594 14.664063-9.308594l.378906.003906c6.246094.1875 12.183594 4.371094 14.453125 10.171876 3.535156-5.976563 10.308593-9.84375 17.308593-9.84375.46875 0 .9375.015624 1.402344.054687 7.296875.5625 14.257813 5.726563 16.929688 12.558594h.035156c1.625-3.746094 5.617188-6.34375 9.746094-6.34375.210937 0 .421875.007812.632812.019531 4.359375.332031 8.28125 3.613281 9.371094 7.808594.167969.660156.277344 1.308594.394531 1.996094l-3.925781.769531 3.945312-.65625c.414063 2.441406.828126 4.253906 2.378907 5.308593 1.160156.792969 2.601562.851563 3.992187.910157l.242188.011719c.449218.019531.894531.039062 1.332031.09375 4.222656.472656 8.132813 3.804687 10.15625 8.691406 1.808594 4.402344 1.996094 9.414062 2.160156 13.839844l.4375 12.105468c.101563 2.671875.199219 5.433594.039063 8.210938-.257813 4.25-1.148438 8.464844-2.011719 12.542968-1.289063 6.066407-3.125 12.8125-4.742187 18.761719l-.074219.277344c-.109375.410156-.21875.828125-.335938 1.246094l-3.914062 13.917969zm0 0" fill="#644c4c"/><path d="m211.160156 502.148438c2.058594-17.773438 4.269532-36.023438 6.5625-54.238282l.1875-1.484375 1.117188-1c10.371094-9.269531 20.898437-19.058593 27.636718-27.816406 4.746094-6.15625 10.007813-14.304687 8.546876-22.75-.324219-1.890625-.972657-3.6875-1.65625-5.585937-1.136719-3.160157-2.179688-6.0625-1.792969-9.179688.625-5.125 4.652343-8.441406 8.917969-11.953125l.097656-.078125c1.925781-1.585938 3.917968-3.222656 5.53125-5.046875 4.8125-5.40625 6.957031-13.492187 5.886718-22.1875-.960937-7.816406-4.269531-15.304687-7.707031-22.230469-3.917969-7.898437-8.285156-15.738281-12.980469-23.308594l5.488282-5.519531c.957031.585938 1.921875 1.171875 2.882812 1.75l1.21875.738281c6.21875 3.753907 12.660156 7.636719 18.578125 12.136719 23.910157 18.183594 40.9375 48.113281 47.945313 84.273438 6.269531 32.34375 4.433594 65.207031 1.8125 98.832031-.476563 6.023438-1.398438 12.726562-6.359375 16.082031-3.109375 2.101563-6.976563 2.300781-11.347657 2.335938l-41.035156.289062 1.164063-65.480469-1.152344 61.582032-.066406 3.902344-59.996094.429687zm0 0" fill="#288fc9"/><path d="m30.363281 507.933594c-8.328125 0-17.488281-.871094-22.273437-7.320313-3.347656-4.519531-3.574219-10.359375-3.515625-16.453125.339843-35.03125 4.144531-70.214844 11.304687-104.566406 4.621094-22.140625 11.71875-46.933594 29.320313-62.941406 9.722656-8.828125 21.960937-14.402344 33.796875-19.792969l.941406-.425781c2.921875-1.335938 6.375-2.929688 9.714844-4.566406l4.878906 6.097656c-7.199219 8.957031-13.488281 18.5625-18.691406 28.554687-2.019532 3.871094-3.996094 8.054688-4.804688 12.441407-.894531 4.878906-.183594 9.476562 2.007813 12.941406 2.535156 4.007812 6.835937 6.363281 10.992187 8.640625l.136719.074219c1.136719.628906 2.222656 1.226562 3.261719 1.847656 6.601562 3.933594 10.042968 9.238281 9.203125 14.1875-.441407 2.675781-2.019531 4.847656-3.6875 7.140625-1.058594 1.453125-2.257813 3.097656-3.027344 4.839843-3.816406 8.648438 2.953125 19.015626 5.175781 22.417969 6.628906 10.128907 16.941406 21.652344 30.664063 34.277344.003906 0 1.597656 1.085937 1.597656 1.085937l7.570313 60.773438-79.507813.570312-.058594-3.972656c-.308593-22.015625-2.386719-44.121094-6.179687-65.703125 3.730468 21.589844 5.804687 43.675781 6.109375 65.652344l.054687 4.027344zm0 0" fill="#288fc9"/><path d="m171.761719 322.5c-21.800781 0-43.476563-7.164062-61.027344-20.167969l-1.378906-1.019531-2.441407-19.59375 1.769532-1.398438c1.988281-1.570312 3.765625-3.144531 5.4375-4.808593l3.375-3.355469 2.726562 3.902344c11.933594 17.085937 32.175782 27.699218 52.832032 27.699218 21.734374-.007812 43.171874-11.972656 54.636718-30.476562l2.699219-4.351562 3.566406 3.667968c1.816407 1.859375 3.761719 3.644532 5.789063 5.304688l1.773437 1.453125-.355469 2.265625c-.464843 2.953125-.921874 5.910156-1.375 8.867187-.316406 2.054688-1.351562 8.722657-1.351562 8.722657l-2.5.683593c-17.746094 14.261719-40.042969 22.28125-62.789062 22.59375zm0 0" fill="#f9d889"/><path d="m170.359375 251.90625c-11.96875 0-23.757813-2.683594-34.097656-7.757812-21.230469-10.40625-37.273438-31.277344-41.871094-54.460938-2.683594 1.367188-5.722656 2.101562-8.851563 2.101562-5.691406 0-11.203124-2.417968-14.746093-6.464843-5.730469-6.554688-6.230469-16.832031-1.164063-23.914063 3.523438-4.910156 9.644532-7.957031 15.976563-7.957031 2.480469 0 4.847656.460937 7.046875 1.367187l.03125-.136718c-1.578125-12.75-3.210938-25.933594-1.316406-38.902344 2.117187-14.394531 8.820312-26.539062 18.390624-33.335938 7.726563-5.484374 18.183594-8.269531 31.085938-8.269531 1.300781 0 2.644531.027344 3.996094.085938 3.867187.160156 7.914062.800781 12.199218 1.476562 5.011719.789063 10.199219 1.605469 15.089844 1.605469 2.429688 0 4.585938-.195312 6.585938-.605469 2.929687-.605469 5.824218-1.332031 8.625-2.039062 6.359375-1.617188 12.863281-3.269531 19.925781-3.410157.371094-.007812.742187-.011718 1.121094-.011718 7.007812 0 17.128906 1.226562 25.535156 7.054687 9.1875 6.371094 15.53125 17.875 17.414063 31.5625 1.699218 12.371094-.054688 24.871094-1.75 36.960938 2.902343-2.773438 7.089843-4.382813 11.527343-4.382813 3.089844 0 6.074219.769532 8.640625 2.230469 6.015625 3.445313 10.042969 10.742187 10.03125 18.164063 0 6.847656-3.269531 14.050781-8.746094 19.261718-5.1875 4.929688-12.007812 7.753906-18.710937 7.753906-2.011719 0-3.972656-.257812-5.832031-.765624-4.472656 23.25-20.371094 44.234374-41.527344 54.792968-10.476562 5.230469-22.441406 7.996094-34.609375 7.996094zm0 0" fill="#efb17c"/><path d="m173.054688 303.699219c-21.242188 0-42.445313-11.582031-54.011719-29.5l-1.5-2.324219 1.644531-2.222656c5.347656-7.246094 8.359375-15.546875 8.476562-23.375l.101563-6.640625 5.820313 3.191406c1.003906.550781 1.835937.984375 2.632812 1.367187 10.332031 5.074219 22.128906 7.753907 34.136719 7.753907 12.203125 0 24.183593-2.761719 34.644531-7.980469 2.765625-1.382812 5.542969-3.003906 8.25-4.828125l6.054688-4.082031.179687 7.300781c.199219 8.164063 3.457031 16.613281 9.421875 24.441406l2.425781 3.1875-3.183593 2.421875c-11.289063 18.976563-32.917969 31.277344-55.0625 31.285156h-.03125zm0 0" fill="#efb17c"/><path d="m264.4375 318.621094c-5.109375-10.285156-10.914062-20.371094-17.257812-29.976563l-5.703126-8.640625-1.585937 10.230469c-7.441406 47.941406-14.367187 96.851563-20.585937 145.363281l-1.394532 10.894532 8.074219-7.445313c9.503906-8.761719 16.253906-15.789063 20.628906-21.476563 4.738281-6.148437 9.988281-14.285156 8.53125-22.695312-.335937-1.953125-1.042969-3.917969-1.671875-5.660156-1.058594-2.933594-2.160156-5.964844-1.78125-9.109375.636719-5.175781 4.863282-8.648438 8.960938-12.019531l.214844-.175782c1.964843-1.625 3.816406-3.160156 5.398437-4.9375 4.789063-5.394531 6.929687-13.464844 5.871094-22.140625-.898438-7.328125-3.726563-14.175781-7.699219-22.210937zm0 0" fill="#5bd0fc"/><path d="m119.269531 439.09375 8.175781 7.972656-20.351562-163.390625-5.855469 6.46875c-9.96875 11.011719-18.492187 23.261719-25.339843 36.402344-2.332032 4.46875-4.039063 8.289063-4.800782 12.421875-.890625 4.867188-.183594 9.445312 1.996094 12.902344 2.523438 3.976562 6.8125 6.335937 10.957031 8.609375l.417969.230469c1 .550781 2.023438 1.117187 3 1.691406 6.621094 3.960937 10.074219 9.289062 9.230469 14.261718-.453125 2.695313-2.105469 4.964844-3.703125 7.167969-1.105469 1.519531-2.242188 3.089844-3.015625 4.816407-2.558594 5.820312-.863281 13.140624 5.183593 22.378906 5.460938 8.347656 13.570313 17.789062 24.105469 28.066406zm0 0" fill="#5bd0fc"/><path d="m331.609375 387.890625c-7.195313-37.136719-24.765625-67.9375-49.476563-86.730469-6.066406-4.613281-12.613281-8.566406-18.949218-12.390625-6.804688-4.105469-13.839844-8.351562-20.035156-13.308593-19.097657-15.277344-20.03125-30.429688-19.542969-36.234376.074219-.910156-.171875-1.769531-.625-2.484374 12.96875-11.144532 22.546875-26.375 26.617187-42.9375 8.429688.835937 17.558594-2.375 24.246094-8.734376 6.351562-6.042968 9.996094-14.132812 10.003906-22.203124.007813-8.976563-4.730468-17.488282-12.074218-21.6875-5.273438-3.011719-11.5625-3.566407-17.070313-1.863282.695313-5.472656 1.234375-11.015625 1.351563-16.597656.59375-.546875 1.042968-1.269531 1.222656-2.121094 1.21875-5.742187 2.972656-12.207031 4.667968-18.457031 1.726563-6.355469 3.511719-12.929687 4.777344-18.894531.902344-4.25 1.835938-8.652344 2.105469-13.222656.175781-2.933594.070313-5.820313-.03125-8.613282l-.445313-12.101562c-.171874-4.769532-.371093-10.179688-2.460937-15.238282-2.582031-6.246093-7.75-10.53125-13.488281-11.183593-.597656-.070313-1.214844-.097657-1.828125-.125-.640625-.027344-1.609375-.066407-1.847657-.1875-.289062-.3125-.539062-1.785157-.691406-2.667969-.132812-.777344-.269531-1.585938-.480468-2.417969-1.507813-5.828125-6.957032-10.390625-12.960938-10.84375-3.640625-.28125-7.316406.976563-10.164062 3.242188-4.09375-5.347657-10.433594-8.960938-17.203126-9.488281-6.820312-.535157-13.710937 2.109374-18.589843 6.839843-3.664063-4.277343-9.113281-7.0625-14.753907-7.2265622-6.128906-.2109378-12.210937 2.7304692-16.125 7.4179692-2.621093-1.5-5.738281-2.285157-8.96875-2.253907-5.140624.058594-9.824218 2.191407-12.847656 5.847657-.390625.472656-.761718.976562-1.128906 1.476562-.585938.800781-1.191406 1.632812-1.65625 1.875-.847656.445312-2.765625-.335938-4.621094-1.089844-1.246094-.507812-2.535156-1.03125-3.921875-1.394531-5.070312-1.324219-10.613281.054687-14.46875 3.601563-2.246093 2.070312-3.804687 4.769531-4.539062 7.679687-4.625-.710937-9.796875.65625-13.769531 3.976563-4.160157 3.472656-7.039063 8.527343-9.058594 15.90625-6.144532 22.441406-.949219 45.816406 3.640625 66.441406.214843.972656.777343 1.769531 1.511719 2.324218-.214844 1.109376-.417969 2.230469-.582032 3.375-1.695312 11.550782-.722656 23.070313.605469 34.308594-8.199219-.835937-16.753906 2.734375-21.625 9.535156-6.144531 8.574219-5.539063 21.023438 1.402344 28.960938 5.804687 6.636719 15.324219 9.300781 23.738281 7.105469 4.824219 18.28125 16.363281 34.839843 31.722656 45.917969 2.296875 12.257812-4.550781 24.28125-11.898437 31.578124-8.742188 8.675782-20.144531 14.253907-33.0625 20.140626l-.925781.425781c-12.128907 5.523437-24.664063 11.238281-34.835938 20.476562-18.476562 16.792969-25.820312 42.34375-30.570312 65.121094-7.210938 34.578125-11.042969 70.027344-11.390626 105.359375-.066406 6.535156.214844 13.378906 4.3125 18.90625 5.753907 7.757812 15.6875 8.964844 25.710938 8.964844h.957031l280.257813-2.019532c3.894531-.027343 9.222656-.066406 13.597656-3.023437 7.003906-4.738281 7.738281-14.105469 8.132812-19.136719 2.648438-33.898437 4.5-67.046875-1.867187-99.925781zm-81.902344 2.6875c.632813 1.75 1.226563 3.40625 1.5 4.980469 1.1875 6.863281-3.523437 14.066406-7.761719 19.570312-5.257812 6.835938-13.496093 14.820313-20.175781 20.976563 6.222657-48.527344 13.105469-97.128907 20.578125-145.257813 6.253906 9.476563 11.964844 19.398438 17 29.554688 3.789063 7.632812 6.480469 14.109375 7.316406 20.917968.921876 7.535157-.859374 14.460938-4.890624 18.996094-1.429688 1.609375-3.246094 3.105469-5.171876 4.6875-4.476562 3.683594-9.550781 7.855469-10.375 14.609375-.496093 4.074219.820313 7.734375 1.980469 10.964844zm-111.179687 112.582031-24.078125-193.324218c17.046875 10.851562 37.054687 16.722656 57.3125 16.722656.480469 0 .964843-.003906 1.445312-.011719 21.449219-.292969 42.496094-7.199219 59.984375-19.523437-9.867187 64.925781-18.660156 130.609374-26.179687 195.644531zm-49.007813-144.1875c-1.171875-.695312-2.371093-1.355468-3.53125-1.992187-3.878906-2.128907-7.546875-4.140625-9.511719-7.25-1.640624-2.597657-2.152343-6.164063-1.441406-10.039063.667969-3.644531 2.246094-7.152344 4.40625-11.296875 6.714844-12.875 15.03125-24.8125 24.761719-35.5625l17.859375 143.394531c-10.203125-9.949218-18.273438-19.320312-23.550781-27.386718-5.25-8.023438-6.84375-14.101563-4.867188-18.578125.585938-1.328125 1.554688-2.664063 2.585938-4.082031 1.78125-2.449219 3.800781-5.226563 4.414062-8.851563 1.132813-6.660156-3.027343-13.523437-11.125-18.355469zm1.039063-313.785156c1.5625-5.71875 3.613281-9.484375 6.449218-11.851562 2.679688-2.238282 7.109376-3.292969 9.898438-1.195313 1.324219.996094 3.117188 1.082031 4.527344.21875 1.414062-.863281 2.152344-2.5 1.867187-4.132813-.425781-2.449218.480469-5.117187 2.308594-6.800781 1.828125-1.683593 4.5625-2.363281 6.96875-1.734375.875.230469 1.867187.632813 2.917969 1.0625 3.0625 1.246094 7.257812 2.949219 11.421875.753906 2.113281-1.113281 3.386719-2.851562 4.40625-4.25.273437-.371093.542969-.746093.835937-1.097656 1.488282-1.796875 4.003906-2.894531 6.730469-2.925781 2.714844.003906 5.265625 1.003906 6.796875 2.765625.894531 1.035156 2.25 1.546875 3.613281 1.347656 1.355469-.191406 2.519531-1.058594 3.09375-2.304687 1.921875-4.175781 6.636719-7.097657 11.253907-6.972657 4.597656.136719 9.148437 3.34375 10.824218 7.625.5625 1.441407 1.902344 2.433594 3.445313 2.554688 1.542969.117188 3.015625-.65625 3.792969-1.996094 2.941406-5.054687 9.058593-8.265625 14.894531-7.816406 5.832031.453125 11.382812 4.578125 13.503906 10.027344.597656 1.527344 2.054687 2.542968 3.695313 2.570312h.0625c1.613281 0 3.074218-.964844 3.710937-2.453125 1.03125-2.417969 3.785156-4.078125 6.414063-3.898437 2.625.199218 5.097656 2.269531 5.757812 4.816406.128906.503906.230469 1.113281.34375 1.757812.417969 2.472657.992188 5.859376 4.074219 7.960938 2.09375 1.433594 4.394531 1.53125 6.074219 1.601562.421874.015626.84375.027344 1.253906.078126 2.78125.316406 5.507812 2.769531 6.945312 6.253906 1.539063 3.71875 1.703125 8.160156 1.859375 12.453125l.441407 12.101562c.101562 2.71875.195312 5.289063.042968 7.835938-.238281 3.972656-1.105468 8.070312-1.949218 12.03125-1.21875 5.746093-2.972657 12.207031-4.667969 18.457031-.132813.492188-.265625.988281-.402344 1.484375-3.085937-11.355469-9.253906-20.785156-17.53125-26.523437-7.648437-5.296876-17.707031-7.996094-29.046875-7.761719-7.488281.144531-14.238281 1.855469-20.765625 3.507812-2.78125.703125-5.65625 1.429688-8.527344 2.019531-5.925781 1.214844-13.195312.074219-20.226562-1.035156-4.214844-.660156-8.574219-1.347656-12.652344-1.519531-15.679687-.660156-28.347656 2.347656-37.613281 8.929687-6.460938 4.589844-11.617188 11.132813-15.1875 19.078126-3.613282-17.199219-6.386719-35.757813-1.65625-53.023438zm7.75 143.71875c-.25-1.25-1.074219-2.3125-2.226563-2.859375-.546875-.257813-1.136719-.386719-1.726562-.386719-.652344 0-1.300781.15625-1.890625.46875-5.996094 3.183594-14.195313 1.671875-18.660156-3.4375-4.472657-5.109375-4.875-13.4375-.917969-18.953125 3.953125-5.519531 11.96875-7.8125 18.242187-5.222656 1.320313.546875 2.84375.347656 3.980469-.523437 1.144531-.867188 1.734375-2.277344 1.558594-3.703126-1.558594-12.515624-3.164063-25.460937-1.339844-37.925781 1.949219-13.3125 8.050781-24.484375 16.742187-30.660156 7.769532-5.519531 18.734376-8.023437 32.609376-7.445313 3.613281.152344 7.558593.773438 11.734374 1.429688 7.738282 1.21875 15.742188 2.476562 23.097657.96875 3.054687-.625 6.019531-1.375 8.886719-2.101562 6.367187-1.613282 12.378906-3.136719 18.941406-3.261719 6.722656-.125 16.410156.859375 24.300781 6.328125 8.265625 5.726562 14 16.230468 15.730469 28.820312 1.621094 11.800782-.09375 24.03125-1.75 35.859375-.242188 1.707031.636718 3.382813 2.175781 4.15625 1.539063.777344 3.40625.488281 4.640625-.71875 3.722656-3.65625 10.460938-4.339843 15.332031-1.558593 4.800781 2.746093 8.019531 8.644531 8.015625 14.683593-.003906 5.785157-2.808594 11.902344-7.5 16.363281-5.808594 5.523438-13.945312 7.894532-20.726562 6.035157-1.085938-.296875-2.246094-.128907-3.199219.46875-.953125.59375-1.617187 1.558593-1.828125 2.660156-4.210938 22.027344-19.285156 41.925781-39.347656 51.941406-20.058594 10.015625-45.027344 10.105469-65.160156.230469-20.128907-9.871094-35.347657-29.664062-39.714844-51.65625zm33.351562 57.4375c.929688.503906 1.863282.996094 2.8125 1.460938 11.082032 5.433593 23.480469 8.148437 35.886719 8.148437 12.597656 0 25.207031-2.804687 36.425781-8.40625 3.003906-1.5 5.90625-3.207031 8.695313-5.085937.222656 9.066406 3.769531 18.28125 10.242187 26.765624-.375.296876-.710937.652344-.96875 1.089844-10.625 17.835938-30.90625 29.371094-51.671875 29.382813-.011719 0-.019531 0-.03125 0-20.101562 0-39.761719-10.800781-50.644531-27.671875 5.871094-7.945313 9.121094-16.992188 9.253906-25.683594zm-14.714844 32.007812c12.570313 17.996094 34.101563 29.40625 56.105469 29.40625h.035157c23.171874-.011718 45.808593-12.683593 58.007812-32.367187 1.882812 1.929687 3.921875 3.804687 6.117188 5.613281-.785157 5.003906-1.550782 10.023438-2.324219 15.035156-.519531.144532-1.015625.386719-1.460938.746094-17.042969 13.691406-38.46875 21.402344-60.328125 21.699219-.449218.007813-.890625.011719-1.339844.011719-21.023437 0-41.75-6.859375-58.644531-19.371094l-1.953125-15.667969c2.011719-1.585937 3.941406-3.28125 5.785156-5.105469zm-85.511718 225.582032c-8.207032.066406-16.339844-.59375-20.132813-5.703125-2.613281-3.523438-2.78125-8.648438-2.730469-14.027344.34375-34.804687 4.121094-69.726563 11.222657-103.792969 4.484375-21.511718 11.332031-45.554687 28.101562-60.796875 9.238281-8.394531 21.191407-13.839843 32.753907-19.109375l.929687-.425781c3.375-1.539063 6.65625-3.058594 9.828125-4.625-7.292969 9.085937-13.707031 18.847656-19.113281 29.210937-2.164063 4.148438-4.289063 8.660157-5.191407 13.574219-1.078124 5.871094-.167968 11.480469 2.558594 15.796875 3.078125 4.875 8.054688 7.601563 12.449219 10.011719 1.148437.632813 2.234375 1.226563 3.277344 1.851563 3.960937 2.359374 7.960937 6.25 7.3125 10.082031-.300781 1.757812-1.546875 3.472656-2.992188 5.460937-1.171875 1.617188-2.507812 3.449219-3.441406 5.566406-4.699219 10.65625 2.976563 22.390626 5.5 26.246094 6.800781 10.394532 17.328125 22.175782 31.289063 35.015625.175781.164063.367187.304688.5625.429688l6.789062 54.519531-71.046875.511719c-.308594-22.183594-2.394531-44.492188-6.238281-66.34375-.382813-2.191407-2.472656-3.652344-4.667969-3.273438-2.191406.386719-3.65625 2.476563-3.269531 4.667969 3.761718 21.410156 5.808594 43.269531 6.113281 65.007812zm294.003906-16.742188c-.398438 5.089844-1.113281 10.722656-4.609375 13.082032-2.179687 1.476562-5.292969 1.613281-9.136719 1.640624l-36.929687.265626 1.09375-61.375c.039062-2.226563-1.734375-4.0625-3.960938-4.101563-.023437-.003906-.046875-.003906-.074219-.003906-2.191406 0-3.988281 1.757812-4.027343 3.960937l-1.097657 61.578125-51.558593.371094c2.085937-18.027344 4.269531-36.105469 6.550781-54.203125 10.5625-9.441406 21.246094-19.390625 28.148438-28.359375 5.242187-6.8125 11.039062-15.910156 9.316406-25.867187-.394532-2.265626-1.136719-4.332032-1.855469-6.332032-.984375-2.726562-1.832031-5.085937-1.566406-7.257812.433593-3.550782 3.707031-6.242188 7.492187-9.355469 2.082032-1.710937 4.230469-3.480469 6.082032-5.5625 5.566406-6.269531 8.066406-15.5 6.863281-25.332031-1.03125-8.410156-4.5-16.277344-8.097657-23.523438-3.996093-8.054687-8.414062-15.964844-13.171874-23.640625 1.378906.839844 2.753906 1.671875 4.117187 2.496094 6.15625 3.714844 12.515625 7.550781 18.234375 11.902344 23.132812 17.59375 39.625 46.664062 46.441406 81.851562 6.175782 31.886719 4.351563 64.441407 1.746094 97.765625zm0 0"/></svg>