<svg height="512pt" viewBox="-85 0 512 512.00251" width="512pt" xmlns="http://www.w3.org/2000/svg"><path d="m179.699219 318.03125c-.210938 0-.425781-.003906-.640625-.015625-4.339844-.21875-8.515625-2.832031-10.625-6.652344-1.113282-2.015625-1.675782-4.4375-1.675782-7.203125 0-2.117187.339844-4.3125 1.011719-6.527344 1.691407-5.511718 5.101563-10.019531 9.113281-12.074218 1.390626-.707032 2.757813-1.066406 4.074219-1.066406 1.230469 0 2.386719.296874 3.535157.914062 5.128906 2.738281 7.796874 10.597656 8.335937 15.207031.535156 4.609375-.355469 8.835938-2.507813 11.902344-2.324218 3.347656-6.496093 5.515625-10.621093 5.515625zm0 0" fill="#ffbf48"/><path d="m273.09375 300.414062c-8.167969-6.382812-16.8125-13.371093-24.71875-21.246093-9.316406-9.265625-24.828125-28.34375-24.027344-52.019531l.0625-1.867188 1.472656-1.152344c7.765626-6.066406 14.101563-13.652344 18.320313-21.941406 8.410156-16.515625 9.417969-36.027344 10.308594-53.238281.125-2.527344.28125-5.613281-.960938-8.152344-1.585937-3.25-5.128906-5.070313-8.253906-6.675781l-.925781-.46875c-14.40625-7.523438-25.691406-20.597656-31.015625-35.886719-3.9375-11.308594-3.003907-21.480469-2.015625-32.25.179687-1.96875.359375-3.972656.515625-6.011719-2.480469 1.214844-4.394531 3.789063-6.25 6.277344-1.386719 1.878906-2.542969 3.402344-3.859375 4.609375-4.191406 3.804687-9.230469 7.007813-14.980469 9.535156-8.792969 3.863281-17.882813 5.855469-27.503906 7.964844l-.199219.042969c-3.222656.707031-6.558594 1.441406-9.808594 2.242187-10.964844 2.707031-24.792968 7.082031-34.488281 17.011719-11.699219 11.980469-14.550781 28.835938-14.882813 40.863281-.652343 24.398438 7.964844 48.152344 23.644532 65.171875 1.808594 1.957032 3.738281 3.855469 5.738281 5.628906l1.4375 1.28125s-.105469 1.949219-.105469 1.949219c4.488282 18.082031-5.464844 36.125-16.285156 47-8.40625 8.457031-18.433594 14.882813-30.898438 21.933594l-2.527343 1.429687-2.140625-1.960937c-.035156-.03125-.070313-.066406-.109375-.097656-25.054688-14.382813-38.792969-46.476563-31.882813-74.605469 1.925782-7.863281 5.152344-15.09375 8.570313-22.75l.046875-.101562c3.910156-8.78125 7.953125-17.863282 9.484375-27.484376 1.6875-10.617187.261719-21.5-1.121094-32.027343-.941406-7.101563-2.003906-15.128907-1.90625-22.8125.320313-27.695313 16.132813-56.636719 42.289063-77.421875 22.796874-18.117188 50.285156-28.449219 77.402343-29.089844.894531-.019531 1.785157-.027344 2.671875-.027344 28.015625 0 55.007813 10.527344 74.0625 28.886719 20.65625 19.90625 31.300782 49.113281 27.78125 76.226563-.6875 5.289062-1.910156 10.707031-2.984375 15.484374-2.03125 8.996094-4.132812 18.292969-3.40625 27.660157.996094 12.753906 7.132813 24.359375 13.066407 35.582031 3.386718 6.390625 6.878906 12.984375 9.421874 19.773438 11.796876 31.445312 1.917969 70.167968-23.480468 92.121093l-2.554688 2.945313zm0 0" fill="#644c4c"/><path d="m324.269531 507.941406c-.941406 0-1.953125-.027344-3.023437-.0625-.679688-.03125-1.289063-.046875-1.894532-.058594l-51.445312-.976562 2.34375-77.09375-2.40625 77.085938-89.269531-1.699219-.046875-3.878907c-.300782-24.824218-.027344-49.921874.808594-74.601562l.085937-2.484375 2.265625-1.023437c13.210938-5.976563 26.339844-12.558594 39.015625-19.566407l1.4375-.785156c4.832031-2.632813 12.78125-6.960937 14.480469-11.925781 1.164062-3.382813.558594-7.765625-.027344-12l-.023438-.195313c-.496093-3.652343-1.003906-7.429687-.40625-10.652343 1.585938-8.542969 6.921876-15.570313 13.589844-17.90625 3.339844-1.171876 6.953125-1.261719 10.445313-1.34375 1.207031-.03125 2.425781-.058594 3.621093-.125 6.035157-.367188 10.324219-2.132813 12.730469-5.25 3.394531-4.375 3.011719-10.996094-1.125-19.6875-3.457031-7.25-7.527343-14.304688-12.089843-20.957032l5.789062-5.390625c3.566406 2.835938 7.191406 5.644531 10.699219 8.359375l1.277343.984375c2.648438 2.042969 5.289063 4.082031 7.902344 6.144531 14.007813 11.046876 25.765625 26.261719 34 43.996094 9.472656 20.425782 14.789063 45.003906 15.796875 73.058594.507813 14.1875.015625 29.351562-1.589843 49.179688-.164063 2.058593-.195313 4.445312-.214844 7.125-.066406 5.9375-.136719 12.5625-1.980469 16.972656-1.980469 4.757812-7.898437 4.757812-10.746094 4.757812zm0 0" fill="#288fc9"/><path d="m67.421875 503.007812.46875-4.34375c2.578125-24 3.835937-48.324218 3.734375-72.296874.042969 24.132812-1.242188 48.695312-3.871094 73.003906l-.394531 3.640625-23.5-.453125c-.21875 0-.453125-.003906-.695313-.003906-2.289062 0-4.84375.148437-7.949218.339843-2.984375.183594-6.367188.394531-9.546875.394531-4.886719 0-8.417969-.496093-11.109375-1.558593-9.058594-3.574219-12.1875-17.332031-9.566406-42.050781 2.648437-25.003907 7.621093-51.894532 15.640624-84.621094 3.398438-13.863282 7.28125-28.496094 13.996094-41.566406 7.546875-14.710938 18.472656-25.34375 36.53125-35.554688 1.960938-1.105469 3.929688-2.203125 5.898438-3.296875l.203125-.113281c2.710937-1.503906 5.425781-3.019532 8.140625-4.570313l5.140625 5.929688c-9.191407 11.8125-16.761719 24.707031-22.5 38.328125-1.976563 4.691406-4.527344 13.21875.632812 17.625 1.703125 1.457031 3.925781 2.164062 6.785157 2.164062 2.828124 0 5.660156-.679687 7.933593-1.222656 7.40625-1.769531 14.976563-3.125 22.496094-4.03125 2.058594-.246094 3.613281-.355469 5.054687-.355469 3.539063 0 6.273438.730469 8.359376 2.230469 5.816406 4.203125 5.089843 12.96875 4.511718 16.546875-.214844 1.324219-.476562 2.617187-.757812 3.980469l-.082032.390625c-.964843 4.695312-1.863281 9.085937-.890624 13.53125 1.851562 8.472656 9.8125 13.898437 18.136718 18.503906 11.9375 6.601563 24.300782 12.835937 36.742188 18.535156l2.421875 1.109375-.089844 2.664063c-.859375 24.855469-1.140625 50.125-.839844 75.113281l.050781 4.128906zm0 0" fill="#288fc9"/><g fill="#ffdac4"><path d="m182.089844 239.316406c-21.550782 0-43.425782-9.769531-58.511719-26.132812-15.667969-17.003906-24.277344-40.742188-23.628906-65.136719.328125-12.023437 3.175781-28.859375 14.855469-40.8125 9.703124-9.929687 23.515624-14.300781 34.464843-16.996094 3.539063-.867187 7.210938-1.675781 10.019531-2.285156 9.199219-2.027344 18.726563-4.121094 27.5-7.964844 5.773438-2.542969 10.8125-5.753906 14.976563-9.535156.613281-.558594 1.246094-1.234375 1.9375-2.078125l8.0625-9.832031-.980469 12.675781c-.738281 9.503906-.589844 17.65625 2.511719 26.570312 5.328125 15.308594 16.628906 28.390626 31 35.886719l.972656.5c3.277344 1.691407 6.644531 3.429688 8.226563 6.636719 1.234375 2.535156 1.078125 5.609375.949218 8.078125-.882812 17.242187-1.882812 36.746094-10.292968 53.265625-10.542969 20.703125-32.917969 35.214844-57.003906 36.976562-1.667969.121094-3.367188.183594-5.058594.183594zm0 0"/><path d="m179.007812 409.046875-.300781-27.769531.199219 24.691406-7.644531 1.691406c-21.808594-48.285156-37.953125-90.960937-52.34375-138.375l-2.167969-2.539062 2.734375-3.429688 2.601563-3.195312 3.117187 2.695312c12.6875 10.984375 28.929687 17.449219 45.722656 18.210938l9.382813.421875-6.804688 6.472656c-2.570312 2.441406-4.625 5.878906-5.792968 9.683594-1.570313 5.132812-1.328126 10.15625.667968 13.785156 2.117188 3.832031 6.3125 6.457031 10.6875 6.6875.183594.011719.328125.011719.457032.011719h.152343c4.160157 0 8.363281-2.175782 10.707031-5.542969 2.15625-3.097656 3.046876-7.335937 2.5-11.9375-.519531-4.539063-2.738281-10.597656-6.507812-13.933594l-6.078125-5.375 7.96875-1.546875c14.574219-2.824218 28.351563-10.117187 38.796875-20.535156l3.671875-3.660156 2.609375 4.476562c2.105469 3.617188 4.601562 7.226563 7.414062 10.730469l1.464844 1.828125-55.503906 137.902344zm0 0"/><path d="m174.335938 281.046875c-18.0625 0-36.199219-6.890625-49.761719-18.902344l-2.507813-2.222656 1.746094-2.855469c3.9375-6.4375 8.496094-16.503906 7.890625-27.933594l-.429687-8.03125 6.664062 4.507813c13.132812 8.878906 28.742188 13.769531 43.957031 13.769531 1.855469 0 3.570313-.058594 5.25-.1875 10.828125-.785156 21.613281-4.214844 31.199219-9.910156l5.597656-3.328125.4375 6.5c.453125 6.789063 2.222656 13.652344 5.257813 20.394531l1.085937 2.425782-1.808594 1.941406c-13.304687 14.285156-32.871093 23.179687-52.339843 23.792968-.742188.027344-1.492188.039063-2.238281.039063zm0 0"/></g><path d="m220.679688 403.519531 1.441406-.792969c7.644531-4.140624 13.027344-7.75 14.449218-11.882812 1.136719-3.328125.550782-7.652344-.015624-11.835938l-.019532-.132812c-.511718-3.71875-1.042968-7.566406-.4375-10.859375 1.617188-8.699219 6.839844-15.582031 13.628906-17.957031 3.367188-1.179688 6.976563-1.265625 10.472657-1.347656l.558593-.015626c1.019532-.023437 2.039063-.046874 3.046876-.109374 6.019531-.363282 10.292968-2.121094 12.703124-5.222657 3.414063-4.410156 3.042969-10.828125-1.140624-19.621093-7.636719-16.011719-17.855469-30.460938-30.375-42.953126l-4.28125-4.265624-59.039063 146.667968 9.25-4.394531c10.019531-4.761719 20.03125-9.898437 29.757813-15.277344zm0 0" fill="#5bd0fc"/><path d="m68.710938 351.792969c1.667968 1.425781 3.921874 2.148437 6.695312 2.148437 2.632812 0 5.492188-.628906 7.972656-1.21875 7.367188-1.769531 14.9375-3.125 22.496094-4.027344 2.042969-.246093 3.667969-.363281 5.113281-.363281 3.574219 0 6.230469.714844 8.359375 2.253907 4.109375 2.964843 5.757813 9.011718 4.53125 16.59375-.210937 1.300781-.484375 2.636718-.75 3.929687l-.097656.488281c-.917969 4.441406-1.863281 9.035156-.882812 13.457032 1.839843 8.453124 9.785156 13.871093 18.101562 18.46875 9.09375 5.023437 18.453125 9.851562 27.828125 14.34375l9.945313 4.773437-4.578126-10.039063c-22.332031-48.96875-38.773437-91.878906-53.304687-139.136718l-1.800781-5.851563-4.636719 4c-19.742187 17.023438-35.511719 38.679688-45.601563 62.621094-2.414062 5.710937-4.265624 13.394531.609376 17.558594zm0 0" fill="#5bd0fc"/><path d="m342.859375 429.765625c-1.023437-28.601563-6.464844-53.710937-16.171875-74.625-8.5-18.3125-20.660156-34.039063-35.171875-45.480469-3.011719-2.375-6.054687-4.726562-9.105469-7.082031-.136718-.109375-.277344-.214844-.417968-.324219 26.125-23.132812 36.207031-63.316406 23.945312-96.003906-2.636719-7.019531-6.1875-13.734375-9.625-20.226562-6.007812-11.363282-11.6875-22.09375-12.617188-34.015626-.679687-8.714843 1.261719-17.335937 3.316407-26.460937 1.15625-5.148437 2.355469-10.472656 3.050781-15.847656 3.679688-28.367188-7.429688-58.894531-28.992188-79.671875-20.511718-19.769532-49.539062-30.695313-79.644531-29.996094-27.996093.65625-56.347656 11.300781-79.835937 29.96875-27.097656 21.53125-43.480469 51.644531-43.828125 80.550781-.09375 7.890625.941406 15.757813 1.941406 23.363281 1.40625 10.722657 2.738281 20.847657 1.140625 30.894532-1.453125 9.121094-5.230469 17.59375-9.230469 26.5625-3.339843 7.480468-6.792969 15.21875-8.808593 23.441406-7.019532 28.609375 6.101562 61.070312 30.6875 77.164062-1.445313.808594-2.894532 1.613282-4.332032 2.425782-18.796875 10.617187-30.203125 21.753906-38.148437 37.234375-6.921875 13.488281-10.871094 28.367187-14.324219 42.453125-8.070312 32.921875-13.070312 59.980468-15.734375 85.15625-1.8125 17.089844-2.527344 40.480468 12.117187 46.265625 6.175782 2.441406 14.796876 1.910156 22.394532 1.4375 3.074218-.191407 5.980468-.367188 8.320312-.324219l275.476563 5.257812c.605469.011719 1.222656.03125 1.851562.054688.957031.03125 1.988281.066406 3.066407.066406 5.417968 0 11.914062-.863281 14.585937-7.253906 2.160156-5.160156 2.230469-12.238281 2.292969-18.484375.023437-2.519531.046875-4.894531.207031-6.847656 1.617187-19.96875 2.109375-35.28125 1.59375-49.652344zm-292.226563-213.03125c1.84375-7.515625 5-14.589844 8.339844-22.078125 4.039063-9.050781 8.214844-18.40625 9.832032-28.578125 1.78125-11.203125.3125-22.390625-1.109376-33.210937-.964843-7.328126-1.957031-14.902344-1.871093-22.21875.316406-26.507813 15.5625-54.296876 40.777343-74.335938 22.125-17.582031 48.761719-27.601562 75.011719-28.21875 28-.664062 54.890625 9.453125 73.863281 27.738281 19.757813 19.042969 29.945313 46.949219 26.59375 72.832031-.652343 5.003907-1.808593 10.144532-2.925781 15.113282-2.09375 9.308594-4.261719 18.929687-3.488281 28.855468 1.0625 13.589844 7.402344 25.570313 13.53125 37.160157 3.316406 6.269531 6.746094 12.75 9.199219 19.289062 11.242187 29.960938 1.808593 66.867188-22.425781 87.757813-.148438.128906-.273438.277344-.398438.421875-8.421875-6.582031-16.832031-13.433594-24.367188-20.933594-8.886718-8.839844-23.597656-26.914063-22.851562-49.042969 8.097656-6.324218 14.824219-14.246094 19.425781-23.285156 8.800781-17.277344 9.828125-37.246094 10.734375-54.863281.144532-2.792969.34375-6.621094-1.355468-10.09375-2.167969-4.441407-6.523438-6.679688-10.023438-8.480469l-.941406-.484375c-13.46875-7.027344-24.054688-19.285156-29.050782-33.628906-3.644531-10.476563-2.792968-19.789063-1.808593-30.574219.179687-1.984375.363281-4.003906.523437-6.0625.113282-1.453125-.566406-2.851562-1.777344-3.660156-1.214843-.8125-2.765624-.902344-4.066406-.242188-3.285156 1.667969-5.589844 4.769532-7.621094 7.507813-1.15625 1.558593-2.25 3.035156-3.339843 4.023437-3.859375 3.503906-8.53125 6.472656-13.886719 8.824219-8.398438 3.683594-17.308594 5.640625-26.746094 7.714844-3.316406.730469-6.746094 1.484375-10.113281 2.3125-11.464844 2.824219-25.964844 7.429687-36.390625 18.101562-12.613281 12.914063-15.667969 30.808594-16.011719 43.542969-.683593 25.429688 8.320313 50.210938 24.699219 67.992188 1.914062 2.082031 3.925781 4.050781 6.015625 5.914062-.015625.382812 0 .769531.097656 1.15625 4.121094 16.472656-5.164062 33.148438-15.226562 43.261719-8.570313 8.617187-19.261719 15.175781-30.03125 21.265625-.226563-.210938-.472657-.40625-.753907-.570313-23.632812-13.566406-36.558593-43.757812-30.0625-70.222656zm181.9375 162.683594c.519532 3.769531 1.054688 7.667969.214844 10.128906-1.199218 3.496094-8.875 7.664063-12.566406 9.667969-.53125.285156-1.03125.558594-1.484375.808594-9.636719 5.332031-19.53125 10.410156-29.527344 15.164062l52.957031-131.570312c12.210938 12.1875 22.167969 26.265624 29.589844 41.839843 3.425782 7.191407 3.964844 12.390625 1.59375 15.453125-1.667968 2.15625-4.960937 3.390625-9.78125 3.679688-1.148437.066406-2.308594.09375-3.46875.121094-3.8125.09375-7.753906.1875-11.691406 1.566406-8.140625 2.855468-14.359375 10.902344-16.234375 21-.730469 3.921875-.15625 8.097656.398437 12.140625zm-110.882812-32.078125c-4.773438-3.449219-10.648438-3.300782-16.289062-2.621094-7.691407.921875-15.410157 2.304688-22.949219 4.109375-4.367188 1.042969-8.824219 1.898437-11.144531-.078125-3.308594-2.824219-.769532-10.003906.476562-12.957031 9.882812-23.445313 25.269531-44.546875 44.539062-61.15625 14.503907 47.179687 31.171876 90.699219 53.484376 139.628906-9.339844-4.488281-18.589844-9.25-27.617188-14.242187-7.488281-4.144532-14.628906-8.929688-16.136719-15.820313-.792969-3.617187.03125-7.609375.902344-11.835937.304687-1.476563.621094-3.003907.871094-4.546876 1.480469-9.128906-.753907-16.59375-6.136719-20.480468zm66.703125-263.691406c6.15625-2.703126 11.566406-6.148438 16.070313-10.238282.839843-.761718 1.605468-1.613281 2.332031-2.496094-.707031 9.164063-.769531 18.160157 2.726562 28.1875 5.660157 16.261719 17.664063 30.15625 32.929688 38.125l.984375.507813c2.816406 1.445313 5.472656 2.8125 6.46875 4.847656.78125 1.601563.65625 4.011719.546875 6.136719-.863281 16.816406-1.847657 35.875-9.867188 51.621094-9.917969 19.484375-31.007812 33.144531-53.726562 34.800781-21.730469 1.585937-44.855469-7.871094-60.335938-24.675781-14.96875-16.25-23.195312-38.960938-22.566406-62.3125.300781-11.292969 2.925781-27.078125 13.71875-38.125 9-9.210938 22.121094-13.339844 32.550781-15.90625 3.269532-.804688 6.648438-1.546875 9.914063-2.265625 9.40625-2.066407 19.132812-4.203125 28.253906-8.207031zm-5.6875 297.585937c-.023437-2.226563-1.867187-4-4.074219-3.988281-2.226562.023437-4.011718 1.847656-3.988281 4.074218l.269531 24.691407c-21.699218-48.042969-37.945312-91.027344-52.160156-137.894531-.167969-.5625-.453125-1.050782-.816406-1.464844.21875-.273438.4375-.539063.652344-.816406 13.378906 11.585937 30.5 18.386718 48.160156 19.191406-3.027344 2.871094-5.464844 6.871094-6.855469 11.40625-1.886719 6.171875-1.527344 12.328125.992187 16.890625 2.765626 5.015625 8.25 8.449219 13.96875 8.75.277344.015625.554688.023437.832032.023437 5.449218 0 10.863281-2.792968 13.980468-7.261718 2.714844-3.890626 3.851563-9.109376 3.199219-14.695313-.648437-5.535156-3.335937-12.480469-7.835937-16.460937 15.375-2.976563 29.71875-10.519532 40.855468-21.628907 2.441407 4.175781 5.113282 7.933594 7.75 11.226563l-54.625 135.71875zm-11.105469-82.441406c1.355469-4.417969 4.078125-8.125 7.109375-9.671875.902344-.460938 1.640625-.625 2.25-.625.691407 0 1.21875.207031 1.648438.4375 3.179687 1.699218 5.71875 7.628906 6.246093 12.144531.421876 3.625-.214843 6.875-1.800781 9.144531-1.695312 2.429688-4.835937 3.957032-7.777343 3.800782-2.957032-.15625-5.90625-2-7.335938-4.59375-1.445312-2.625-1.570312-6.601563-.339844-10.636719zm10.300782-55.410157c1.847656 0 3.699218-.0625 5.542968-.199218 11.707032-.855469 23.03125-4.570313 32.941406-10.460938.53125 7.894532 2.65625 15.210938 5.597657 21.773438-12.589844 13.519531-31.070313 21.933594-49.53125 22.519531-17.699219.5625-35.921875-6.089844-49.226563-17.859375 5.378906-8.808594 9.046875-19.324219 8.472656-30.230469 13.78125 9.316407 29.964844 14.457031 46.203126 14.457031zm-146.933594 255.519532c-6.761719.417968-14.425782.894531-18.933594-.886719-8.789062-3.472656-8.691406-22.539063-7.0625-37.917969 2.625-24.804687 7.566406-51.523437 15.546875-84.089844 3.339844-13.617187 7.144531-27.976562 13.667969-40.6875 7.167968-13.972656 17.621094-24.109374 34.941406-33.898437 2.019531-1.140625 4.050781-2.269531 6.085938-3.402344 2.714843-1.507812 5.449218-3.03125 8.171874-4.589843-9.339843 12.003906-17.125 25.21875-23.03125 39.234374-4.148437 9.839844-3.539062 17.734376 1.71875 22.222657 5.636719 4.804687 13.535157 2.914062 18.253907 1.785156 7.238281-1.730469 14.652343-3.058594 22.039062-3.945313 4.011719-.484374 8.074219-.675781 10.605469 1.152344 4.109375 2.96875 3.253906 10.4375 2.894531 12.65625-.222656 1.371094-.507812 2.75-.808593 4.210938-1 4.863281-2.039063 9.894531-.878907 15.1875 2.195313 10.023437 10.960938 16.085937 20.109375 21.148437 12.046875 6.664063 24.480469 12.929688 37.011719 18.667969-.859375 24.976562-1.136719 50.285156-.839844 75.308594l-102.589843-1.960938c2.585937-24.097656 3.859374-48.546875 3.757812-72.746094-.011719-2.21875-1.8125-4.015624-4.03125-4.015624-.007812 0-.011719 0-.019531 0-2.226563.011718-4.023438 1.824218-4.015625 4.050781.101562 24.136719-1.179688 48.527343-3.785156 72.558593l-19.839844-.378906c-2.664063-.050781-5.730469.136719-8.96875.335938zm298.261718-20.140625c-.179687 2.242187-.207031 4.757812-.234374 7.421875-.054688 5.507812-.117188 11.746094-1.667969 15.453125-.980469 2.351562-4.742188 2.410156-9.945313 2.238281-.667968-.019531-1.324218-.042969-1.964844-.054688l-47.382812-.90625 2.21875-73.046874c.070312-2.226563-1.679688-4.082032-3.90625-4.152344-2.183594-.085938-4.085938 1.683594-4.152344 3.910156l-2.222656 73.136719-81.445312-1.554688c-.296876-24.722656-.027344-49.726562.808593-74.414062 13.316407-6.023438 26.535157-12.648438 39.308594-19.714844.4375-.242187.914063-.503906 1.421875-.78125 5.628906-3.050781 14.132812-7.667969 16.351562-14.136719 1.464844-4.273437.792969-9.136718.148438-13.84375-.46875-3.40625-.953125-6.929687-.464844-9.566406 1.328125-7.160156 5.640625-12.992188 10.976563-14.863281 2.734375-.960938 5.886719-1.035157 9.21875-1.117188 1.253906-.027343 2.511719-.058593 3.753906-.132812 7.246094-.433594 12.519531-2.71875 15.675781-6.792969 4.386719-5.667969 4.15625-13.691406-.6875-23.855469-3.582031-7.511719-7.730468-14.6875-12.398437-21.496093 3.617187 2.871093 7.25 5.6875 10.84375 8.464843 3.03125 2.339844 6.054687 4.675781 9.042969 7.035157 13.523437 10.660156 24.882812 25.371093 32.851562 42.539062 9.253906 19.9375 14.445312 44 15.425781 71.519531.503907 14.050781.019531 29.074219-1.574219 48.710938zm0 0"/></svg>